{"glyphs":{"0":{"ha":860,"x_min":69,"x_max":801,"o":"m 401 -12 q 158 72 247 -12 q 69 296 69 156 q 79 386 69 331 q 154 553 97 482 q 295 664 211 625 q 481 703 379 703 q 716 624 631 703 q 801 408 801 544 q 792 317 801 361 q 718 145 774 219 q 581 29 663 71 q 401 -12 499 -12 m 421 60 q 556 118 499 60 q 635 289 614 176 q 646 393 646 349 q 594 567 646 504 q 453 631 543 631 q 310 572 368 631 q 233 408 253 513 q 224 308 224 360 q 276 127 224 194 q 421 60 329 60 z "},"1":{"ha":539,"x_min":47,"x_max":503,"o":"m 47 -4 q 61 63 50 38 q 122 80 101 68 q 151 115 142 92 q 169 188 160 139 l 231 508 q 236 561 236 536 q 217 610 236 594 q 150 632 199 625 q 146 668 146 649 q 149 699 146 676 q 322 694 231 694 q 503 699 413 694 q 489 632 500 657 q 430 612 450 625 q 400 574 410 599 q 381 503 390 550 l 321 188 q 314 129 314 149 q 333 84 314 99 q 400 63 351 69 q 404 21 404 44 q 403 -4 404 4 q 225 0 313 0 q 47 -4 122 0 z "},"2":{"ha":682,"x_min":14,"x_max":618,"o":"m 400 703 q 157 639 265 703 q 125 457 153 543 q 211 442 156 442 q 268 586 231 540 q 363 632 306 632 q 434 606 408 632 q 460 533 460 581 q 306 293 460 407 q 147 171 210 219 q 15 65 85 122 q 14 46 14 58 q 26 -4 14 17 q 282 0 121 0 q 429 -3 351 0 q 481 -4 451 -4 q 527 3 511 -4 q 553 33 543 11 q 571 211 553 110 q 534 222 557 218 q 490 224 511 225 q 463 153 478 171 q 418 136 449 136 q 388 138 400 136 q 311 140 346 140 q 218 138 250 140 q 346 238 293 199 l 429 299 q 565 416 524 369 q 615 522 606 463 q 618 554 618 544 q 561 665 618 626 q 400 703 504 703 z "},"3":{"ha":676,"x_min":0,"x_max":604,"o":"m 143 639 q 110 457 139 532 q 197 442 147 439 q 351 632 236 632 q 421 607 396 632 q 446 533 446 582 q 443 499 446 511 q 199 278 417 343 q 197 260 197 272 q 213 213 197 231 q 357 175 308 214 q 406 68 406 136 q 400 21 406 54 q 317 -114 383 -64 q 150 -164 251 -164 q 32 -140 76 -164 q 10 -164 19 -147 q 0 -199 1 -181 q 157 -237 50 -237 q 415 -164 307 -237 q 554 33 522 -90 q 564 106 564 68 q 522 237 564 182 q 406 307 479 292 q 541 404 497 356 q 599 507 585 453 q 604 553 604 529 q 547 663 604 622 q 382 703 490 703 q 143 639 249 703 z "},"4":{"ha":753,"x_min":11,"x_max":651,"o":"m 651 107 q 617 0 628 61 l 507 0 l 468 -212 q 340 -237 399 -214 q 321 -201 321 -225 q 322 -185 321 -190 l 357 -1 l 79 -6 q 36 -7 64 -7 q 14 78 11 25 q 553 703 329 432 q 632 689 597 703 l 531 132 l 604 132 q 651 107 635 132 m 382 125 l 411 290 q 454 489 432 410 q 309 309 397 411 q 142 125 221 207 l 382 125 z "},"5":{"ha":651,"x_min":-25,"x_max":618,"o":"m 90 333 q 115 286 90 303 q 312 223 240 281 q 383 76 383 165 q 379 33 383 54 q 294 -108 364 -53 q 125 -164 224 -164 q 6 -142 56 -164 q -25 -200 -18 -160 q 129 -237 32 -237 q 312 -201 226 -237 q 456 -98 397 -165 q 532 60 514 -31 q 539 121 539 94 q 444 320 539 242 q 190 418 350 399 l 231 549 q 538 556 322 556 q 571 562 558 556 q 592 582 583 568 q 618 758 596 685 q 535 771 589 774 q 509 715 529 736 q 443 694 489 694 q 206 699 286 694 l 90 333 z "},"6":{"ha":760,"x_min":81,"x_max":719,"o":"m 717 831 q 267 499 363 765 q 351 538 311 526 q 439 549 392 549 q 611 488 549 549 q 674 326 674 428 q 667 254 674 286 q 556 60 643 132 q 347 -12 469 -12 q 150 63 219 -12 q 81 274 81 138 q 93 393 81 329 q 208 644 121 536 q 426 815 296 753 q 711 886 557 878 q 719 854 719 874 q 717 831 719 847 m 383 463 q 310 455 342 463 q 247 429 279 447 q 242 403 244 422 q 229 274 229 332 q 265 117 229 174 q 364 60 300 60 q 461 106 419 60 q 517 231 503 153 q 522 294 522 260 q 485 417 522 372 q 383 463 449 463 z "},"7":{"ha":650,"x_min":111,"x_max":647,"o":"m 626 699 q 647 643 644 681 q 442 346 504 440 q 350 188 381 251 q 300 44 315 118 q 278 -150 285 -29 q 210 -189 246 -164 q 154 -236 175 -214 q 123 -214 133 -232 q 113 -153 113 -196 q 143 -6 113 -85 q 258 203 174 72 q 507 556 342 333 l 332 556 q 246 531 274 556 q 197 438 218 507 q 111 453 142 435 q 158 699 147 572 q 411 694 238 694 q 626 699 529 694 z "},"8":{"ha":726,"x_min":53,"x_max":686,"o":"m 682 681 q 619 571 668 617 q 496 490 571 525 q 635 249 635 376 q 625 179 635 213 q 521 35 600 83 q 321 -12 442 -12 q 124 37 196 -12 q 53 179 53 86 q 60 236 53 201 q 128 364 76 311 q 285 468 179 417 q 174 658 174 557 q 181 711 174 689 q 276 838 201 792 q 460 885 350 885 q 628 838 571 885 q 686 719 686 792 q 682 681 686 700 m 543 671 q 547 713 547 694 q 519 790 547 764 q 446 817 490 817 q 373 794 403 817 q 331 726 343 771 q 325 689 325 710 q 354 608 325 642 q 438 533 383 574 q 509 594 483 563 q 543 671 535 626 m 472 169 q 479 219 479 200 q 444 324 479 278 q 340 424 408 371 q 246 347 278 389 q 203 244 214 304 q 197 194 197 208 q 233 94 197 129 q 333 58 269 58 q 472 169 446 58 z "},"9":{"ha":756,"x_min":24,"x_max":685,"o":"m 424 703 q 617 628 549 703 q 685 422 685 554 q 672 301 685 367 q 553 31 642 150 q 331 -157 464 -87 q 35 -236 197 -226 q 26 -181 24 -217 q 488 165 375 -117 q 326 119 415 119 q 153 183 213 119 q 94 351 94 246 q 104 440 94 397 q 213 633 129 563 q 424 703 296 703 m 525 299 q 536 419 536 358 q 500 575 536 519 q 403 631 464 631 q 308 585 347 631 q 253 457 268 539 q 246 382 246 415 q 281 256 246 304 q 392 207 317 207 q 511 238 456 207 l 525 299 z "},"\r":{"ha":254,"x_min":0,"x_max":0,"o":""}," ":{"ha":254,"x_min":0,"x_max":0,"o":""},"A":{"ha":960,"x_min":-39,"x_max":878,"o":"m 872 63 q 878 19 878 44 q 876 -4 878 4 q 713 0 829 0 q 540 -4 596 0 q 553 63 540 38 q 617 83 599 69 q 636 125 636 96 q 628 176 636 146 l 613 239 l 600 293 q 238 286 376 293 l 188 200 q 150 108 150 133 q 165 78 150 89 q 211 63 179 68 q 215 -4 218 32 q 81 0 172 0 q -39 -4 -1 0 q -26 63 -39 38 q 38 104 10 74 q 114 215 65 135 q 529 939 294 521 q 592 947 553 947 q 790 197 707 549 q 814 117 803 143 q 838 80 825 90 q 872 63 850 69 m 583 361 q 519 600 546 504 q 488 749 497 681 q 408 593 457 683 q 308 408 383 543 q 294 385 301 397 q 282 361 288 374 l 583 361 z "},"Á":{"ha":960,"x_min":-39,"x_max":878,"o":"m 872 63 q 878 19 878 44 q 876 -4 878 4 q 713 0 829 0 q 540 -4 596 0 q 553 63 540 38 q 617 83 599 69 q 636 125 636 96 q 628 176 636 146 l 613 239 l 600 293 q 238 286 376 293 l 188 200 q 150 108 150 133 q 165 78 150 89 q 211 63 179 68 q 215 -4 218 32 q 81 0 172 0 q -39 -4 -1 0 q -26 63 -39 38 q 38 104 10 74 q 114 215 65 135 q 529 939 294 521 q 592 947 553 947 q 790 197 707 549 q 814 117 803 143 q 838 80 825 90 q 872 63 850 69 m 583 361 q 519 600 546 504 q 488 749 497 681 q 408 593 457 683 q 308 408 383 543 q 294 385 301 397 q 282 361 288 374 l 583 361 m 561 1013 q 497 1039 524 1017 q 567 1134 536 1085 q 613 1217 597 1183 q 671 1221 642 1221 q 771 1203 735 1221 q 561 1013 661 1113 z "},"Ă":{"ha":960,"x_min":-39,"x_max":878,"o":"m 872 63 q 878 19 878 44 q 876 -4 878 4 q 713 0 829 0 q 540 -4 596 0 q 553 63 540 38 q 617 83 599 69 q 636 125 636 96 q 628 176 636 146 l 613 239 l 600 293 q 238 286 376 293 l 188 200 q 150 108 150 133 q 165 78 150 89 q 211 63 179 68 q 215 -4 218 32 q 81 0 172 0 q -39 -4 -1 0 q -26 63 -39 38 q 38 104 10 74 q 114 215 65 135 q 529 939 294 521 q 592 947 553 947 q 790 197 707 549 q 814 117 803 143 q 838 80 825 90 q 872 63 850 69 m 583 361 q 519 600 546 504 q 488 749 497 681 q 408 593 457 683 q 308 408 383 543 q 294 385 301 397 q 282 361 288 374 l 583 361 m 558 1011 q 410 1049 461 1011 q 360 1158 360 1086 q 364 1204 360 1179 q 438 1217 403 1221 q 477 1138 436 1167 q 589 1110 518 1110 q 709 1138 660 1110 q 772 1217 758 1167 q 790 1218 778 1218 q 831 1210 815 1218 q 742 1063 813 1114 q 558 1011 672 1011 z "},"Ắ":{"ha":960,"x_min":-39,"x_max":878,"o":"m 872 63 q 878 19 878 44 q 876 -4 878 4 q 713 0 829 0 q 540 -4 596 0 q 553 63 540 38 q 617 83 599 69 q 636 125 636 96 q 628 176 636 146 l 613 239 l 600 293 q 238 286 376 293 l 188 200 q 150 108 150 133 q 165 78 150 89 q 211 63 179 68 q 215 -4 218 32 q 81 0 172 0 q -39 -4 -1 0 q -26 63 -39 38 q 38 104 10 74 q 114 215 65 135 q 529 939 294 521 q 592 947 553 947 q 790 197 707 549 q 814 117 803 143 q 838 80 825 90 q 872 63 850 69 m 583 361 q 519 600 546 504 q 488 749 497 681 q 408 593 457 683 q 308 408 383 543 q 294 385 301 397 q 282 361 288 374 l 583 361 z "},"Ặ":{"ha":960,"x_min":-39,"x_max":878,"o":"m 872 63 q 878 19 878 44 q 876 -4 878 4 q 713 0 829 0 q 540 -4 596 0 q 553 63 540 38 q 617 83 599 69 q 636 125 636 96 q 628 176 636 146 l 613 239 l 600 293 q 238 286 376 293 l 188 200 q 150 108 150 133 q 165 78 150 89 q 211 63 179 68 q 215 -4 218 32 q 81 0 172 0 q -39 -4 -1 0 q -26 63 -39 38 q 38 104 10 74 q 114 215 65 135 q 529 939 294 521 q 592 947 553 947 q 790 197 707 549 q 814 117 803 143 q 838 80 825 90 q 872 63 850 69 m 583 361 q 519 600 546 504 q 488 749 497 681 q 408 593 457 683 q 308 408 383 543 q 294 385 301 397 q 282 361 288 374 l 583 361 m 325 -303 q 269 -284 289 -303 q 249 -232 249 -265 q 250 -215 249 -221 q 283 -149 257 -174 q 349 -124 310 -124 q 402 -142 381 -124 q 424 -196 424 -160 q 397 -272 424 -242 q 325 -303 369 -303 m 558 1011 q 410 1049 461 1011 q 360 1158 360 1086 q 364 1204 360 1179 q 438 1217 403 1221 q 477 1138 436 1167 q 589 1110 518 1110 q 709 1138 660 1110 q 772 1217 758 1167 q 790 1218 778 1218 q 831 1210 815 1218 q 742 1063 813 1114 q 558 1011 672 1011 z "},"Ằ":{"ha":960,"x_min":-39,"x_max":878,"o":"m 872 63 q 878 19 878 44 q 876 -4 878 4 q 713 0 829 0 q 540 -4 596 0 q 553 63 540 38 q 617 83 599 69 q 636 125 636 96 q 628 176 636 146 l 613 239 l 600 293 q 238 286 376 293 l 188 200 q 150 108 150 133 q 165 78 150 89 q 211 63 179 68 q 215 -4 218 32 q 81 0 172 0 q -39 -4 -1 0 q -26 63 -39 38 q 38 104 10 74 q 114 215 65 135 q 529 939 294 521 q 592 947 553 947 q 790 197 707 549 q 814 117 803 143 q 838 80 825 90 q 872 63 850 69 m 583 361 q 519 600 546 504 q 488 749 497 681 q 408 593 457 683 q 308 408 383 543 q 294 385 301 397 q 282 361 288 374 l 583 361 z "},"Ẳ":{"ha":960,"x_min":-39,"x_max":878,"o":"m 872 63 q 878 19 878 44 q 876 -4 878 4 q 713 0 829 0 q 540 -4 596 0 q 553 63 540 38 q 617 83 599 69 q 636 125 636 96 q 628 176 636 146 l 613 239 l 600 293 q 238 286 376 293 l 188 200 q 150 108 150 133 q 165 78 150 89 q 211 63 179 68 q 215 -4 218 32 q 81 0 172 0 q -39 -4 -1 0 q -26 63 -39 38 q 38 104 10 74 q 114 215 65 135 q 529 939 294 521 q 592 947 553 947 q 790 197 707 549 q 814 117 803 143 q 838 80 825 90 q 872 63 850 69 m 583 361 q 519 600 546 504 q 488 749 497 681 q 408 593 457 683 q 308 408 383 543 q 294 385 301 397 q 282 361 288 374 l 583 361 z "},"Ẵ":{"ha":960,"x_min":-39,"x_max":878,"o":"m 872 63 q 878 19 878 44 q 876 -4 878 4 q 713 0 829 0 q 540 -4 596 0 q 553 63 540 38 q 617 83 599 69 q 636 125 636 96 q 628 176 636 146 l 613 239 l 600 293 q 238 286 376 293 l 188 200 q 150 108 150 133 q 165 78 150 89 q 211 63 179 68 q 215 -4 218 32 q 81 0 172 0 q -39 -4 -1 0 q -26 63 -39 38 q 38 104 10 74 q 114 215 65 135 q 529 939 294 521 q 592 947 553 947 q 790 197 707 549 q 814 117 803 143 q 838 80 825 90 q 872 63 850 69 m 583 361 q 519 600 546 504 q 488 749 497 681 q 408 593 457 683 q 308 408 383 543 q 294 385 301 397 q 282 361 288 374 l 583 361 m 558 1011 q 410 1049 461 1011 q 360 1158 360 1086 q 364 1204 360 1179 q 438 1217 403 1221 q 477 1138 436 1167 q 589 1110 518 1110 q 709 1138 660 1110 q 772 1217 758 1167 q 790 1218 778 1218 q 831 1210 815 1218 q 742 1063 813 1114 q 558 1011 672 1011 m 703 1256 q 656 1263 676 1256 q 606 1283 635 1269 q 585 1292 601 1285 q 553 1303 568 1300 q 524 1307 538 1307 q 413 1260 475 1307 q 397 1324 393 1285 q 571 1404 479 1404 q 672 1376 617 1404 q 712 1360 696 1365 q 746 1356 728 1356 q 833 1397 786 1356 q 876 1360 867 1382 q 703 1256 797 1256 z "},"Ǎ":{"ha":960,"x_min":-39,"x_max":878,"o":"m 872 63 q 878 19 878 44 q 876 -4 878 4 q 713 0 829 0 q 540 -4 596 0 q 553 63 540 38 q 617 83 599 69 q 636 125 636 96 q 628 176 636 146 l 613 239 l 600 293 q 238 286 376 293 l 188 200 q 150 108 150 133 q 165 78 150 89 q 211 63 179 68 q 215 -4 218 32 q 81 0 172 0 q -39 -4 -1 0 q -26 63 -39 38 q 38 104 10 74 q 114 215 65 135 q 529 939 294 521 q 592 947 553 947 q 790 197 707 549 q 814 117 803 143 q 838 80 825 90 q 872 63 850 69 m 583 361 q 519 600 546 504 q 488 749 497 681 q 408 593 457 683 q 308 408 383 543 q 294 385 301 397 q 282 361 288 374 l 583 361 m 540 1017 q 368 1185 460 1115 q 410 1231 375 1225 q 593 1136 488 1185 q 782 1226 693 1171 q 826 1183 813 1215 q 599 1025 692 1100 q 554 1015 572 1015 l 540 1017 z "},"Â":{"ha":960,"x_min":-39,"x_max":878,"o":"m 872 63 q 878 19 878 44 q 876 -4 878 4 q 713 0 829 0 q 540 -4 596 0 q 553 63 540 38 q 617 83 599 69 q 636 125 636 96 q 628 176 636 146 l 613 239 l 600 293 q 238 286 376 293 l 188 200 q 150 108 150 133 q 165 78 150 89 q 211 63 179 68 q 215 -4 218 32 q 81 0 172 0 q -39 -4 -1 0 q -26 63 -39 38 q 38 104 10 74 q 114 215 65 135 q 529 939 294 521 q 592 947 553 947 q 790 197 707 549 q 814 117 803 143 q 838 80 825 90 q 872 63 850 69 m 583 361 q 519 600 546 504 q 488 749 497 681 q 408 593 457 683 q 308 408 383 543 q 294 385 301 397 q 282 361 288 374 l 583 361 m 404 1011 q 384 1040 392 1021 q 378 1074 376 1058 q 594 1222 463 1119 q 611 1224 600 1224 q 658 1214 638 1224 q 814 1051 719 1144 q 792 1029 807 1038 q 760 1018 778 1021 q 592 1104 672 1074 q 404 1011 521 1076 z "},"Ấ":{"ha":960,"x_min":-39,"x_max":989,"o":"m 872 63 q 878 19 878 44 q 876 -4 878 4 q 713 0 829 0 q 540 -4 596 0 q 553 63 540 38 q 617 83 599 69 q 636 125 636 96 q 628 176 636 146 l 613 239 l 600 293 q 238 286 376 293 l 188 200 q 150 108 150 133 q 165 78 150 89 q 211 63 179 68 q 215 -4 218 32 q 81 0 172 0 q -39 -4 -1 0 q -26 63 -39 38 q 38 104 10 74 q 114 215 65 135 q 529 939 294 521 q 592 947 553 947 q 790 197 707 549 q 814 117 803 143 q 838 80 825 90 q 872 63 850 69 m 583 361 q 519 600 546 504 q 488 749 497 681 q 408 593 457 683 q 308 408 383 543 q 294 385 301 397 q 282 361 288 374 l 583 361 m 799 1186 q 742 1210 765 1189 q 804 1294 776 1250 q 846 1369 832 1338 q 899 1374 872 1374 q 989 1357 953 1374 q 799 1186 907 1289 m 404 1011 q 385 1040 392 1021 q 378 1074 378 1058 q 596 1222 467 1121 q 611 1224 601 1224 q 658 1214 638 1224 q 814 1051 719 1144 q 792 1029 807 1038 q 761 1018 778 1021 q 592 1104 675 1072 q 404 1011 531 1081 z "},"Ậ":{"ha":960,"x_min":-39,"x_max":878,"o":"m 872 63 q 878 19 878 44 q 876 -4 878 4 q 713 0 829 0 q 540 -4 596 0 q 553 63 540 38 q 617 83 599 69 q 636 125 636 96 q 628 176 636 146 l 613 239 l 600 293 q 238 286 376 293 l 188 200 q 150 108 150 133 q 165 78 150 89 q 211 63 179 68 q 215 -4 218 32 q 81 0 172 0 q -39 -4 -1 0 q -26 63 -39 38 q 38 104 10 74 q 114 215 65 135 q 529 939 294 521 q 592 947 553 947 q 790 197 707 549 q 814 117 803 143 q 838 80 825 90 q 872 63 850 69 m 583 361 q 519 600 546 504 q 488 749 497 681 q 408 593 457 683 q 308 408 383 543 q 294 385 301 397 q 282 361 288 374 l 583 361 m 325 -303 q 269 -284 289 -303 q 249 -232 249 -265 q 250 -215 249 -221 q 283 -149 257 -174 q 349 -124 310 -124 q 402 -142 381 -124 q 424 -196 424 -160 q 397 -272 424 -242 q 325 -303 369 -303 m 404 1011 q 384 1040 392 1021 q 378 1074 376 1058 q 594 1222 463 1119 q 611 1224 600 1224 q 658 1214 638 1224 q 814 1051 719 1144 q 792 1029 807 1038 q 760 1018 778 1021 q 592 1104 672 1074 q 404 1011 521 1076 z "},"Ầ":{"ha":960,"x_min":-39,"x_max":878,"o":"m 872 63 q 878 19 878 44 q 876 -4 878 4 q 713 0 829 0 q 540 -4 596 0 q 553 63 540 38 q 617 83 599 69 q 636 125 636 96 q 628 176 636 146 l 613 239 l 600 293 q 238 286 376 293 l 188 200 q 150 108 150 133 q 165 78 150 89 q 211 63 179 68 q 215 -4 218 32 q 81 0 172 0 q -39 -4 -1 0 q -26 63 -39 38 q 38 104 10 74 q 114 215 65 135 q 529 939 294 521 q 592 947 553 947 q 790 197 707 549 q 814 117 803 143 q 838 80 825 90 q 872 63 850 69 m 583 361 q 519 600 546 504 q 488 749 497 681 q 408 593 457 683 q 308 408 383 543 q 294 385 301 397 q 282 361 288 374 l 583 361 z "},"Ẩ":{"ha":960,"x_min":-39,"x_max":957,"o":"m 872 63 q 878 19 878 44 q 876 -4 878 4 q 713 0 829 0 q 540 -4 596 0 q 553 63 540 38 q 617 83 599 69 q 636 125 636 96 q 628 176 636 146 l 613 239 l 600 293 q 238 286 376 293 l 188 200 q 150 108 150 133 q 165 78 150 89 q 211 63 179 68 q 215 -4 218 32 q 81 0 172 0 q -39 -4 -1 0 q -26 63 -39 38 q 38 104 10 74 q 114 215 65 135 q 529 939 294 521 q 592 947 553 947 q 790 197 707 549 q 814 117 803 143 q 838 80 825 90 q 872 63 850 69 m 583 361 q 519 600 546 504 q 488 749 497 681 q 408 593 457 683 q 308 408 383 543 q 294 385 301 397 q 282 361 288 374 l 583 361 z "},"Ẫ":{"ha":960,"x_min":-39,"x_max":889,"o":"m 872 63 q 878 19 878 44 q 876 -4 878 4 q 713 0 829 0 q 540 -4 596 0 q 553 63 540 38 q 617 83 599 69 q 636 125 636 96 q 628 176 636 146 l 613 239 l 600 293 q 238 286 376 293 l 188 200 q 150 108 150 133 q 165 78 150 89 q 211 63 179 68 q 215 -4 218 32 q 81 0 172 0 q -39 -4 -1 0 q -26 63 -39 38 q 38 104 10 74 q 114 215 65 135 q 529 939 294 521 q 592 947 553 947 q 790 197 707 549 q 814 117 803 143 q 838 80 825 90 q 872 63 850 69 m 583 361 q 519 600 546 504 q 488 749 497 681 q 408 593 457 683 q 308 408 383 543 q 294 385 301 397 q 282 361 288 374 l 583 361 m 404 1011 q 384 1040 392 1021 q 378 1074 376 1058 q 594 1222 463 1119 q 611 1224 600 1224 q 658 1214 638 1224 q 814 1051 719 1144 q 792 1029 807 1038 q 760 1018 778 1021 q 592 1104 672 1074 q 404 1011 521 1076 m 715 1293 q 668 1300 689 1293 q 618 1321 647 1307 q 597 1330 614 1322 q 565 1341 581 1338 q 536 1344 550 1344 q 425 1297 488 1344 q 410 1361 406 1322 q 583 1442 492 1442 q 685 1414 629 1442 q 724 1398 708 1403 q 758 1393 740 1393 q 846 1435 799 1393 q 889 1397 879 1419 q 715 1293 810 1293 z "},"Ȁ":{"ha":960,"x_min":-39,"x_max":878,"o":"m 872 63 q 878 19 878 44 q 876 -4 878 4 q 713 0 829 0 q 540 -4 596 0 q 553 63 540 38 q 617 83 599 69 q 636 125 636 96 q 628 176 636 146 l 613 239 l 600 293 q 238 286 376 293 l 188 200 q 150 108 150 133 q 165 78 150 89 q 211 63 179 68 q 215 -4 218 32 q 81 0 172 0 q -39 -4 -1 0 q -26 63 -39 38 q 38 104 10 74 q 114 215 65 135 q 529 939 294 521 q 592 947 553 947 q 790 197 707 549 q 814 117 803 143 q 838 80 825 90 q 872 63 850 69 m 583 361 q 519 600 546 504 q 488 749 497 681 q 408 593 457 683 q 308 408 383 543 q 294 385 301 397 q 282 361 288 374 l 583 361 m 472 1007 q 349 1183 408 1111 q 425 1196 379 1196 q 483 1190 460 1196 l 494 1149 q 539 1003 515 1065 q 472 1007 513 1001 m 692 1007 q 569 1185 619 1124 q 643 1197 600 1197 q 703 1190 671 1197 l 714 1149 q 758 1003 735 1065 q 692 1007 732 1001 z "},"Ä":{"ha":960,"x_min":-39,"x_max":878,"o":"m 872 63 q 878 19 878 44 q 876 -4 878 4 q 713 0 829 0 q 540 -4 596 0 q 553 63 540 38 q 617 83 599 69 q 636 125 636 96 q 628 176 636 146 l 613 239 l 600 293 q 238 286 376 293 l 188 200 q 150 108 150 133 q 165 78 150 89 q 211 63 179 68 q 215 -4 218 32 q 81 0 172 0 q -39 -4 -1 0 q -26 63 -39 38 q 38 104 10 74 q 114 215 65 135 q 529 939 294 521 q 592 947 553 947 q 790 197 707 549 q 814 117 803 143 q 838 80 825 90 q 872 63 850 69 m 583 361 q 519 600 546 504 q 488 749 497 681 q 408 593 457 683 q 308 408 383 543 q 294 385 301 397 q 282 361 288 374 l 583 361 m 443 1014 q 391 1034 410 1014 q 372 1090 372 1054 q 374 1113 372 1104 q 399 1160 378 1143 q 456 1178 421 1178 q 510 1160 490 1178 q 529 1111 529 1142 q 526 1086 529 1103 q 498 1033 519 1051 q 443 1014 476 1014 m 724 1015 q 669 1035 689 1015 q 650 1088 650 1054 q 673 1154 650 1131 q 739 1178 696 1178 q 791 1159 772 1178 q 810 1108 810 1140 q 787 1040 810 1064 q 724 1015 764 1015 z "},"Ạ":{"ha":960,"x_min":-39,"x_max":878,"o":"m 872 63 q 878 19 878 44 q 876 -4 878 4 q 713 0 829 0 q 540 -4 596 0 q 553 63 540 38 q 617 83 599 69 q 636 125 636 96 q 628 176 636 146 l 613 239 l 600 293 q 238 286 376 293 l 188 200 q 150 108 150 133 q 165 78 150 89 q 211 63 179 68 q 215 -4 218 32 q 81 0 172 0 q -39 -4 -1 0 q -26 63 -39 38 q 38 104 10 74 q 114 215 65 135 q 529 939 294 521 q 592 947 553 947 q 790 197 707 549 q 814 117 803 143 q 838 80 825 90 q 872 63 850 69 m 583 361 q 519 600 546 504 q 488 749 497 681 q 408 593 457 683 q 308 408 383 543 q 294 385 301 397 q 282 361 288 374 l 583 361 m 325 -303 q 269 -284 289 -303 q 249 -232 249 -265 q 250 -215 249 -221 q 283 -149 257 -174 q 349 -124 310 -124 q 402 -142 381 -124 q 424 -196 424 -160 q 397 -272 424 -242 q 325 -303 369 -303 z "},"À":{"ha":960,"x_min":-39,"x_max":878,"o":"m 872 63 q 878 19 878 44 q 876 -4 878 4 q 713 0 829 0 q 540 -4 596 0 q 553 63 540 38 q 617 83 599 69 q 636 125 636 96 q 628 176 636 146 l 613 239 l 600 293 q 238 286 376 293 l 188 200 q 150 108 150 133 q 165 78 150 89 q 211 63 179 68 q 215 -4 218 32 q 81 0 172 0 q -39 -4 -1 0 q -26 63 -39 38 q 38 104 10 74 q 114 215 65 135 q 529 939 294 521 q 592 947 553 947 q 790 197 707 549 q 814 117 803 143 q 838 80 825 90 q 872 63 850 69 m 583 361 q 519 600 546 504 q 488 749 497 681 q 408 593 457 683 q 308 408 383 543 q 294 385 301 397 q 282 361 288 374 l 583 361 m 633 1028 q 596 1022 614 1022 q 557 1028 579 1022 q 421 1201 511 1103 q 507 1215 463 1215 q 565 1208 533 1215 q 633 1028 593 1104 z "},"Ả":{"ha":960,"x_min":-39,"x_max":878,"o":"m 872 63 q 878 19 878 44 q 876 -4 878 4 q 713 0 829 0 q 540 -4 596 0 q 553 63 540 38 q 617 83 599 69 q 636 125 636 96 q 628 176 636 146 l 613 239 l 600 293 q 238 286 376 293 l 188 200 q 150 108 150 133 q 165 78 150 89 q 211 63 179 68 q 215 -4 218 32 q 81 0 172 0 q -39 -4 -1 0 q -26 63 -39 38 q 38 104 10 74 q 114 215 65 135 q 529 939 294 521 q 592 947 553 947 q 790 197 707 549 q 814 117 803 143 q 838 80 825 90 q 872 63 850 69 m 583 361 q 519 600 546 504 q 488 749 497 681 q 408 593 457 683 q 308 408 383 543 q 294 385 301 397 q 282 361 288 374 l 583 361 m 538 1015 q 531 1047 531 1032 q 545 1090 531 1075 q 589 1118 560 1104 q 620 1138 610 1131 q 635 1157 631 1144 q 636 1167 636 1161 q 606 1186 636 1186 q 525 1104 550 1186 q 485 1113 504 1108 q 456 1128 465 1118 q 463 1149 457 1133 q 469 1176 468 1164 q 471 1203 471 1189 q 619 1239 540 1239 q 708 1220 678 1239 q 739 1171 739 1201 q 719 1121 739 1139 q 664 1082 700 1103 q 626 1058 639 1068 q 608 1035 613 1049 q 606 1026 608 1031 q 606 1013 604 1021 q 578 1011 597 1011 q 538 1015 554 1011 z "},"Ȃ":{"ha":960,"x_min":-39,"x_max":878,"o":"m 872 63 q 878 19 878 44 q 876 -4 878 4 q 713 0 829 0 q 540 -4 596 0 q 553 63 540 38 q 617 83 599 69 q 636 125 636 96 q 628 176 636 146 l 613 239 l 600 293 q 238 286 376 293 l 188 200 q 150 108 150 133 q 165 78 150 89 q 211 63 179 68 q 215 -4 218 32 q 81 0 172 0 q -39 -4 -1 0 q -26 63 -39 38 q 38 104 10 74 q 114 215 65 135 q 529 939 294 521 q 592 947 553 947 q 790 197 707 549 q 814 117 803 143 q 838 80 825 90 q 872 63 850 69 m 583 361 q 519 600 546 504 q 488 749 497 681 q 408 593 457 683 q 308 408 383 543 q 294 385 301 397 q 282 361 288 374 l 583 361 m 629 1208 q 777 1171 726 1208 q 828 1061 828 1133 q 824 1017 828 1040 q 750 1004 785 1000 q 710 1083 751 1054 q 599 1111 669 1111 q 478 1083 528 1111 q 415 1004 429 1054 q 396 1003 408 1003 q 357 1011 371 1003 q 445 1157 375 1106 q 629 1208 515 1208 z "},"Ā":{"ha":960,"x_min":-39,"x_max":878,"o":"m 872 63 q 878 19 878 44 q 876 -4 878 4 q 713 0 829 0 q 540 -4 596 0 q 553 63 540 38 q 617 83 599 69 q 636 125 636 96 q 628 176 636 146 l 613 239 l 600 293 q 238 286 376 293 l 188 200 q 150 108 150 133 q 165 78 150 89 q 211 63 179 68 q 215 -4 218 32 q 81 0 172 0 q -39 -4 -1 0 q -26 63 -39 38 q 38 104 10 74 q 114 215 65 135 q 529 939 294 521 q 592 947 553 947 q 790 197 707 549 q 814 117 803 143 q 838 80 825 90 q 872 63 850 69 m 583 361 q 519 600 546 504 q 488 749 497 681 q 408 593 457 683 q 308 408 383 543 q 294 385 301 397 q 282 361 288 374 l 583 361 m 342 1060 q 344 1095 342 1075 q 354 1128 347 1115 l 842 1128 q 829 1065 842 1099 q 342 1060 531 1065 z "},"Ą":{"ha":960,"x_min":-39,"x_max":878,"o":"m 792 0 q 678 -77 715 -37 q 642 -156 642 -117 q 662 -201 642 -183 q 717 -219 682 -219 q 774 -208 746 -219 q 782 -249 782 -228 q 781 -269 782 -262 q 663 -343 714 -300 q 636 -346 654 -346 q 544 -315 583 -346 q 504 -224 504 -283 q 545 -106 504 -161 q 678 0 586 -51 q 540 -4 606 0 q 553 63 540 38 q 617 83 599 69 q 636 125 636 96 q 628 176 636 146 l 613 239 l 600 293 q 238 286 376 293 l 188 200 q 150 108 150 133 q 165 78 150 89 q 211 63 179 68 q 215 -4 218 32 q 81 0 172 0 q -39 -4 -1 0 q -26 63 -39 38 q 38 104 10 74 q 114 215 65 135 q 529 939 294 521 q 592 947 553 947 q 790 197 707 549 q 814 117 803 143 q 838 80 825 90 q 872 63 850 69 q 878 19 878 44 q 876 -4 878 4 q 821 -1 843 -1 l 792 0 m 583 361 q 519 600 546 504 q 488 749 497 681 q 408 593 457 683 q 308 408 383 543 q 294 385 301 397 q 282 361 288 374 l 583 361 z "},"Å":{"ha":960,"x_min":-39,"x_max":878,"o":"m 872 63 q 878 19 878 44 q 876 -4 878 4 q 713 0 829 0 q 540 -4 596 0 q 553 63 540 38 q 617 83 599 69 q 636 125 636 96 q 628 176 636 146 l 613 239 l 600 293 q 238 286 376 293 l 188 200 q 150 108 150 133 q 165 78 150 89 q 211 63 179 68 q 215 -4 218 32 q 81 0 172 0 q -39 -4 -1 0 q -26 63 -39 38 q 38 104 10 74 q 114 215 65 135 q 529 939 294 521 q 592 947 553 947 q 790 197 707 549 q 814 117 803 143 q 838 80 825 90 q 872 63 850 69 m 583 361 q 519 600 546 504 q 488 749 497 681 q 408 593 457 683 q 308 408 383 543 q 294 385 301 397 q 282 361 288 374 l 583 361 m 586 1001 q 482 1029 518 1001 q 446 1101 446 1057 q 488 1188 446 1157 q 603 1218 529 1218 q 708 1190 675 1218 q 742 1118 742 1163 q 740 1099 742 1106 q 692 1026 732 1051 q 586 1001 653 1001 m 590 1053 q 631 1065 614 1053 q 653 1101 647 1078 q 654 1117 654 1106 q 640 1153 654 1138 q 599 1169 625 1169 q 549 1150 568 1169 q 531 1101 531 1131 q 547 1066 531 1079 q 590 1053 563 1053 z "},"Ǻ":{"ha":960,"x_min":-39,"x_max":878,"o":"m 872 63 q 878 19 878 44 q 876 -4 878 4 q 713 0 829 0 q 540 -4 596 0 q 553 63 540 38 q 617 83 599 69 q 636 125 636 96 q 628 176 636 146 l 613 239 l 600 293 q 238 286 376 293 l 188 200 q 150 108 150 133 q 165 78 150 89 q 211 63 179 68 q 215 -4 218 32 q 81 0 172 0 q -39 -4 -1 0 q -26 63 -39 38 q 38 104 10 74 q 114 215 65 135 q 529 939 294 521 q 592 947 553 947 q 790 197 707 549 q 814 117 803 143 q 838 80 825 90 q 872 63 850 69 m 583 361 q 519 600 546 504 q 488 749 497 681 q 408 593 457 683 q 308 408 383 543 q 294 385 301 397 q 282 361 288 374 l 583 361 m 586 1001 q 482 1029 518 1001 q 446 1101 446 1057 q 488 1188 446 1157 q 603 1218 529 1218 q 708 1190 675 1218 q 742 1118 742 1163 q 740 1099 742 1106 q 692 1026 732 1051 q 586 1001 653 1001 m 590 1053 q 631 1065 614 1053 q 653 1101 647 1078 q 654 1117 654 1106 q 640 1153 654 1138 q 599 1169 625 1169 q 549 1150 568 1169 q 531 1101 531 1131 q 547 1066 531 1079 q 590 1053 563 1053 m 615 1292 q 551 1318 578 1296 q 621 1413 590 1364 q 667 1496 651 1463 q 725 1500 696 1500 q 825 1482 789 1500 q 615 1292 715 1392 z "},"Ã":{"ha":960,"x_min":-39,"x_max":878,"o":"m 872 63 q 878 19 878 44 q 876 -4 878 4 q 713 0 829 0 q 540 -4 596 0 q 553 63 540 38 q 617 83 599 69 q 636 125 636 96 q 628 176 636 146 l 613 239 l 600 293 q 238 286 376 293 l 188 200 q 150 108 150 133 q 165 78 150 89 q 211 63 179 68 q 215 -4 218 32 q 81 0 172 0 q -39 -4 -1 0 q -26 63 -39 38 q 38 104 10 74 q 114 215 65 135 q 529 939 294 521 q 592 947 553 947 q 790 197 707 549 q 814 117 803 143 q 838 80 825 90 q 872 63 850 69 m 583 361 q 519 600 546 504 q 488 749 497 681 q 408 593 457 683 q 308 408 383 543 q 294 385 301 397 q 282 361 288 374 l 583 361 m 663 1036 q 615 1043 636 1036 q 565 1064 594 1050 q 544 1073 561 1065 q 513 1084 528 1081 q 483 1088 497 1088 q 372 1040 435 1088 q 357 1104 353 1065 q 531 1185 439 1185 q 632 1157 576 1185 q 672 1141 656 1146 q 706 1136 688 1136 q 793 1178 746 1136 q 836 1140 826 1163 q 663 1036 757 1036 z "},"Æ":{"ha":1201,"x_min":-39,"x_max":1206,"o":"m 826 869 l 760 476 l 811 476 q 931 500 894 476 q 976 589 967 524 q 1022 594 1010 594 q 1053 592 1031 594 q 1024 435 1036 519 q 1007 275 1011 340 q 935 293 958 279 q 912 385 939 360 q 804 411 885 411 l 749 411 l 714 207 q 706 136 706 149 q 728 84 706 99 q 813 69 751 69 l 819 69 q 943 89 897 69 q 1017 144 989 108 q 1076 249 1044 181 q 1150 215 1121 242 q 1076 -4 1100 114 q 793 0 994 0 q 433 -4 539 0 q 446 64 433 33 q 509 81 489 69 q 540 121 529 93 q 561 210 551 149 l 596 411 q 374 406 463 411 l 208 178 q 179 132 189 150 q 169 100 169 114 q 211 63 169 72 q 215 -4 218 32 q 81 0 172 0 q -39 -4 -1 0 q -26 63 -39 38 q 45 101 14 75 q 132 197 76 126 q 538 742 326 450 q 571 819 571 788 q 492 876 571 868 q 488 911 488 893 q 490 943 488 924 q 731 939 604 939 l 732 939 l 836 939 l 838 939 q 1206 943 1072 939 q 1193 763 1193 846 q 1194 713 1193 728 q 1115 701 1158 700 q 1100 801 1113 768 q 1047 852 1088 835 q 922 869 1007 869 l 826 869 m 608 476 l 647 700 q 681 851 658 768 q 425 476 610 733 l 608 476 z "},"Ǽ":{"ha":1201,"x_min":-39,"x_max":1206,"o":"m 826 869 l 760 476 l 811 476 q 931 500 894 476 q 976 589 967 524 q 1022 594 1010 594 q 1053 592 1031 594 q 1024 435 1036 519 q 1007 275 1011 340 q 935 293 958 279 q 912 385 939 360 q 804 411 885 411 l 749 411 l 714 207 q 706 136 706 149 q 728 84 706 99 q 813 69 751 69 l 819 69 q 943 89 897 69 q 1017 144 989 108 q 1076 249 1044 181 q 1150 215 1121 242 q 1076 -4 1100 114 q 793 0 994 0 q 433 -4 539 0 q 446 64 433 33 q 509 81 489 69 q 540 121 529 93 q 561 210 551 149 l 596 411 q 374 406 463 411 l 208 178 q 179 132 189 150 q 169 100 169 114 q 211 63 169 72 q 215 -4 218 32 q 81 0 172 0 q -39 -4 -1 0 q -26 63 -39 38 q 45 101 14 75 q 132 197 76 126 q 538 742 326 450 q 571 819 571 788 q 492 876 571 868 q 488 911 488 893 q 490 943 488 924 q 731 939 604 939 l 732 939 l 836 939 l 838 939 q 1206 943 1072 939 q 1193 763 1193 846 q 1194 713 1193 728 q 1115 701 1158 700 q 1100 801 1113 768 q 1047 852 1088 835 q 922 869 1007 869 l 826 869 m 608 476 l 647 700 q 681 851 658 768 q 425 476 610 733 l 608 476 m 822 1013 q 758 1039 785 1017 q 828 1134 797 1085 q 874 1217 858 1183 q 932 1221 903 1221 q 1032 1203 996 1221 q 822 1013 922 1113 z "},"B":{"ha":858,"x_min":32,"x_max":824,"o":"m 818 710 q 738 577 803 632 q 578 508 674 522 q 751 452 693 501 q 810 310 810 403 q 803 239 810 271 q 681 64 781 128 q 418 0 582 0 q 32 -4 143 0 q 44 63 33 35 q 109 81 89 69 q 140 121 129 93 q 161 210 151 149 l 256 758 q 261 807 261 797 q 242 856 261 842 q 176 876 224 871 q 172 914 172 896 q 174 943 172 933 q 326 939 235 939 l 432 940 q 542 943 504 943 q 753 900 683 943 q 824 765 824 857 q 818 710 824 736 m 653 700 q 657 744 657 725 q 614 843 657 810 q 494 876 571 876 q 428 867 472 876 l 368 525 l 410 525 q 574 572 513 525 q 653 700 636 618 m 628 236 q 635 303 635 268 q 575 421 635 388 q 392 454 515 454 l 357 454 l 311 192 q 304 128 304 147 q 326 78 304 92 q 407 65 347 65 q 552 113 490 65 q 628 236 614 160 z "},"C":{"ha":878,"x_min":76,"x_max":924,"o":"m 924 871 q 878 660 894 793 q 831 651 850 651 q 794 657 811 651 q 799 725 799 694 q 758 851 799 817 q 636 886 718 886 q 446 830 528 886 q 314 678 364 774 q 250 464 264 582 q 246 394 246 429 q 314 167 246 254 q 518 79 382 79 q 785 156 656 79 q 808 96 806 135 q 474 -12 653 -12 q 258 38 347 -12 q 122 178 168 89 q 76 382 76 267 q 82 463 76 425 q 187 735 104 625 q 386 899 269 846 q 628 951 503 951 q 784 932 714 951 q 924 871 854 913 z "},"Ć":{"ha":878,"x_min":76,"x_max":924,"o":"m 924 871 q 878 660 894 793 q 831 651 850 651 q 794 657 811 651 q 799 725 799 694 q 758 851 799 817 q 636 886 718 886 q 446 830 528 886 q 314 678 364 774 q 250 464 264 582 q 246 394 246 429 q 314 167 246 254 q 518 79 382 79 q 785 156 656 79 q 808 96 806 135 q 474 -12 653 -12 q 258 38 347 -12 q 122 178 168 89 q 76 382 76 267 q 82 463 76 425 q 187 735 104 625 q 386 899 269 846 q 628 951 503 951 q 784 932 714 951 q 924 871 854 913 m 635 1013 q 571 1039 597 1017 q 640 1134 610 1085 q 686 1217 671 1183 q 744 1221 715 1221 q 844 1203 808 1221 q 635 1013 735 1113 z "},"Č":{"ha":878,"x_min":76,"x_max":924,"o":"m 924 871 q 878 660 894 793 q 831 651 850 651 q 794 657 811 651 q 799 725 799 694 q 758 851 799 817 q 636 886 718 886 q 446 830 528 886 q 314 678 364 774 q 250 464 264 582 q 246 394 246 429 q 314 167 246 254 q 518 79 382 79 q 785 156 656 79 q 808 96 806 135 q 474 -12 653 -12 q 258 38 347 -12 q 122 178 168 89 q 76 382 76 267 q 82 463 76 425 q 187 735 104 625 q 386 899 269 846 q 628 951 503 951 q 784 932 714 951 q 924 871 854 913 m 613 1017 q 440 1185 532 1115 q 482 1231 447 1225 q 665 1136 560 1185 q 854 1226 765 1171 q 899 1183 885 1215 q 671 1025 764 1100 q 626 1015 644 1015 l 613 1017 z "},"Ç":{"ha":878,"x_min":76,"x_max":924,"o":"m 628 951 q 784 932 714 951 q 924 871 854 913 q 878 660 894 793 q 831 651 850 651 q 794 657 811 651 q 799 725 799 694 q 758 851 799 817 q 636 886 718 886 q 446 830 528 886 q 314 678 364 774 q 250 464 264 582 q 246 394 246 429 q 314 167 246 254 q 518 79 382 79 q 785 156 656 79 q 808 96 806 135 q 499 -12 664 -4 l 446 -75 q 533 -176 533 -94 q 529 -217 533 -196 q 460 -308 517 -276 q 315 -336 403 -339 q 313 -310 313 -328 q 314 -287 313 -294 q 406 -267 372 -287 q 439 -204 439 -246 q 418 -158 439 -175 q 363 -142 397 -142 q 349 -104 349 -125 q 350 -87 349 -93 l 417 -10 q 165 114 254 7 q 76 382 76 221 q 82 463 76 425 q 187 735 104 625 q 386 899 269 846 q 628 951 503 951 z "},"Ḉ":{"ha":878,"x_min":76,"x_max":924,"o":"m 844 1203 q 635 1013 735 1113 q 569 1039 599 1017 q 639 1132 608 1083 q 686 1217 669 1181 q 744 1221 715 1221 q 844 1203 807 1221 m 628 951 q 784 932 714 951 q 924 871 854 913 q 878 660 894 793 q 831 651 850 651 q 794 657 811 651 q 799 725 799 694 q 758 851 799 817 q 636 886 718 886 q 446 830 528 886 q 314 678 364 774 q 250 464 264 582 q 246 394 246 429 q 314 167 246 254 q 518 79 382 79 q 785 156 656 79 q 808 96 806 135 q 499 -12 664 -4 l 446 -75 q 533 -176 533 -94 q 529 -217 533 -196 q 460 -308 517 -276 q 315 -336 403 -339 q 313 -310 313 -328 q 314 -287 313 -294 q 406 -267 372 -287 q 439 -204 439 -246 q 418 -158 439 -175 q 363 -142 397 -142 q 349 -104 349 -125 q 350 -87 349 -93 l 417 -10 q 165 114 254 7 q 76 382 76 221 q 82 463 76 425 q 187 735 104 625 q 386 899 269 846 q 628 951 503 951 z "},"Ĉ":{"ha":878,"x_min":76,"x_max":924,"o":"m 924 871 q 878 660 894 793 q 831 651 850 651 q 794 657 811 651 q 799 725 799 694 q 758 851 799 817 q 636 886 718 886 q 446 830 528 886 q 314 678 364 774 q 250 464 264 582 q 246 394 246 429 q 314 167 246 254 q 518 79 382 79 q 785 156 656 79 q 808 96 806 135 q 474 -12 653 -12 q 258 38 347 -12 q 122 178 168 89 q 76 382 76 267 q 82 463 76 425 q 187 735 104 625 q 386 899 269 846 q 628 951 503 951 q 784 932 714 951 q 924 871 854 913 m 476 1011 q 456 1040 464 1021 q 450 1074 449 1058 q 667 1222 535 1119 q 683 1224 672 1224 q 731 1214 710 1224 q 886 1051 792 1144 q 865 1029 879 1038 q 832 1018 850 1021 q 664 1104 744 1074 q 476 1011 593 1076 z "},"Ċ":{"ha":878,"x_min":76,"x_max":924,"o":"m 924 871 q 878 660 894 793 q 831 651 850 651 q 794 657 811 651 q 799 725 799 694 q 758 851 799 817 q 636 886 718 886 q 446 830 528 886 q 314 678 364 774 q 250 464 264 582 q 246 394 246 429 q 314 167 246 254 q 518 79 382 79 q 785 156 656 79 q 808 96 806 135 q 474 -12 653 -12 q 258 38 347 -12 q 122 178 168 89 q 76 382 76 267 q 82 463 76 425 q 187 735 104 625 q 386 899 269 846 q 628 951 503 951 q 784 932 714 951 q 924 871 854 913 m 649 1000 q 594 1019 614 1000 q 575 1069 575 1038 q 603 1141 575 1114 q 676 1168 632 1168 q 730 1149 710 1168 q 750 1099 750 1131 q 722 1027 750 1054 q 649 1000 694 1000 z "},"D":{"ha":1019,"x_min":32,"x_max":1007,"o":"m 551 943 q 878 863 749 943 q 1007 582 1007 783 q 993 450 1007 531 q 789 110 950 219 q 394 0 628 0 l 390 0 q 32 -4 135 0 q 44 63 35 36 q 108 81 88 69 q 141 122 129 93 q 163 210 153 150 l 257 758 q 261 806 261 786 q 242 857 261 843 q 176 876 224 871 q 172 917 172 896 q 174 943 172 935 q 378 939 264 939 q 465 942 407 939 l 551 943 m 829 447 q 843 579 843 517 q 755 808 843 739 q 522 876 667 876 q 426 864 472 876 l 313 196 q 306 133 306 154 q 328 82 306 94 q 410 69 350 69 q 681 158 571 69 q 829 447 790 247 z "},"Ǳ":{"ha":1776,"x_min":32,"x_max":1826,"o":"m 551 943 q 878 863 749 943 q 1007 582 1007 783 q 993 450 1007 531 q 789 110 950 219 q 394 0 628 0 l 390 0 q 32 -4 135 0 q 44 63 35 36 q 108 81 88 69 q 141 122 129 93 q 163 210 153 150 l 257 758 q 261 806 261 786 q 242 857 261 843 q 176 876 224 871 q 172 917 172 896 q 174 943 172 935 q 378 939 264 939 q 465 942 407 939 l 551 943 m 829 447 q 843 579 843 517 q 755 808 843 739 q 522 876 667 876 q 426 864 472 876 l 313 196 q 306 133 306 154 q 328 82 306 94 q 410 69 350 69 q 681 158 571 69 q 829 447 790 247 m 1382 69 q 1514 83 1468 69 q 1590 133 1560 96 q 1654 250 1621 171 q 1736 213 1703 240 q 1699 108 1717 167 q 1672 -4 1682 49 q 1315 0 1543 0 q 1007 -4 1113 0 q 992 61 990 25 q 1617 871 1322 463 l 1451 871 q 1351 856 1390 871 q 1283 803 1313 842 q 1222 688 1253 764 q 1139 717 1169 692 q 1176 823 1158 760 q 1201 943 1193 886 q 1524 939 1308 939 q 1807 943 1701 939 q 1826 878 1826 919 q 1206 69 1507 439 l 1382 69 z "},"Ǆ":{"ha":1776,"x_min":32,"x_max":1826,"o":"m 551 943 q 878 863 749 943 q 1007 582 1007 783 q 993 450 1007 531 q 789 110 950 219 q 394 0 628 0 l 390 0 q 32 -4 135 0 q 44 63 35 36 q 108 81 88 69 q 141 122 129 93 q 163 210 153 150 l 257 758 q 261 806 261 786 q 242 857 261 843 q 176 876 224 871 q 172 917 172 896 q 174 943 172 935 q 378 939 264 939 q 465 942 407 939 l 551 943 m 829 447 q 843 579 843 517 q 755 808 843 739 q 522 876 667 876 q 426 864 472 876 l 313 196 q 306 133 306 154 q 328 82 306 94 q 410 69 350 69 q 681 158 571 69 q 829 447 790 247 m 1382 69 q 1514 83 1468 69 q 1590 133 1560 96 q 1654 250 1621 171 q 1736 213 1703 240 q 1699 108 1717 167 q 1672 -4 1682 49 q 1315 0 1543 0 q 1007 -4 1113 0 q 992 61 990 25 q 1617 871 1322 463 l 1451 871 q 1351 856 1390 871 q 1283 803 1313 842 q 1222 688 1253 764 q 1139 717 1169 692 q 1176 823 1158 760 q 1201 943 1193 886 q 1524 939 1308 939 q 1807 943 1701 939 q 1826 878 1826 919 q 1206 69 1507 439 l 1382 69 m 1476 1017 q 1304 1185 1396 1115 q 1346 1231 1311 1225 q 1529 1136 1424 1185 q 1718 1226 1629 1171 q 1763 1183 1749 1215 q 1535 1025 1628 1100 q 1490 1015 1508 1015 l 1476 1017 z "},"Ð":{"ha":1021,"x_min":32,"x_max":1007,"o":"m 551 943 q 878 863 749 943 q 1007 582 1007 783 q 993 450 1007 531 q 789 110 950 219 q 394 0 628 0 l 390 0 q 32 -4 135 0 q 44 63 35 36 q 108 82 88 69 q 141 123 129 94 q 163 210 153 151 l 201 438 q 99 435 176 438 q 103 479 99 454 q 113 515 107 504 l 214 515 l 257 758 q 263 807 263 797 q 244 856 263 842 q 176 876 225 871 q 172 917 172 896 q 174 943 172 935 q 378 939 264 939 q 465 942 407 939 l 551 943 m 829 447 q 843 579 843 517 q 755 808 843 739 q 522 876 667 876 q 426 864 472 876 l 367 515 l 550 515 q 538 438 550 464 q 354 439 471 439 l 313 196 q 306 133 306 154 q 328 82 306 94 q 410 69 350 69 q 681 158 571 69 q 829 447 790 247 z "},"Ď":{"ha":1021,"x_min":32,"x_max":1007,"o":"m 551 943 q 878 863 749 943 q 1007 582 1007 783 q 993 450 1007 531 q 789 110 950 219 q 394 0 628 0 l 390 0 q 32 -4 135 0 q 44 63 35 36 q 108 81 88 69 q 141 122 129 93 q 163 210 153 150 l 257 758 q 261 806 261 786 q 242 857 261 843 q 176 876 224 871 q 172 917 172 896 q 174 943 172 935 q 378 939 264 939 q 465 942 407 939 l 551 943 m 829 447 q 843 579 843 517 q 755 808 843 739 q 522 876 667 876 q 426 864 472 876 l 313 196 q 306 133 306 154 q 328 82 306 94 q 410 69 350 69 q 681 158 571 69 q 829 447 790 247 m 549 1017 q 376 1185 468 1115 q 418 1231 383 1225 q 601 1136 496 1185 q 790 1226 701 1171 q 835 1183 821 1215 q 607 1025 700 1100 q 563 1015 581 1015 l 549 1017 z "},"Ḑ":{"ha":1021,"x_min":32,"x_max":1007,"o":"m 551 943 q 878 863 749 943 q 1007 582 1007 783 q 993 450 1007 531 q 789 110 950 219 q 394 0 628 0 l 390 0 q 32 -4 135 0 q 44 63 35 36 q 108 81 88 69 q 141 122 129 93 q 163 210 153 150 l 257 758 q 261 806 261 786 q 242 857 261 843 q 176 876 224 871 q 172 917 172 896 q 174 943 172 935 q 378 939 264 939 q 465 942 407 939 l 551 943 m 829 447 q 843 579 843 517 q 755 808 843 739 q 522 876 667 876 q 426 864 472 876 l 313 196 q 306 133 306 154 q 328 82 306 94 q 410 69 350 69 q 681 158 571 69 q 829 447 790 247 m 319 -396 q 281 -361 289 -385 q 342 -294 319 -328 q 365 -235 365 -260 q 315 -192 365 -199 q 342 -100 313 -139 q 471 -58 417 -89 q 510 -126 510 -72 q 507 -156 510 -136 q 444 -287 494 -226 q 319 -396 393 -347 z "},"Đ":{"ha":1021,"x_min":32,"x_max":1007,"o":"m 551 943 q 878 863 749 943 q 1007 582 1007 783 q 993 450 1007 531 q 789 110 950 219 q 394 0 628 0 l 390 0 q 32 -4 135 0 q 44 63 35 36 q 108 82 88 69 q 141 123 129 94 q 163 210 153 151 l 201 438 q 99 435 176 438 q 103 479 99 454 q 113 515 107 504 l 214 515 l 257 758 q 263 807 263 797 q 244 856 263 842 q 176 876 225 871 q 172 917 172 896 q 174 943 172 935 q 378 939 264 939 q 465 942 407 939 l 551 943 m 829 447 q 843 579 843 517 q 755 808 843 739 q 522 876 667 876 q 426 864 472 876 l 367 515 l 550 515 q 538 438 550 464 q 354 439 471 439 l 313 196 q 306 133 306 154 q 328 82 306 94 q 410 69 350 69 q 681 158 571 69 q 829 447 790 247 z "},"Ḍ":{"ha":1021,"x_min":32,"x_max":1007,"o":"m 551 943 q 878 863 749 943 q 1007 582 1007 783 q 993 450 1007 531 q 789 110 950 219 q 394 0 628 0 l 390 0 q 32 -4 135 0 q 44 63 35 36 q 108 81 88 69 q 141 122 129 93 q 163 210 153 150 l 257 758 q 261 806 261 786 q 242 857 261 843 q 176 876 224 871 q 172 917 172 896 q 174 943 172 935 q 378 939 264 939 q 465 942 407 939 l 551 943 m 829 447 q 843 579 843 517 q 755 808 843 739 q 522 876 667 876 q 426 864 472 876 l 313 196 q 306 133 306 154 q 328 82 306 94 q 410 69 350 69 q 681 158 571 69 q 829 447 790 247 m 394 -303 q 338 -284 358 -303 q 318 -232 318 -265 q 319 -215 318 -221 q 353 -149 326 -174 q 418 -124 379 -124 q 472 -142 450 -124 q 493 -196 493 -160 q 466 -272 493 -242 q 394 -303 439 -303 z "},"Ḏ":{"ha":1021,"x_min":32,"x_max":1007,"o":"m 551 943 q 878 863 749 943 q 1007 582 1007 783 q 993 450 1007 531 q 789 110 950 219 q 394 0 628 0 l 390 0 q 32 -4 135 0 q 44 63 35 36 q 108 81 88 69 q 141 122 129 93 q 163 210 153 150 l 257 758 q 261 806 261 786 q 242 857 261 843 q 176 876 224 871 q 172 917 172 896 q 174 943 172 935 q 378 939 264 939 q 465 942 407 939 l 551 943 m 829 447 q 843 579 843 517 q 755 808 843 739 q 522 876 667 876 q 426 864 472 876 l 313 196 q 306 133 306 154 q 328 82 306 94 q 410 69 350 69 q 681 158 571 69 q 829 447 790 247 m 157 -244 q 160 -209 157 -229 q 169 -176 163 -189 l 657 -176 q 644 -239 657 -208 q 157 -244 346 -239 z "},"ǲ":{"ha":1586,"x_min":32,"x_max":1569,"o":"m 551 943 q 878 863 749 943 q 1007 582 1007 783 q 993 450 1007 531 q 789 110 950 219 q 394 0 628 0 l 390 0 q 32 -4 135 0 q 44 63 35 36 q 108 81 88 69 q 141 122 129 93 q 163 210 153 150 l 257 758 q 261 806 261 786 q 242 857 261 843 q 176 876 224 871 q 172 917 172 896 q 174 943 172 935 q 378 939 264 939 q 465 942 407 939 l 551 943 m 829 447 q 843 579 843 517 q 755 808 843 739 q 522 876 667 876 q 426 864 472 876 l 313 196 q 306 133 306 154 q 328 82 306 94 q 410 69 350 69 q 681 158 571 69 q 829 447 790 247 m 1458 201 q 1497 198 1478 203 q 1529 183 1515 193 q 1489 17 1499 107 q 1453 -6 1479 1 q 1369 -12 1426 -12 q 1238 -6 1335 -12 q 1136 0 1168 0 q 1028 -12 1078 0 q 1011 53 1008 15 q 1261 291 1151 174 q 1438 507 1371 408 q 1328 514 1397 514 q 1249 507 1278 514 q 1202 483 1221 500 q 1161 429 1183 465 q 1096 456 1122 429 q 1158 636 1143 542 q 1354 642 1235 642 q 1549 636 1475 642 q 1563 608 1557 624 q 1569 578 1569 592 q 1403 346 1503 467 q 1192 121 1304 225 q 1264 131 1222 131 l 1308 129 q 1354 126 1339 126 q 1417 141 1397 126 q 1458 201 1436 156 z "},"ǅ":{"ha":1586,"x_min":32,"x_max":1649,"o":"m 551 943 q 878 863 749 943 q 1007 582 1007 783 q 993 450 1007 531 q 789 110 950 219 q 394 0 628 0 l 390 0 q 32 -4 135 0 q 44 63 35 36 q 108 81 88 69 q 141 122 129 93 q 163 210 153 150 l 257 758 q 261 806 261 786 q 242 857 261 843 q 176 876 224 871 q 172 917 172 896 q 174 943 172 935 q 378 939 264 939 q 465 942 407 939 l 551 943 m 829 447 q 843 579 843 517 q 755 808 843 739 q 522 876 667 876 q 426 864 472 876 l 313 196 q 306 133 306 154 q 328 82 306 94 q 410 69 350 69 q 681 158 571 69 q 829 447 790 247 m 1458 201 q 1497 198 1478 203 q 1529 183 1515 193 q 1489 17 1499 107 q 1453 -6 1479 1 q 1369 -12 1426 -12 q 1238 -6 1335 -12 q 1136 0 1168 0 q 1028 -12 1078 0 q 1011 53 1008 15 q 1261 291 1151 174 q 1438 507 1371 408 q 1328 514 1397 514 q 1249 507 1278 514 q 1202 483 1221 500 q 1161 429 1183 465 q 1096 456 1122 429 q 1158 636 1143 542 q 1354 642 1235 642 q 1549 636 1475 642 q 1563 608 1557 624 q 1569 578 1569 592 q 1403 346 1503 467 q 1192 121 1304 225 q 1264 131 1222 131 l 1308 129 q 1354 126 1339 126 q 1417 141 1397 126 q 1458 201 1436 156 m 1354 718 q 1190 932 1275 844 q 1235 978 1201 968 q 1413 853 1331 901 q 1606 967 1529 907 q 1649 928 1636 958 q 1413 725 1513 826 q 1371 717 1392 717 q 1354 718 1360 717 z "},"E":{"ha":822,"x_min":36,"x_max":825,"o":"m 428 869 l 367 510 l 435 510 q 554 532 518 510 q 600 619 590 554 q 646 625 633 625 q 676 622 654 625 q 646 464 654 531 q 631 306 635 382 q 558 324 582 310 q 535 415 563 390 q 428 440 508 440 l 356 440 l 315 207 q 307 139 307 165 q 330 83 307 97 q 414 69 353 69 l 439 69 q 563 89 517 69 q 636 144 608 108 q 696 249 664 181 q 769 215 740 242 q 697 -4 719 111 q 396 0 614 0 q 36 -4 142 0 q 49 64 36 29 q 110 82 90 69 q 142 122 131 94 q 163 210 153 150 l 256 742 q 263 800 263 779 q 243 853 263 836 q 175 876 224 869 q 171 913 171 893 q 174 943 171 921 q 439 939 278 939 l 440 939 q 825 943 693 939 q 813 772 813 850 q 815 713 813 749 q 735 701 776 700 q 719 801 732 768 q 667 852 707 835 q 542 869 626 869 l 428 869 z "},"É":{"ha":822,"x_min":36,"x_max":825,"o":"m 428 869 l 367 510 l 435 510 q 554 532 518 510 q 600 619 590 554 q 646 625 633 625 q 676 622 654 625 q 646 464 654 531 q 631 306 635 382 q 558 324 582 310 q 535 415 563 390 q 428 440 508 440 l 356 440 l 315 207 q 307 139 307 165 q 330 83 307 97 q 414 69 353 69 l 439 69 q 563 89 517 69 q 636 144 608 108 q 696 249 664 181 q 769 215 740 242 q 697 -4 719 111 q 396 0 614 0 q 36 -4 142 0 q 49 64 36 29 q 110 82 90 69 q 142 122 131 94 q 163 210 153 150 l 256 742 q 263 800 263 779 q 243 853 263 836 q 175 876 224 869 q 171 913 171 893 q 174 943 171 921 q 439 939 278 939 l 440 939 q 825 943 693 939 q 813 772 813 850 q 815 713 813 749 q 735 701 776 700 q 719 801 732 768 q 667 852 707 835 q 542 869 626 869 l 428 869 m 513 1013 q 449 1039 475 1017 q 518 1134 488 1085 q 564 1217 549 1183 q 622 1221 593 1221 q 722 1203 686 1221 q 513 1013 613 1113 z "},"Ĕ":{"ha":822,"x_min":36,"x_max":825,"o":"m 428 869 l 367 510 l 435 510 q 554 532 518 510 q 600 619 590 554 q 646 625 633 625 q 676 622 654 625 q 646 464 654 531 q 631 306 635 382 q 558 324 582 310 q 535 415 563 390 q 428 440 508 440 l 356 440 l 315 207 q 307 139 307 165 q 330 83 307 97 q 414 69 353 69 l 439 69 q 563 89 517 69 q 636 144 608 108 q 696 249 664 181 q 769 215 740 242 q 697 -4 719 111 q 396 0 614 0 q 36 -4 142 0 q 49 64 36 29 q 110 82 90 69 q 142 122 131 94 q 163 210 153 150 l 256 742 q 263 800 263 779 q 243 853 263 836 q 175 876 224 869 q 171 913 171 893 q 174 943 171 921 q 439 939 278 939 l 440 939 q 825 943 693 939 q 813 772 813 850 q 815 713 813 749 q 735 701 776 700 q 719 801 732 768 q 667 852 707 835 q 542 869 626 869 l 428 869 m 510 1011 q 362 1049 413 1011 q 311 1158 311 1086 q 315 1204 311 1179 q 389 1217 354 1221 q 428 1138 388 1167 q 540 1110 469 1110 q 660 1138 611 1110 q 724 1217 710 1167 q 742 1218 729 1218 q 782 1210 767 1218 q 694 1063 764 1114 q 510 1011 624 1011 z "},"Ě":{"ha":822,"x_min":36,"x_max":825,"o":"m 428 869 l 367 510 l 435 510 q 554 532 518 510 q 600 619 590 554 q 646 625 633 625 q 676 622 654 625 q 646 464 654 531 q 631 306 635 382 q 558 324 582 310 q 535 415 563 390 q 428 440 508 440 l 356 440 l 315 207 q 307 139 307 165 q 330 83 307 97 q 414 69 353 69 l 439 69 q 563 89 517 69 q 636 144 608 108 q 696 249 664 181 q 769 215 740 242 q 697 -4 719 111 q 396 0 614 0 q 36 -4 142 0 q 49 64 36 29 q 110 82 90 69 q 142 122 131 94 q 163 210 153 150 l 256 742 q 263 800 263 779 q 243 853 263 836 q 175 876 224 869 q 171 913 171 893 q 174 943 171 921 q 439 939 278 939 l 440 939 q 825 943 693 939 q 813 772 813 850 q 815 713 813 749 q 735 701 776 700 q 719 801 732 768 q 667 852 707 835 q 542 869 626 869 l 428 869 m 490 1017 q 318 1185 410 1115 q 360 1231 325 1225 q 543 1136 438 1185 q 732 1226 643 1171 q 776 1183 763 1215 q 549 1025 642 1100 q 504 1015 522 1015 l 490 1017 z "},"Ȩ":{"ha":822,"x_min":36,"x_max":825,"o":"m 428 869 l 367 510 l 435 510 q 554 532 518 510 q 600 619 590 554 q 646 625 633 625 q 676 622 654 625 q 646 464 654 531 q 631 306 635 382 q 558 324 582 310 q 535 415 563 390 q 428 440 508 440 l 356 440 l 315 207 q 307 139 307 165 q 330 83 307 97 q 414 69 353 69 l 439 69 q 563 89 517 69 q 636 144 608 108 q 696 249 664 181 q 769 215 740 242 q 697 -4 719 111 q 435 0 622 0 l 371 -75 q 458 -176 458 -94 q 454 -217 458 -196 q 385 -308 442 -276 q 240 -336 328 -339 q 238 -310 238 -328 q 239 -287 238 -294 q 331 -267 297 -287 q 364 -204 364 -246 q 344 -158 364 -175 q 289 -142 324 -142 q 274 -103 274 -126 q 275 -87 274 -93 l 349 0 q 36 -4 129 0 q 49 64 36 29 q 110 82 90 69 q 142 122 131 94 q 163 210 153 150 l 256 742 q 263 800 263 779 q 243 853 263 836 q 175 876 224 869 q 171 913 171 893 q 174 943 171 921 q 439 939 278 939 l 440 939 q 825 943 693 939 q 813 772 813 850 q 815 713 813 749 q 735 701 776 700 q 719 801 732 768 q 667 852 707 835 q 542 869 626 869 l 428 869 z "},"Ḝ":{"ha":822,"x_min":36,"x_max":825,"o":"m 508 1011 q 362 1049 413 1011 q 311 1158 311 1086 q 315 1204 311 1179 q 389 1217 354 1221 q 428 1138 388 1167 q 540 1110 469 1110 q 660 1138 611 1110 q 724 1217 710 1167 q 742 1218 729 1218 q 782 1210 768 1218 q 693 1063 764 1114 q 508 1011 622 1011 m 428 869 l 367 510 l 435 510 q 554 532 518 510 q 600 619 590 554 q 646 625 633 625 q 676 622 654 625 q 646 464 654 531 q 631 306 635 382 q 558 324 582 310 q 535 415 563 390 q 428 440 508 440 l 356 440 l 315 207 q 307 139 307 165 q 330 83 307 97 q 414 69 353 69 l 439 69 q 563 89 517 69 q 636 144 608 108 q 696 249 664 181 q 769 215 740 242 q 697 -4 719 111 q 435 0 622 0 l 371 -75 q 458 -176 458 -94 q 454 -217 458 -196 q 385 -308 442 -276 q 240 -336 328 -339 q 238 -310 238 -328 q 239 -287 238 -294 q 331 -267 297 -287 q 364 -204 364 -246 q 344 -158 364 -175 q 289 -142 324 -142 q 274 -103 274 -126 q 275 -87 274 -93 l 349 0 q 36 -4 129 0 q 49 64 36 29 q 110 82 90 69 q 142 122 131 94 q 163 210 153 150 l 256 742 q 263 800 263 779 q 243 853 263 836 q 175 876 224 869 q 171 913 171 893 q 174 943 171 921 q 439 939 278 939 l 440 939 q 825 943 693 939 q 813 772 813 850 q 815 713 813 749 q 735 701 776 700 q 719 801 732 768 q 667 852 707 835 q 542 869 626 869 l 428 869 z "},"Ê":{"ha":822,"x_min":36,"x_max":825,"o":"m 428 869 l 367 510 l 435 510 q 554 532 518 510 q 600 619 590 554 q 646 625 633 625 q 676 622 654 625 q 646 464 654 531 q 631 306 635 382 q 558 324 582 310 q 535 415 563 390 q 428 440 508 440 l 356 440 l 315 207 q 307 139 307 165 q 330 83 307 97 q 414 69 353 69 l 439 69 q 563 89 517 69 q 636 144 608 108 q 696 249 664 181 q 769 215 740 242 q 697 -4 719 111 q 396 0 614 0 q 36 -4 142 0 q 49 64 36 29 q 110 82 90 69 q 142 122 131 94 q 163 210 153 150 l 256 742 q 263 800 263 779 q 243 853 263 836 q 175 876 224 869 q 171 913 171 893 q 174 943 171 921 q 439 939 278 939 l 440 939 q 825 943 693 939 q 813 772 813 850 q 815 713 813 749 q 735 701 776 700 q 719 801 732 768 q 667 852 707 835 q 542 869 626 869 l 428 869 m 356 1011 q 335 1040 343 1021 q 329 1074 328 1058 q 546 1222 414 1119 q 563 1224 551 1224 q 610 1214 589 1224 q 765 1051 671 1144 q 744 1029 758 1038 q 711 1018 729 1021 q 543 1104 624 1074 q 356 1011 472 1076 z "},"Ế":{"ha":822,"x_min":36,"x_max":940,"o":"m 428 869 l 367 510 l 435 510 q 554 532 518 510 q 600 619 590 554 q 646 625 633 625 q 676 622 654 625 q 646 464 654 531 q 631 306 635 382 q 558 324 582 310 q 535 415 563 390 q 428 440 508 440 l 356 440 l 315 207 q 307 139 307 165 q 330 83 307 97 q 414 69 353 69 l 439 69 q 563 89 517 69 q 636 144 608 108 q 696 249 664 181 q 769 215 740 242 q 697 -4 719 111 q 396 0 614 0 q 36 -4 142 0 q 49 64 36 29 q 110 82 90 69 q 142 122 131 94 q 163 210 153 150 l 256 742 q 263 800 263 779 q 243 853 263 836 q 175 876 224 869 q 171 913 171 893 q 174 943 171 921 q 439 939 278 939 l 440 939 q 825 943 693 939 q 813 772 813 850 q 815 713 813 749 q 735 701 776 700 q 719 801 732 768 q 667 852 707 835 q 542 869 626 869 l 428 869 m 750 1186 q 693 1210 717 1189 q 756 1294 728 1250 q 797 1369 783 1338 q 850 1374 824 1374 q 940 1357 904 1374 q 750 1186 858 1289 m 356 1011 q 336 1040 343 1021 q 329 1074 329 1058 q 547 1222 418 1121 q 563 1224 553 1224 q 610 1214 589 1224 q 765 1051 671 1144 q 744 1029 758 1038 q 713 1018 729 1021 q 543 1104 626 1072 q 356 1011 482 1081 z "},"Ệ":{"ha":822,"x_min":36,"x_max":825,"o":"m 428 869 l 367 510 l 435 510 q 554 532 518 510 q 600 619 590 554 q 646 625 633 625 q 676 622 654 625 q 646 464 654 531 q 631 306 635 382 q 558 324 582 310 q 535 415 563 390 q 428 440 508 440 l 356 440 l 315 207 q 307 139 307 165 q 330 83 307 97 q 414 69 353 69 l 439 69 q 563 89 517 69 q 636 144 608 108 q 696 249 664 181 q 769 215 740 242 q 697 -4 719 111 q 396 0 614 0 q 36 -4 142 0 q 49 64 36 29 q 110 82 90 69 q 142 122 131 94 q 163 210 153 150 l 256 742 q 263 800 263 779 q 243 853 263 836 q 175 876 224 869 q 171 913 171 893 q 174 943 171 921 q 439 939 278 939 l 440 939 q 825 943 693 939 q 813 772 813 850 q 815 713 813 749 q 735 701 776 700 q 719 801 732 768 q 667 852 707 835 q 542 869 626 869 l 428 869 m 329 -303 q 273 -284 293 -303 q 253 -232 253 -265 q 254 -215 253 -221 q 288 -149 261 -174 q 353 -124 314 -124 q 406 -142 385 -124 q 428 -196 428 -160 q 401 -272 428 -242 q 329 -303 374 -303 m 356 1011 q 335 1040 343 1021 q 329 1074 328 1058 q 546 1222 414 1119 q 563 1224 551 1224 q 610 1214 589 1224 q 765 1051 671 1144 q 744 1029 758 1038 q 711 1018 729 1021 q 543 1104 624 1074 q 356 1011 472 1076 z "},"Ề":{"ha":822,"x_min":36,"x_max":825,"o":"m 428 869 l 367 510 l 435 510 q 554 532 518 510 q 600 619 590 554 q 646 625 633 625 q 676 622 654 625 q 646 464 654 531 q 631 306 635 382 q 558 324 582 310 q 535 415 563 390 q 428 440 508 440 l 356 440 l 315 207 q 307 139 307 165 q 330 83 307 97 q 414 69 353 69 l 439 69 q 563 89 517 69 q 636 144 608 108 q 696 249 664 181 q 769 215 740 242 q 697 -4 719 111 q 396 0 614 0 q 36 -4 142 0 q 49 64 36 29 q 110 82 90 69 q 142 122 131 94 q 163 210 153 150 l 256 742 q 263 800 263 779 q 243 853 263 836 q 175 876 224 869 q 171 913 171 893 q 174 943 171 921 q 439 939 278 939 l 440 939 q 825 943 693 939 q 813 772 813 850 q 815 713 813 749 q 735 701 776 700 q 719 801 732 768 q 667 852 707 835 q 542 869 626 869 l 428 869 z "},"Ể":{"ha":822,"x_min":36,"x_max":908,"o":"m 428 869 l 367 510 l 435 510 q 554 532 518 510 q 600 619 590 554 q 646 625 633 625 q 676 622 654 625 q 646 464 654 531 q 631 306 635 382 q 558 324 582 310 q 535 415 563 390 q 428 440 508 440 l 356 440 l 315 207 q 307 139 307 165 q 330 83 307 97 q 414 69 353 69 l 439 69 q 563 89 517 69 q 636 144 608 108 q 696 249 664 181 q 769 215 740 242 q 697 -4 719 111 q 396 0 614 0 q 36 -4 142 0 q 49 64 36 29 q 110 82 90 69 q 142 122 131 94 q 163 210 153 150 l 256 742 q 263 800 263 779 q 243 853 263 836 q 175 876 224 869 q 171 913 171 893 q 174 943 171 921 q 439 939 278 939 l 440 939 q 825 943 693 939 q 813 772 813 850 q 815 713 813 749 q 735 701 776 700 q 719 801 732 768 q 667 852 707 835 q 542 869 626 869 l 428 869 z "},"Ễ":{"ha":822,"x_min":36,"x_max":840,"o":"m 428 869 l 367 510 l 435 510 q 554 532 518 510 q 600 619 590 554 q 646 625 633 625 q 676 622 654 625 q 646 464 654 531 q 631 306 635 382 q 558 324 582 310 q 535 415 563 390 q 428 440 508 440 l 356 440 l 315 207 q 307 139 307 165 q 330 83 307 97 q 414 69 353 69 l 439 69 q 563 89 517 69 q 636 144 608 108 q 696 249 664 181 q 769 215 740 242 q 697 -4 719 111 q 396 0 614 0 q 36 -4 142 0 q 49 64 36 29 q 110 82 90 69 q 142 122 131 94 q 163 210 153 150 l 256 742 q 263 800 263 779 q 243 853 263 836 q 175 876 224 869 q 171 913 171 893 q 174 943 171 921 q 439 939 278 939 l 440 939 q 825 943 693 939 q 813 772 813 850 q 815 713 813 749 q 735 701 776 700 q 719 801 732 768 q 667 852 707 835 q 542 869 626 869 l 428 869 m 356 1011 q 335 1040 343 1021 q 329 1074 328 1058 q 546 1222 414 1119 q 563 1224 551 1224 q 610 1214 589 1224 q 765 1051 671 1144 q 744 1029 758 1038 q 711 1018 729 1021 q 543 1104 624 1074 q 356 1011 472 1076 m 667 1293 q 619 1300 640 1293 q 569 1321 599 1307 q 549 1330 565 1322 q 517 1341 532 1338 q 488 1344 501 1344 q 376 1297 439 1344 q 361 1361 357 1322 q 535 1442 443 1442 q 636 1414 581 1442 q 676 1398 660 1403 q 710 1393 692 1393 q 797 1435 750 1393 q 840 1397 831 1419 q 667 1293 761 1293 z "},"Ȅ":{"ha":822,"x_min":36,"x_max":825,"o":"m 428 869 l 367 510 l 435 510 q 554 532 518 510 q 600 619 590 554 q 646 625 633 625 q 676 622 654 625 q 646 464 654 531 q 631 306 635 382 q 558 324 582 310 q 535 415 563 390 q 428 440 508 440 l 356 440 l 315 207 q 307 139 307 165 q 330 83 307 97 q 414 69 353 69 l 439 69 q 563 89 517 69 q 636 144 608 108 q 696 249 664 181 q 769 215 740 242 q 697 -4 719 111 q 396 0 614 0 q 36 -4 142 0 q 49 64 36 29 q 110 82 90 69 q 142 122 131 94 q 163 210 153 150 l 256 742 q 263 800 263 779 q 243 853 263 836 q 175 876 224 869 q 171 913 171 893 q 174 943 171 921 q 439 939 278 939 l 440 939 q 825 943 693 939 q 813 772 813 850 q 815 713 813 749 q 735 701 776 700 q 719 801 732 768 q 667 852 707 835 q 542 869 626 869 l 428 869 m 422 1007 q 299 1183 358 1111 q 375 1196 329 1196 q 433 1190 410 1196 l 444 1149 q 489 1003 465 1065 q 422 1007 463 1001 m 642 1007 q 519 1185 569 1124 q 593 1197 550 1197 q 653 1190 621 1197 l 664 1149 q 708 1003 685 1065 q 642 1007 682 1001 z "},"Ë":{"ha":822,"x_min":36,"x_max":825,"o":"m 428 869 l 367 510 l 435 510 q 554 532 518 510 q 600 619 590 554 q 646 625 633 625 q 676 622 654 625 q 646 464 654 531 q 631 306 635 382 q 558 324 582 310 q 535 415 563 390 q 428 440 508 440 l 356 440 l 315 207 q 307 139 307 165 q 330 83 307 97 q 414 69 353 69 l 439 69 q 563 89 517 69 q 636 144 608 108 q 696 249 664 181 q 769 215 740 242 q 697 -4 719 111 q 396 0 614 0 q 36 -4 142 0 q 49 64 36 29 q 110 82 90 69 q 142 122 131 94 q 163 210 153 150 l 256 742 q 263 800 263 779 q 243 853 263 836 q 175 876 224 869 q 171 913 171 893 q 174 943 171 921 q 439 939 278 939 l 440 939 q 825 943 693 939 q 813 772 813 850 q 815 713 813 749 q 735 701 776 700 q 719 801 732 768 q 667 852 707 835 q 542 869 626 869 l 428 869 m 394 1014 q 342 1034 361 1014 q 324 1090 324 1054 q 325 1113 324 1104 q 351 1160 329 1143 q 407 1178 372 1178 q 461 1160 442 1178 q 481 1111 481 1142 q 478 1086 481 1103 q 449 1033 471 1051 q 394 1014 428 1014 m 675 1015 q 621 1035 640 1015 q 601 1088 601 1054 q 624 1154 601 1131 q 690 1178 647 1178 q 742 1159 724 1178 q 761 1108 761 1140 q 738 1040 761 1064 q 675 1015 715 1015 z "},"Ė":{"ha":822,"x_min":36,"x_max":825,"o":"m 428 869 l 367 510 l 435 510 q 554 532 518 510 q 600 619 590 554 q 646 625 633 625 q 676 622 654 625 q 646 464 654 531 q 631 306 635 382 q 558 324 582 310 q 535 415 563 390 q 428 440 508 440 l 356 440 l 315 207 q 307 139 307 165 q 330 83 307 97 q 414 69 353 69 l 439 69 q 563 89 517 69 q 636 144 608 108 q 696 249 664 181 q 769 215 740 242 q 697 -4 719 111 q 396 0 614 0 q 36 -4 142 0 q 49 64 36 29 q 110 82 90 69 q 142 122 131 94 q 163 210 153 150 l 256 742 q 263 800 263 779 q 243 853 263 836 q 175 876 224 869 q 171 913 171 893 q 174 943 171 921 q 439 939 278 939 l 440 939 q 825 943 693 939 q 813 772 813 850 q 815 713 813 749 q 735 701 776 700 q 719 801 732 768 q 667 852 707 835 q 542 869 626 869 l 428 869 m 526 1000 q 472 1019 492 1000 q 453 1069 453 1038 q 481 1141 453 1114 q 554 1168 510 1168 q 608 1149 588 1168 q 628 1099 628 1131 q 600 1027 628 1054 q 526 1000 572 1000 z "},"Ẹ":{"ha":822,"x_min":36,"x_max":825,"o":"m 428 869 l 367 510 l 435 510 q 554 532 518 510 q 600 619 590 554 q 646 625 633 625 q 676 622 654 625 q 646 464 654 531 q 631 306 635 382 q 558 324 582 310 q 535 415 563 390 q 428 440 508 440 l 356 440 l 315 207 q 307 139 307 165 q 330 83 307 97 q 414 69 353 69 l 439 69 q 563 89 517 69 q 636 144 608 108 q 696 249 664 181 q 769 215 740 242 q 697 -4 719 111 q 396 0 614 0 q 36 -4 142 0 q 49 64 36 29 q 110 82 90 69 q 142 122 131 94 q 163 210 153 150 l 256 742 q 263 800 263 779 q 243 853 263 836 q 175 876 224 869 q 171 913 171 893 q 174 943 171 921 q 439 939 278 939 l 440 939 q 825 943 693 939 q 813 772 813 850 q 815 713 813 749 q 735 701 776 700 q 719 801 732 768 q 667 852 707 835 q 542 869 626 869 l 428 869 m 329 -303 q 273 -284 293 -303 q 253 -232 253 -265 q 254 -215 253 -221 q 288 -149 261 -174 q 353 -124 314 -124 q 406 -142 385 -124 q 428 -196 428 -160 q 401 -272 428 -242 q 329 -303 374 -303 z "},"È":{"ha":822,"x_min":36,"x_max":825,"o":"m 428 869 l 367 510 l 435 510 q 554 532 518 510 q 600 619 590 554 q 646 625 633 625 q 676 622 654 625 q 646 464 654 531 q 631 306 635 382 q 558 324 582 310 q 535 415 563 390 q 428 440 508 440 l 356 440 l 315 207 q 307 139 307 165 q 330 83 307 97 q 414 69 353 69 l 439 69 q 563 89 517 69 q 636 144 608 108 q 696 249 664 181 q 769 215 740 242 q 697 -4 719 111 q 396 0 614 0 q 36 -4 142 0 q 49 64 36 29 q 110 82 90 69 q 142 122 131 94 q 163 210 153 150 l 256 742 q 263 800 263 779 q 243 853 263 836 q 175 876 224 869 q 171 913 171 893 q 174 943 171 921 q 439 939 278 939 l 440 939 q 825 943 693 939 q 813 772 813 850 q 815 713 813 749 q 735 701 776 700 q 719 801 732 768 q 667 852 707 835 q 542 869 626 869 l 428 869 m 585 1028 q 547 1022 565 1022 q 508 1028 531 1022 q 372 1201 463 1103 q 458 1215 414 1215 q 517 1208 485 1215 q 585 1028 544 1104 z "},"Ẻ":{"ha":822,"x_min":36,"x_max":825,"o":"m 428 869 l 367 510 l 435 510 q 554 532 518 510 q 600 619 590 554 q 646 625 633 625 q 676 622 654 625 q 646 464 654 531 q 631 306 635 382 q 558 324 582 310 q 535 415 563 390 q 428 440 508 440 l 356 440 l 315 207 q 307 139 307 165 q 330 83 307 97 q 414 69 353 69 l 439 69 q 563 89 517 69 q 636 144 608 108 q 696 249 664 181 q 769 215 740 242 q 697 -4 719 111 q 396 0 614 0 q 36 -4 142 0 q 49 64 36 29 q 110 82 90 69 q 142 122 131 94 q 163 210 153 150 l 256 742 q 263 800 263 779 q 243 853 263 836 q 175 876 224 869 q 171 913 171 893 q 174 943 171 921 q 439 939 278 939 l 440 939 q 825 943 693 939 q 813 772 813 850 q 815 713 813 749 q 735 701 776 700 q 719 801 732 768 q 667 852 707 835 q 542 869 626 869 l 428 869 m 489 1015 q 482 1047 482 1032 q 497 1090 482 1075 q 540 1118 511 1104 q 572 1138 561 1131 q 586 1157 582 1144 q 588 1167 588 1161 q 557 1186 588 1186 q 476 1104 501 1186 q 436 1113 456 1108 q 407 1128 417 1118 q 414 1149 408 1133 q 421 1176 419 1164 q 422 1203 422 1189 q 571 1239 492 1239 q 660 1220 629 1239 q 690 1171 690 1201 q 671 1121 690 1139 q 615 1082 651 1103 q 577 1058 590 1068 q 560 1035 564 1049 q 558 1026 560 1031 q 557 1013 556 1021 q 529 1011 549 1011 q 489 1015 506 1011 z "},"Ȇ":{"ha":822,"x_min":36,"x_max":825,"o":"m 428 869 l 367 510 l 435 510 q 554 532 518 510 q 600 619 590 554 q 646 625 633 625 q 676 622 654 625 q 646 464 654 531 q 631 306 635 382 q 558 324 582 310 q 535 415 563 390 q 428 440 508 440 l 356 440 l 315 207 q 307 139 307 165 q 330 83 307 97 q 414 69 353 69 l 439 69 q 563 89 517 69 q 636 144 608 108 q 696 249 664 181 q 769 215 740 242 q 697 -4 719 111 q 396 0 614 0 q 36 -4 142 0 q 49 64 36 29 q 110 82 90 69 q 142 122 131 94 q 163 210 153 150 l 256 742 q 263 800 263 779 q 243 853 263 836 q 175 876 224 869 q 171 913 171 893 q 174 943 171 921 q 439 939 278 939 l 440 939 q 825 943 693 939 q 813 772 813 850 q 815 713 813 749 q 735 701 776 700 q 719 801 732 768 q 667 852 707 835 q 542 869 626 869 l 428 869 m 581 1208 q 728 1171 678 1208 q 779 1061 779 1133 q 775 1017 779 1040 q 701 1004 736 1000 q 662 1083 703 1054 q 550 1111 621 1111 q 430 1083 479 1111 q 367 1004 381 1054 q 347 1003 360 1003 q 308 1011 322 1003 q 397 1157 326 1106 q 581 1208 467 1208 z "},"Ē":{"ha":822,"x_min":36,"x_max":825,"o":"m 428 869 l 367 510 l 435 510 q 554 532 518 510 q 600 619 590 554 q 646 625 633 625 q 676 622 654 625 q 646 464 654 531 q 631 306 635 382 q 558 324 582 310 q 535 415 563 390 q 428 440 508 440 l 356 440 l 315 207 q 307 139 307 165 q 330 83 307 97 q 414 69 353 69 l 439 69 q 563 89 517 69 q 636 144 608 108 q 696 249 664 181 q 769 215 740 242 q 697 -4 719 111 q 396 0 614 0 q 36 -4 142 0 q 49 64 36 29 q 110 82 90 69 q 142 122 131 94 q 163 210 153 150 l 256 742 q 263 800 263 779 q 243 853 263 836 q 175 876 224 869 q 171 913 171 893 q 174 943 171 921 q 439 939 278 939 l 440 939 q 825 943 693 939 q 813 772 813 850 q 815 713 813 749 q 735 701 776 700 q 719 801 732 768 q 667 852 707 835 q 542 869 626 869 l 428 869 m 293 1060 q 296 1095 293 1075 q 306 1128 299 1115 l 793 1128 q 781 1065 793 1099 q 293 1060 482 1065 z "},"Ḗ":{"ha":822,"x_min":36,"x_max":825,"o":"m 428 869 l 367 510 l 435 510 q 554 532 518 510 q 600 619 590 554 q 646 625 633 625 q 676 622 654 625 q 646 464 654 531 q 631 306 635 382 q 558 324 582 310 q 535 415 563 390 q 428 440 508 440 l 356 440 l 315 207 q 307 139 307 165 q 330 83 307 97 q 414 69 353 69 l 439 69 q 563 89 517 69 q 636 144 608 108 q 696 249 664 181 q 769 215 740 242 q 697 -4 719 111 q 396 0 614 0 q 36 -4 142 0 q 49 64 36 29 q 110 82 90 69 q 142 122 131 94 q 163 210 153 150 l 256 742 q 263 800 263 779 q 243 853 263 836 q 175 876 224 869 q 171 913 171 893 q 174 943 171 921 q 439 939 278 939 l 440 939 q 825 943 693 939 q 813 772 813 850 q 815 713 813 749 q 735 701 776 700 q 719 801 732 768 q 667 852 707 835 q 542 869 626 869 l 428 869 m 293 1060 q 296 1095 293 1075 q 306 1128 299 1115 l 793 1128 q 781 1065 793 1099 q 293 1060 482 1065 m 550 1201 q 486 1228 513 1206 q 556 1323 525 1274 q 601 1406 586 1372 q 660 1410 631 1410 q 760 1392 724 1410 q 550 1201 650 1301 z "},"Ḕ":{"ha":822,"x_min":36,"x_max":825,"o":"m 428 869 l 367 510 l 435 510 q 554 532 518 510 q 600 619 590 554 q 646 625 633 625 q 676 622 654 625 q 646 464 654 531 q 631 306 635 382 q 558 324 582 310 q 535 415 563 390 q 428 440 508 440 l 356 440 l 315 207 q 307 139 307 165 q 330 83 307 97 q 414 69 353 69 l 439 69 q 563 89 517 69 q 636 144 608 108 q 696 249 664 181 q 769 215 740 242 q 697 -4 719 111 q 396 0 614 0 q 36 -4 142 0 q 49 64 36 29 q 110 82 90 69 q 142 122 131 94 q 163 210 153 150 l 256 742 q 263 800 263 779 q 243 853 263 836 q 175 876 224 869 q 171 913 171 893 q 174 943 171 921 q 439 939 278 939 l 440 939 q 825 943 693 939 q 813 772 813 850 q 815 713 813 749 q 735 701 776 700 q 719 801 732 768 q 667 852 707 835 q 542 869 626 869 l 428 869 m 293 1060 q 296 1095 293 1075 q 306 1128 299 1115 l 793 1128 q 781 1065 793 1099 q 293 1060 482 1065 m 622 1217 q 585 1211 603 1211 q 546 1217 568 1211 q 410 1390 500 1292 q 496 1404 451 1404 q 554 1397 522 1404 q 622 1217 582 1293 z "},"Ę":{"ha":822,"x_min":36,"x_max":825,"o":"m 428 869 l 367 510 l 435 510 q 554 532 518 510 q 600 619 590 554 q 646 625 633 625 q 676 622 654 625 q 646 464 654 531 q 631 306 635 382 q 558 324 582 310 q 535 415 563 390 q 428 440 508 440 l 356 440 l 315 207 q 307 139 307 165 q 330 83 307 97 q 414 69 353 69 l 439 69 q 563 89 517 69 q 636 144 608 108 q 696 249 664 181 q 769 215 740 242 q 697 -4 719 111 q 581 -1 625 -1 q 432 -154 432 -72 q 451 -201 432 -182 q 506 -219 469 -219 q 563 -208 535 -219 q 572 -253 572 -228 q 571 -269 572 -264 q 451 -343 508 -297 q 425 -346 443 -346 q 333 -315 372 -346 q 294 -224 294 -283 q 334 -106 294 -161 q 467 0 374 -51 l 396 0 q 36 -4 142 0 q 49 64 36 29 q 110 82 90 69 q 142 122 131 94 q 163 210 153 150 l 256 742 q 263 800 263 779 q 243 853 263 836 q 175 876 224 869 q 171 913 171 893 q 174 943 171 921 q 439 939 278 939 l 440 939 q 825 943 693 939 q 813 772 813 850 q 815 713 813 749 q 735 701 776 700 q 719 801 732 768 q 667 852 707 835 q 542 869 626 869 l 428 869 z "},"Ǝ":{"ha":808,"x_min":14,"x_max":876,"o":"m 621 939 q 876 943 788 939 q 856 876 869 897 q 772 844 796 872 q 736 750 749 817 l 629 199 q 619 128 619 147 q 637 80 619 94 q 697 63 654 65 q 693 -4 700 32 q 322 0 589 0 q 15 -3 132 0 q 21 115 21 75 q 14 219 21 164 q 90 242 42 238 q 117 140 100 175 q 180 88 135 106 q 314 69 225 69 l 324 69 q 401 80 372 69 q 449 119 431 90 q 478 207 467 149 l 522 439 l 449 439 q 331 413 368 439 q 274 317 293 386 q 252 315 267 317 q 225 313 238 313 q 201 314 210 313 q 236 476 228 433 q 243 511 238 490 q 261 629 257 582 q 335 614 304 625 q 331 578 331 593 q 359 521 331 536 q 460 506 388 506 l 536 506 l 607 876 l 490 876 q 233 696 282 876 q 164 728 183 706 q 201 833 181 768 q 232 943 221 897 q 621 939 386 939 z "},"Ẽ":{"ha":822,"x_min":36,"x_max":825,"o":"m 428 869 l 367 510 l 435 510 q 554 532 518 510 q 600 619 590 554 q 646 625 633 625 q 676 622 654 625 q 646 464 654 531 q 631 306 635 382 q 558 324 582 310 q 535 415 563 390 q 428 440 508 440 l 356 440 l 315 207 q 307 139 307 165 q 330 83 307 97 q 414 69 353 69 l 439 69 q 563 89 517 69 q 636 144 608 108 q 696 249 664 181 q 769 215 740 242 q 697 -4 719 111 q 396 0 614 0 q 36 -4 142 0 q 49 64 36 29 q 110 82 90 69 q 142 122 131 94 q 163 210 153 150 l 256 742 q 263 800 263 779 q 243 853 263 836 q 175 876 224 869 q 171 913 171 893 q 174 943 171 921 q 439 939 278 939 l 440 939 q 825 943 693 939 q 813 772 813 850 q 815 713 813 749 q 735 701 776 700 q 719 801 732 768 q 667 852 707 835 q 542 869 626 869 l 428 869 m 613 1036 q 565 1043 586 1036 q 515 1064 544 1050 q 494 1073 511 1065 q 463 1084 478 1081 q 433 1088 447 1088 q 322 1040 385 1088 q 307 1104 303 1065 q 481 1185 389 1185 q 582 1157 526 1185 q 622 1141 606 1146 q 656 1136 638 1136 q 743 1178 696 1136 q 786 1140 776 1163 q 613 1036 707 1036 z "},"Ʒ":{"ha":803,"x_min":32,"x_max":839,"o":"m 838 882 q 508 524 690 703 q 693 463 629 517 q 757 317 757 408 q 751 258 757 286 q 613 59 726 131 q 315 -12 499 -12 q 32 64 149 -12 q 51 165 43 107 q 61 271 58 224 q 108 276 79 276 q 151 272 133 276 q 150 235 150 258 q 189 103 150 144 q 319 63 228 63 q 494 117 425 63 q 582 263 564 171 q 586 304 586 286 q 520 424 586 383 q 331 469 454 465 q 321 519 321 494 q 322 540 321 533 q 481 698 397 608 q 638 876 564 788 l 465 876 q 365 861 404 876 q 297 806 326 846 q 238 688 267 765 q 188 697 213 689 q 150 718 163 706 q 191 824 172 763 q 218 942 210 886 q 551 939 276 939 q 825 942 731 939 q 839 897 839 921 q 838 882 839 888 z "},"Ǯ":{"ha":803,"x_min":32,"x_max":839,"o":"m 838 882 q 508 524 690 703 q 693 463 629 517 q 757 317 757 408 q 751 258 757 286 q 613 59 726 131 q 315 -12 499 -12 q 32 64 149 -12 q 51 165 43 107 q 61 271 58 224 q 108 276 79 276 q 151 272 133 276 q 150 235 150 258 q 189 103 150 144 q 319 63 228 63 q 494 117 425 63 q 582 263 564 171 q 586 304 586 286 q 520 424 586 383 q 331 469 454 465 q 321 519 321 494 q 322 540 321 533 q 481 698 397 608 q 638 876 564 788 l 465 876 q 365 861 404 876 q 297 806 326 846 q 238 688 267 765 q 188 697 213 689 q 150 718 163 706 q 191 824 172 763 q 218 942 210 886 q 551 939 276 939 q 825 942 731 939 q 839 897 839 921 q 838 882 839 888 m 494 1017 q 322 1185 414 1115 q 364 1231 329 1225 q 547 1136 442 1185 q 736 1226 647 1171 q 781 1183 767 1215 q 553 1025 646 1100 q 508 1015 526 1015 l 494 1017 z "},"F":{"ha":763,"x_min":35,"x_max":818,"o":"m 818 943 q 806 763 806 846 q 807 713 806 728 q 728 701 771 700 q 713 801 725 767 q 660 852 700 835 q 535 869 619 869 l 426 869 l 360 474 l 433 474 q 553 497 517 474 q 600 586 589 521 q 644 592 631 592 q 675 589 653 592 q 646 432 658 517 q 629 271 633 338 q 557 290 581 275 q 549 361 560 336 q 510 397 539 386 q 426 407 482 407 l 349 407 l 314 207 q 306 139 306 165 q 328 89 306 106 q 415 63 350 72 q 419 -4 422 40 q 229 0 349 0 q 35 -4 99 0 q 47 63 38 38 q 112 83 92 69 q 141 121 132 97 q 160 197 150 144 l 254 740 q 261 800 261 779 q 242 853 261 836 q 176 876 224 869 q 172 918 172 896 q 174 943 172 935 q 436 939 247 939 l 439 939 q 818 943 686 939 z "},"G":{"ha":956,"x_min":76,"x_max":963,"o":"m 640 951 q 822 932 744 951 q 963 871 899 913 q 918 663 931 778 q 868 653 894 653 q 832 657 850 653 q 836 718 836 690 q 790 851 836 817 q 649 886 744 886 q 452 833 538 886 q 316 685 367 779 q 251 468 265 590 q 246 382 246 429 q 307 151 246 240 q 497 63 368 63 q 568 67 538 63 q 629 83 599 71 q 660 103 650 92 q 678 138 671 114 q 693 211 685 161 q 706 315 706 281 q 685 370 706 357 q 610 388 665 383 q 607 425 607 400 q 608 456 607 446 q 785 451 671 451 q 957 456 883 451 q 943 388 954 417 q 896 374 911 385 q 869 329 881 363 q 844 218 858 296 q 833 132 833 156 q 840 89 833 113 q 671 15 769 43 q 463 -12 572 -12 q 253 36 340 -12 q 122 173 167 85 q 76 376 76 261 q 82 463 76 424 q 188 737 104 626 q 390 899 271 847 q 640 951 508 951 z "},"Ğ":{"ha":956,"x_min":76,"x_max":963,"o":"m 640 951 q 822 932 744 951 q 963 871 899 913 q 918 663 931 778 q 868 653 894 653 q 832 657 850 653 q 836 718 836 690 q 790 851 836 817 q 649 886 744 886 q 452 833 538 886 q 316 685 367 779 q 251 468 265 590 q 246 382 246 429 q 307 151 246 240 q 497 63 368 63 q 568 67 538 63 q 629 83 599 71 q 660 103 650 92 q 678 138 671 114 q 693 211 685 161 q 706 315 706 281 q 685 370 706 357 q 610 388 665 383 q 607 425 607 400 q 608 456 607 446 q 785 451 671 451 q 957 456 883 451 q 943 388 954 417 q 896 374 911 385 q 869 329 881 363 q 844 218 858 296 q 833 132 833 156 q 840 89 833 113 q 671 15 769 43 q 463 -12 572 -12 q 253 36 340 -12 q 122 173 167 85 q 76 376 76 261 q 82 463 76 424 q 188 737 104 626 q 390 899 271 847 q 640 951 508 951 m 642 1011 q 494 1049 544 1011 q 443 1158 443 1086 q 447 1204 443 1179 q 521 1217 486 1221 q 560 1138 519 1167 q 672 1110 601 1110 q 792 1138 743 1110 q 856 1217 842 1167 q 874 1218 861 1218 q 914 1210 899 1218 q 826 1063 896 1114 q 642 1011 756 1011 z "},"Ǧ":{"ha":956,"x_min":76,"x_max":963,"o":"m 640 951 q 822 932 744 951 q 963 871 899 913 q 918 663 931 778 q 868 653 894 653 q 832 657 850 653 q 836 718 836 690 q 790 851 836 817 q 649 886 744 886 q 452 833 538 886 q 316 685 367 779 q 251 468 265 590 q 246 382 246 429 q 307 151 246 240 q 497 63 368 63 q 568 67 538 63 q 629 83 599 71 q 660 103 650 92 q 678 138 671 114 q 693 211 685 161 q 706 315 706 281 q 685 370 706 357 q 610 388 665 383 q 607 425 607 400 q 608 456 607 446 q 785 451 671 451 q 957 456 883 451 q 943 388 954 417 q 896 374 911 385 q 869 329 881 363 q 844 218 858 296 q 833 132 833 156 q 840 89 833 113 q 671 15 769 43 q 463 -12 572 -12 q 253 36 340 -12 q 122 173 167 85 q 76 376 76 261 q 82 463 76 424 q 188 737 104 626 q 390 899 271 847 q 640 951 508 951 m 622 1017 q 450 1185 542 1115 q 492 1231 457 1225 q 675 1136 569 1185 q 864 1226 775 1171 q 908 1183 894 1215 q 681 1025 774 1100 q 636 1015 654 1015 l 622 1017 z "},"Ĝ":{"ha":956,"x_min":76,"x_max":963,"o":"m 640 951 q 822 932 744 951 q 963 871 899 913 q 918 663 931 778 q 868 653 894 653 q 832 657 850 653 q 836 718 836 690 q 790 851 836 817 q 649 886 744 886 q 452 833 538 886 q 316 685 367 779 q 251 468 265 590 q 246 382 246 429 q 307 151 246 240 q 497 63 368 63 q 568 67 538 63 q 629 83 599 71 q 660 103 650 92 q 678 138 671 114 q 693 211 685 161 q 706 315 706 281 q 685 370 706 357 q 610 388 665 383 q 607 425 607 400 q 608 456 607 446 q 785 451 671 451 q 957 456 883 451 q 943 388 954 417 q 896 374 911 385 q 869 329 881 363 q 844 218 858 296 q 833 132 833 156 q 840 89 833 113 q 671 15 769 43 q 463 -12 572 -12 q 253 36 340 -12 q 122 173 167 85 q 76 376 76 261 q 82 463 76 424 q 188 737 104 626 q 390 899 271 847 q 640 951 508 951 m 486 1011 q 466 1040 474 1021 q 460 1074 458 1058 q 676 1222 544 1119 q 693 1224 682 1224 q 740 1214 719 1224 q 896 1051 801 1144 q 874 1029 889 1038 q 842 1018 860 1021 q 674 1104 754 1074 q 486 1011 603 1076 z "},"Ģ":{"ha":956,"x_min":76,"x_max":963,"o":"m 640 951 q 822 932 744 951 q 963 871 899 913 q 918 663 931 778 q 868 653 894 653 q 832 657 850 653 q 836 718 836 690 q 790 851 836 817 q 649 886 744 886 q 452 833 538 886 q 316 685 367 779 q 251 468 265 590 q 246 382 246 429 q 307 151 246 240 q 497 63 368 63 q 568 67 538 63 q 629 83 599 71 q 660 103 650 92 q 678 138 671 114 q 693 211 685 161 q 706 315 706 281 q 685 370 706 357 q 610 388 665 383 q 607 425 607 400 q 608 456 607 446 q 785 451 671 451 q 957 456 883 451 q 943 388 954 417 q 896 374 911 385 q 869 329 881 363 q 844 218 858 296 q 833 132 833 156 q 840 89 833 113 q 671 15 769 43 q 463 -12 572 -12 q 253 36 340 -12 q 122 173 167 85 q 76 376 76 261 q 82 463 76 424 q 188 737 104 626 q 390 899 271 847 q 640 951 508 951 m 367 -396 q 328 -361 336 -385 q 390 -294 367 -328 q 413 -235 413 -260 q 363 -192 413 -199 q 389 -100 360 -139 q 518 -58 464 -89 q 557 -126 557 -72 q 554 -156 557 -136 q 491 -287 542 -226 q 367 -396 440 -347 z "},"Ġ":{"ha":956,"x_min":76,"x_max":963,"o":"m 640 951 q 822 932 744 951 q 963 871 899 913 q 918 663 931 778 q 868 653 894 653 q 832 657 850 653 q 836 718 836 690 q 790 851 836 817 q 649 886 744 886 q 452 833 538 886 q 316 685 367 779 q 251 468 265 590 q 246 382 246 429 q 307 151 246 240 q 497 63 368 63 q 568 67 538 63 q 629 83 599 71 q 660 103 650 92 q 678 138 671 114 q 693 211 685 161 q 706 315 706 281 q 685 370 706 357 q 610 388 665 383 q 607 425 607 400 q 608 456 607 446 q 785 451 671 451 q 957 456 883 451 q 943 388 954 417 q 896 374 911 385 q 869 329 881 363 q 844 218 858 296 q 833 132 833 156 q 840 89 833 113 q 671 15 769 43 q 463 -12 572 -12 q 253 36 340 -12 q 122 173 167 85 q 76 376 76 261 q 82 463 76 424 q 188 737 104 626 q 390 899 271 847 q 640 951 508 951 m 658 1000 q 604 1019 624 1000 q 585 1069 585 1038 q 613 1141 585 1114 q 686 1168 642 1168 q 740 1149 719 1168 q 760 1099 760 1131 q 732 1027 760 1054 q 658 1000 704 1000 z "},"Ḡ":{"ha":956,"x_min":76,"x_max":963,"o":"m 640 951 q 822 932 744 951 q 963 871 899 913 q 918 663 931 778 q 868 653 894 653 q 832 657 850 653 q 836 718 836 690 q 790 851 836 817 q 649 886 744 886 q 452 833 538 886 q 316 685 367 779 q 251 468 265 590 q 246 382 246 429 q 307 151 246 240 q 497 63 368 63 q 568 67 538 63 q 629 83 599 71 q 660 103 650 92 q 678 138 671 114 q 693 211 685 161 q 706 315 706 281 q 685 370 706 357 q 610 388 665 383 q 607 425 607 400 q 608 456 607 446 q 785 451 671 451 q 957 456 883 451 q 943 388 954 417 q 896 374 911 385 q 869 329 881 363 q 844 218 858 296 q 833 132 833 156 q 840 89 833 113 q 671 15 769 43 q 463 -12 572 -12 q 253 36 340 -12 q 122 173 167 85 q 76 376 76 261 q 82 463 76 424 q 188 737 104 626 q 390 899 271 847 q 640 951 508 951 m 424 1060 q 426 1095 424 1075 q 436 1128 429 1115 l 924 1128 q 911 1065 924 1099 q 424 1060 613 1065 z "},"Ǥ":{"ha":956,"x_min":76,"x_max":963,"o":"m 943 388 q 901 376 915 385 q 875 344 886 368 q 854 268 864 319 l 951 268 q 939 190 951 219 q 840 192 903 192 q 835 131 835 158 q 840 89 835 107 q 671 15 769 43 q 463 -12 572 -12 q 253 36 340 -12 q 122 173 167 85 q 76 376 76 261 q 82 463 76 424 q 188 737 104 626 q 390 899 271 847 q 640 951 508 951 q 822 932 744 951 q 963 871 899 913 q 918 663 931 778 q 868 653 894 653 q 832 657 850 653 q 836 718 836 690 q 790 851 836 817 q 649 886 744 886 q 452 833 538 886 q 316 685 367 779 q 251 468 265 590 q 246 382 246 429 q 307 151 246 240 q 497 63 368 63 q 568 67 538 63 q 629 83 599 71 q 668 114 657 94 q 689 192 679 133 q 513 189 578 192 q 516 233 513 210 q 525 268 519 257 l 703 268 q 707 315 707 297 q 687 371 707 357 q 610 388 667 385 q 607 425 607 400 q 608 456 607 446 q 785 451 671 451 q 957 456 883 451 q 943 388 954 417 z "},"Ȝ":{"ha":729,"x_min":-61,"x_max":722,"o":"m 717 707 q 626 547 699 615 q 421 428 554 479 q 596 374 529 425 q 663 218 663 322 q 656 146 663 179 q 562 -53 633 33 q 383 -189 490 -140 q 151 -237 276 -237 q 22 -221 76 -237 q -61 -175 -32 -204 q -29 -121 -53 -142 q 36 -149 -14 -136 q 142 -161 86 -161 q 367 -81 272 -161 q 488 135 461 -1 q 494 201 494 174 q 451 318 494 278 q 326 358 407 358 q 185 329 254 358 q 178 369 178 343 q 182 407 178 389 q 447 520 365 453 q 549 690 529 588 q 554 746 554 718 q 517 847 554 813 q 408 882 479 882 q 289 839 336 882 q 204 692 242 796 q 125 703 167 688 q 161 889 151 800 q 286 935 214 919 q 438 951 358 951 q 651 899 579 951 q 722 757 722 847 q 717 707 722 743 z "},"H":{"ha":1061,"x_min":36,"x_max":1085,"o":"m 904 939 q 1085 943 996 939 q 1071 876 1082 901 q 1010 856 1031 869 q 981 819 990 843 q 963 747 971 796 l 865 188 q 858 131 858 150 q 876 84 858 99 q 944 63 894 69 q 949 21 949 44 q 947 -4 949 4 q 769 0 858 0 q 590 -4 664 0 q 603 63 590 36 q 663 78 643 68 q 693 113 682 89 q 713 188 704 136 l 757 444 q 354 438 467 444 l 311 188 q 306 132 306 158 q 324 84 306 99 q 390 63 342 69 q 394 21 394 44 q 393 -4 394 4 q 215 0 304 0 q 36 -4 111 0 q 50 63 39 38 q 108 78 89 68 q 139 113 128 89 q 158 188 150 136 l 256 753 q 261 804 261 781 q 242 854 261 839 q 175 876 224 869 q 172 915 172 901 q 174 943 172 933 q 350 939 256 939 q 531 943 442 939 q 517 876 528 901 q 456 856 476 869 q 426 819 436 843 q 408 747 417 796 l 368 513 l 768 513 l 810 753 q 815 804 815 792 q 797 853 815 838 q 728 876 778 869 q 725 915 725 901 q 726 943 725 933 q 904 939 808 939 z "},"Ħ":{"ha":1061,"x_min":36,"x_max":1085,"o":"m 1071 876 q 1011 857 1031 869 q 982 820 992 844 q 963 747 972 796 l 954 700 l 1038 700 q 1024 633 1038 671 l 943 633 l 865 188 q 858 129 858 149 q 876 83 858 97 q 944 63 894 69 q 949 21 949 44 q 947 -4 949 4 q 769 0 858 0 q 590 -4 664 0 q 603 63 590 36 q 663 78 643 68 q 693 113 682 89 q 713 188 704 136 l 757 444 q 354 438 467 444 l 311 188 q 306 132 306 158 q 324 84 306 99 q 390 63 342 69 q 394 21 394 44 q 393 -4 394 4 q 215 0 304 0 q 36 -4 111 0 q 50 63 39 38 q 108 78 89 68 q 139 113 128 89 q 158 188 150 136 l 235 629 l 147 628 q 151 665 147 642 q 161 700 156 688 l 246 700 l 256 753 q 261 806 261 781 q 242 855 261 840 q 175 876 224 869 q 172 915 172 901 q 174 943 172 933 q 350 939 256 939 q 531 943 442 939 q 517 876 528 901 q 458 857 478 869 q 427 820 438 844 q 408 747 417 796 l 400 700 l 800 700 l 810 753 q 815 806 815 781 q 797 853 815 838 q 728 876 778 869 q 725 915 725 901 q 726 943 725 933 q 904 939 808 939 q 1085 943 996 939 q 1071 876 1082 901 m 789 633 q 388 631 657 633 l 368 513 l 768 513 l 789 633 z "},"Ḫ":{"ha":1061,"x_min":36,"x_max":1085,"o":"m 904 939 q 1085 943 996 939 q 1071 876 1082 901 q 1010 856 1031 869 q 981 819 990 843 q 963 747 971 796 l 865 188 q 858 131 858 150 q 876 84 858 99 q 944 63 894 69 q 949 21 949 44 q 947 -4 949 4 q 769 0 858 0 q 590 -4 664 0 q 603 63 590 36 q 663 78 643 68 q 693 113 682 89 q 713 188 704 136 l 757 444 q 354 438 467 444 l 311 188 q 306 132 306 158 q 324 84 306 99 q 390 63 342 69 q 394 21 394 44 q 393 -4 394 4 q 215 0 304 0 q 36 -4 111 0 q 50 63 39 38 q 108 78 89 68 q 139 113 128 89 q 158 188 150 136 l 256 753 q 261 804 261 781 q 242 854 261 839 q 175 876 224 869 q 172 915 172 901 q 174 943 172 933 q 350 939 256 939 q 531 943 442 939 q 517 876 528 901 q 456 856 476 869 q 426 819 436 843 q 408 747 417 796 l 368 513 l 768 513 l 810 753 q 815 804 815 792 q 797 853 815 838 q 728 876 778 869 q 725 915 725 901 q 726 943 725 933 q 904 939 808 939 z "},"Ȟ":{"ha":1061,"x_min":36,"x_max":1085,"o":"m 904 939 q 1085 943 996 939 q 1071 876 1082 901 q 1010 856 1031 869 q 981 819 990 843 q 963 747 971 796 l 865 188 q 858 131 858 150 q 876 84 858 99 q 944 63 894 69 q 949 21 949 44 q 947 -4 949 4 q 769 0 858 0 q 590 -4 664 0 q 603 63 590 36 q 663 78 643 68 q 693 113 682 89 q 713 188 704 136 l 757 444 q 354 438 467 444 l 311 188 q 306 132 306 158 q 324 84 306 99 q 390 63 342 69 q 394 21 394 44 q 393 -4 394 4 q 215 0 304 0 q 36 -4 111 0 q 50 63 39 38 q 108 78 89 68 q 139 113 128 89 q 158 188 150 136 l 256 753 q 261 804 261 781 q 242 854 261 839 q 175 876 224 869 q 172 915 172 901 q 174 943 172 933 q 350 939 256 939 q 531 943 442 939 q 517 876 528 901 q 456 856 476 869 q 426 819 436 843 q 408 747 417 796 l 368 513 l 768 513 l 810 753 q 815 804 815 792 q 797 853 815 838 q 728 876 778 869 q 725 915 725 901 q 726 943 725 933 q 904 939 808 939 m 604 1017 q 432 1185 524 1115 q 474 1231 439 1225 q 657 1136 551 1185 q 846 1226 757 1171 q 890 1183 876 1215 q 663 1025 756 1100 q 618 1015 636 1015 l 604 1017 z "},"Ĥ":{"ha":1061,"x_min":36,"x_max":1085,"o":"m 904 939 q 1085 943 996 939 q 1071 876 1082 901 q 1010 856 1031 869 q 981 819 990 843 q 963 747 971 796 l 865 188 q 858 131 858 150 q 876 84 858 99 q 944 63 894 69 q 949 21 949 44 q 947 -4 949 4 q 769 0 858 0 q 590 -4 664 0 q 603 63 590 36 q 663 78 643 68 q 693 113 682 89 q 713 188 704 136 l 757 444 q 354 438 467 444 l 311 188 q 306 132 306 158 q 324 84 306 99 q 390 63 342 69 q 394 21 394 44 q 393 -4 394 4 q 215 0 304 0 q 36 -4 111 0 q 50 63 39 38 q 108 78 89 68 q 139 113 128 89 q 158 188 150 136 l 256 753 q 261 804 261 781 q 242 854 261 839 q 175 876 224 869 q 172 915 172 901 q 174 943 172 933 q 350 939 256 939 q 531 943 442 939 q 517 876 528 901 q 456 856 476 869 q 426 819 436 843 q 408 747 417 796 l 368 513 l 768 513 l 810 753 q 815 804 815 792 q 797 853 815 838 q 728 876 778 869 q 725 915 725 901 q 726 943 725 933 q 904 939 808 939 m 468 1011 q 448 1040 456 1021 q 442 1074 440 1058 q 658 1222 526 1119 q 675 1224 664 1224 q 722 1214 701 1224 q 878 1051 783 1144 q 856 1029 871 1038 q 824 1018 842 1021 q 656 1104 736 1074 q 468 1011 585 1076 z "},"Ḥ":{"ha":1061,"x_min":36,"x_max":1085,"o":"m 904 939 q 1085 943 996 939 q 1071 876 1082 901 q 1010 856 1031 869 q 981 819 990 843 q 963 747 971 796 l 865 188 q 858 131 858 150 q 876 84 858 99 q 944 63 894 69 q 949 21 949 44 q 947 -4 949 4 q 769 0 858 0 q 590 -4 664 0 q 603 63 590 36 q 663 78 643 68 q 693 113 682 89 q 713 188 704 136 l 757 444 q 354 438 467 444 l 311 188 q 306 132 306 158 q 324 84 306 99 q 390 63 342 69 q 394 21 394 44 q 393 -4 394 4 q 215 0 304 0 q 36 -4 111 0 q 50 63 39 38 q 108 78 89 68 q 139 113 128 89 q 158 188 150 136 l 256 753 q 261 804 261 781 q 242 854 261 839 q 175 876 224 869 q 172 915 172 901 q 174 943 172 933 q 350 939 256 939 q 531 943 442 939 q 517 876 528 901 q 456 856 476 869 q 426 819 436 843 q 408 747 417 796 l 368 513 l 768 513 l 810 753 q 815 804 815 792 q 797 853 815 838 q 728 876 778 869 q 725 915 725 901 q 726 943 725 933 q 904 939 808 939 m 425 -303 q 369 -284 389 -303 q 349 -232 349 -265 q 350 -215 349 -221 q 383 -149 357 -174 q 449 -124 410 -124 q 502 -142 481 -124 q 524 -196 524 -160 q 497 -272 524 -242 q 425 -303 469 -303 z "},"I":{"ha":508,"x_min":36,"x_max":531,"o":"m 256 753 q 261 804 261 781 q 242 854 261 839 q 175 876 224 869 q 172 915 172 901 q 174 943 172 933 q 350 939 256 939 q 531 943 442 939 q 517 876 528 901 q 456 856 476 869 q 426 819 436 843 q 408 747 417 796 l 311 188 q 304 132 304 150 q 322 84 304 99 q 390 63 340 69 q 394 21 394 44 q 393 -4 394 4 q 215 0 304 0 q 36 -4 111 0 q 50 63 39 38 q 108 78 89 68 q 139 113 128 89 q 158 188 150 136 l 256 753 z "},"Ĳ":{"ha":915,"x_min":100,"x_max":981,"o":"m 317 -343 q 205 -320 260 -343 q 103 -256 150 -297 q 100 -215 100 -225 q 115 -140 100 -175 q 261 -181 185 -167 q 396 -196 338 -196 q 486 -171 456 -196 q 536 -81 517 -146 q 582 131 556 -17 q 604 247 599 222 q 626 308 610 271 l 622 308 q 539 165 592 240 q 419 38 486 90 q 283 -15 351 -15 q 165 164 165 -15 q 193 385 165 243 l 200 426 l 257 751 q 263 801 263 790 q 242 853 263 838 q 168 876 222 869 q 164 918 164 896 q 165 943 164 935 q 350 939 250 939 q 536 943 444 939 q 524 876 536 908 q 463 858 483 869 q 430 822 442 847 q 408 747 418 797 l 336 372 q 311 185 311 244 q 363 96 311 96 q 485 182 414 96 q 618 420 557 268 q 703 757 679 572 q 707 806 707 786 q 688 854 707 839 q 613 876 668 869 q 607 914 607 892 l 608 943 q 788 939 653 939 q 981 943 911 939 q 969 876 978 897 q 906 858 926 869 q 872 822 885 847 q 850 742 860 796 l 744 189 q 653 -80 717 42 q 503 -272 590 -201 q 317 -343 415 -343 z "},"Í":{"ha":508,"x_min":36,"x_max":561,"o":"m 256 753 q 261 804 261 781 q 242 854 261 839 q 175 876 224 869 q 172 915 172 901 q 174 943 172 933 q 350 939 256 939 q 531 943 442 939 q 517 876 528 901 q 456 856 476 869 q 426 819 436 843 q 408 747 417 796 l 311 188 q 304 132 304 150 q 322 84 304 99 q 390 63 340 69 q 394 21 394 44 q 393 -4 394 4 q 215 0 304 0 q 36 -4 111 0 q 50 63 39 38 q 108 78 89 68 q 139 113 128 89 q 158 188 150 136 l 256 753 m 351 1013 q 288 1039 314 1017 q 357 1134 326 1085 q 403 1217 388 1183 q 461 1221 432 1221 q 561 1203 525 1221 q 351 1013 451 1113 z "},"Ĭ":{"ha":508,"x_min":36,"x_max":582,"o":"m 351 993 q 226 1032 268 993 q 185 1143 185 1071 q 190 1201 185 1174 q 215 1204 204 1204 q 253 1197 239 1204 q 371 1090 260 1090 q 474 1124 431 1090 q 531 1213 518 1158 q 582 1188 568 1206 q 506 1042 564 1092 q 351 993 447 993 m 256 753 q 261 804 261 781 q 242 854 261 839 q 175 876 224 869 q 172 915 172 901 q 174 943 172 933 q 350 939 256 939 q 531 943 442 939 q 517 876 528 901 q 456 856 476 869 q 426 819 436 843 q 408 747 417 796 l 311 188 q 304 132 304 150 q 322 84 304 99 q 390 63 340 69 q 394 21 394 44 q 393 -4 394 4 q 215 0 304 0 q 36 -4 111 0 q 50 63 39 38 q 108 78 89 68 q 139 113 128 89 q 158 188 150 136 l 256 753 z "},"Ǐ":{"ha":508,"x_min":36,"x_max":569,"o":"m 193 1186 q 221 1200 203 1194 q 257 1207 239 1206 q 379 1103 324 1140 q 532 1215 451 1150 q 569 1153 565 1193 q 375 988 490 1099 q 350 986 365 986 q 317 992 326 986 l 193 1186 m 256 753 q 261 804 261 781 q 242 854 261 839 q 175 876 224 869 q 172 915 172 901 q 174 943 172 933 q 350 939 256 939 q 531 943 442 939 q 517 876 528 901 q 456 856 476 869 q 426 819 436 843 q 408 747 417 796 l 311 188 q 304 132 304 150 q 322 84 304 99 q 390 63 340 69 q 394 21 394 44 q 393 -4 394 4 q 215 0 304 0 q 36 -4 111 0 q 50 63 39 38 q 108 78 89 68 q 139 113 128 89 q 158 188 150 136 l 256 753 z "},"Î":{"ha":508,"x_min":36,"x_max":571,"o":"m 231 983 q 193 1046 197 1007 q 388 1213 269 1097 q 447 1208 435 1213 l 571 1013 q 542 999 561 1004 q 507 993 522 993 q 386 1096 439 1058 q 231 983 321 1054 m 256 753 q 261 804 261 781 q 242 854 261 839 q 175 876 224 869 q 172 915 172 901 q 174 943 172 933 q 350 939 256 939 q 531 943 442 939 q 517 876 528 901 q 456 856 476 869 q 426 819 436 843 q 408 747 417 796 l 311 188 q 304 132 304 150 q 322 84 304 99 q 390 63 340 69 q 394 21 394 44 q 393 -4 394 4 q 215 0 304 0 q 36 -4 111 0 q 50 63 39 38 q 108 78 89 68 q 139 113 128 89 q 158 188 150 136 l 256 753 z "},"Ȉ":{"ha":508,"x_min":36,"x_max":531,"o":"m 256 753 q 261 804 261 781 q 242 854 261 839 q 175 876 224 869 q 172 915 172 901 q 174 943 172 933 q 350 939 256 939 q 531 943 442 939 q 517 876 528 901 q 456 856 476 869 q 426 819 436 843 q 408 747 417 796 l 311 188 q 304 132 304 150 q 322 84 304 99 q 390 63 340 69 q 394 21 394 44 q 393 -4 394 4 q 215 0 304 0 q 36 -4 111 0 q 50 63 39 38 q 108 78 89 68 q 139 113 128 89 q 158 188 150 136 l 256 753 m 247 1007 q 136 1185 189 1111 q 210 1197 167 1197 q 269 1190 238 1197 l 279 1144 q 314 1003 301 1042 q 247 1007 288 1001 m 454 1007 q 399 1103 426 1057 q 347 1185 372 1150 q 418 1197 376 1197 q 476 1190 446 1197 q 519 1003 501 1064 q 454 1007 493 1001 z "},"Ï":{"ha":508,"x_min":36,"x_max":582,"o":"m 258 1018 q 201 1038 222 1018 q 181 1086 181 1057 q 205 1147 181 1121 q 275 1172 229 1172 q 333 1153 314 1172 q 353 1104 353 1135 q 350 1082 353 1096 q 319 1036 344 1054 q 258 1018 293 1018 m 489 1019 q 431 1038 451 1019 q 410 1089 410 1057 q 435 1151 410 1129 q 504 1172 461 1172 q 560 1153 539 1172 q 582 1104 582 1133 q 560 1044 582 1069 q 489 1019 538 1019 m 256 753 q 261 804 261 781 q 242 854 261 839 q 175 876 224 869 q 172 915 172 901 q 174 943 172 933 q 350 939 256 939 q 531 943 442 939 q 517 876 528 901 q 456 856 476 869 q 426 819 436 843 q 408 747 417 796 l 311 188 q 304 132 304 150 q 322 84 304 99 q 390 63 340 69 q 394 21 394 44 q 393 -4 394 4 q 215 0 304 0 q 36 -4 111 0 q 50 63 39 38 q 108 78 89 68 q 139 113 128 89 q 158 188 150 136 l 256 753 z "},"Ḯ":{"ha":508,"x_min":36,"x_max":593,"o":"m 383 1203 q 319 1229 349 1204 q 389 1324 358 1275 q 435 1407 419 1374 q 493 1411 464 1411 q 593 1393 557 1411 q 383 1203 483 1300 m 258 1018 q 201 1038 222 1018 q 181 1086 181 1057 q 205 1147 181 1121 q 275 1172 229 1172 q 333 1153 314 1172 q 353 1104 353 1135 q 350 1082 353 1096 q 319 1036 344 1054 q 258 1018 293 1018 m 489 1019 q 431 1038 451 1019 q 410 1089 410 1057 q 435 1151 410 1129 q 504 1172 461 1172 q 560 1153 539 1172 q 582 1104 582 1133 q 560 1044 582 1069 q 489 1019 538 1019 m 256 753 q 261 804 261 781 q 242 854 261 839 q 175 876 224 869 q 172 915 172 901 q 174 943 172 933 q 350 939 256 939 q 531 943 442 939 q 517 876 528 901 q 456 856 476 869 q 426 819 436 843 q 408 747 417 796 l 311 188 q 304 132 304 150 q 322 84 304 99 q 390 63 340 69 q 394 21 394 44 q 393 -4 394 4 q 215 0 304 0 q 36 -4 111 0 q 50 63 39 38 q 108 78 89 68 q 139 113 128 89 q 158 188 150 136 l 256 753 z "},"İ":{"ha":508,"x_min":36,"x_max":531,"o":"m 256 753 q 261 804 261 781 q 242 854 261 839 q 175 876 224 869 q 172 915 172 901 q 174 943 172 933 q 350 939 256 939 q 531 943 442 939 q 517 876 528 901 q 456 856 476 869 q 426 819 436 843 q 408 747 417 796 l 311 188 q 304 132 304 150 q 322 84 304 99 q 390 63 340 69 q 394 21 394 44 q 393 -4 394 4 q 215 0 304 0 q 36 -4 111 0 q 50 63 39 38 q 108 78 89 68 q 139 113 128 89 q 158 188 150 136 l 256 753 m 365 1000 q 311 1019 331 1000 q 292 1069 292 1038 q 320 1141 292 1114 q 393 1168 349 1168 q 447 1149 426 1168 q 467 1099 467 1131 q 439 1027 467 1054 q 365 1000 411 1000 z "},"Ị":{"ha":508,"x_min":36,"x_max":531,"o":"m 256 753 q 261 804 261 781 q 242 854 261 839 q 175 876 224 869 q 172 915 172 901 q 174 943 172 933 q 350 939 256 939 q 531 943 442 939 q 517 876 528 901 q 456 856 476 869 q 426 819 436 843 q 408 747 417 796 l 311 188 q 304 132 304 150 q 322 84 304 99 q 390 63 340 69 q 394 21 394 44 q 393 -4 394 4 q 215 0 304 0 q 36 -4 111 0 q 50 63 39 38 q 108 78 89 68 q 139 113 128 89 q 158 188 150 136 l 256 753 m 149 -303 q 92 -284 113 -303 q 72 -232 72 -265 q 74 -215 72 -221 q 107 -149 81 -174 q 172 -124 133 -124 q 226 -142 204 -124 q 247 -196 247 -160 q 220 -272 247 -242 q 149 -303 193 -303 z "},"Ì":{"ha":508,"x_min":36,"x_max":531,"o":"m 256 753 q 261 804 261 781 q 242 854 261 839 q 175 876 224 869 q 172 915 172 901 q 174 943 172 933 q 350 939 256 939 q 531 943 442 939 q 517 876 528 901 q 456 856 476 869 q 426 819 436 843 q 408 747 417 796 l 311 188 q 304 132 304 150 q 322 84 304 99 q 390 63 340 69 q 394 21 394 44 q 393 -4 394 4 q 215 0 304 0 q 36 -4 111 0 q 50 63 39 38 q 108 78 89 68 q 139 113 128 89 q 158 188 150 136 l 256 753 m 424 1028 q 386 1022 404 1022 q 347 1028 369 1022 q 211 1201 301 1103 q 297 1215 253 1215 q 356 1208 324 1215 q 424 1028 383 1104 z "},"Ỉ":{"ha":508,"x_min":36,"x_max":531,"o":"m 256 753 q 261 804 261 781 q 242 854 261 839 q 175 876 224 869 q 172 915 172 901 q 174 943 172 933 q 350 939 256 939 q 531 943 442 939 q 517 876 528 901 q 456 856 476 869 q 426 819 436 843 q 408 747 417 796 l 311 188 q 304 132 304 150 q 322 84 304 99 q 390 63 340 69 q 394 21 394 44 q 393 -4 394 4 q 215 0 304 0 q 36 -4 111 0 q 50 63 39 38 q 108 78 89 68 q 139 113 128 89 q 158 188 150 136 l 256 753 m 328 1015 q 321 1047 321 1032 q 335 1090 321 1075 q 379 1118 350 1104 q 410 1138 400 1131 q 425 1157 421 1144 q 426 1167 426 1161 q 396 1186 426 1186 q 315 1104 340 1186 q 275 1113 294 1108 q 246 1128 256 1118 q 253 1149 247 1133 q 260 1176 258 1164 q 261 1203 261 1189 q 410 1239 331 1239 q 499 1220 468 1239 q 529 1171 529 1201 q 510 1121 529 1139 q 454 1082 490 1103 q 416 1058 429 1068 q 399 1035 403 1049 q 397 1026 399 1031 q 396 1013 394 1021 q 368 1011 388 1011 q 328 1015 344 1011 z "},"Ȋ":{"ha":508,"x_min":36,"x_max":579,"o":"m 256 753 q 261 804 261 781 q 242 854 261 839 q 175 876 224 869 q 172 915 172 901 q 174 943 172 933 q 350 939 256 939 q 531 943 442 939 q 517 876 528 901 q 456 856 476 869 q 426 819 436 843 q 408 747 417 796 l 311 188 q 304 132 304 150 q 322 84 304 99 q 390 63 340 69 q 394 21 394 44 q 393 -4 394 4 q 215 0 304 0 q 36 -4 111 0 q 50 63 39 38 q 108 78 89 68 q 139 113 128 89 q 158 188 150 136 l 256 753 m 413 1206 q 538 1167 496 1206 q 579 1057 579 1129 q 574 999 579 1026 q 546 994 561 994 q 511 1001 529 994 q 393 1108 504 1108 q 289 1075 332 1108 q 233 988 246 1042 q 182 1011 196 993 q 258 1156 200 1107 q 413 1206 315 1206 z "},"Ī":{"ha":508,"x_min":36,"x_max":576,"o":"m 183 1051 q 206 1124 186 1101 l 576 1124 q 557 1057 574 1086 q 183 1051 326 1057 m 256 753 q 261 804 261 781 q 242 854 261 839 q 175 876 224 869 q 172 915 172 901 q 174 943 172 933 q 350 939 256 939 q 531 943 442 939 q 517 876 528 901 q 456 856 476 869 q 426 819 436 843 q 408 747 417 796 l 311 188 q 304 132 304 150 q 322 84 304 99 q 390 63 340 69 q 394 21 394 44 q 393 -4 394 4 q 215 0 304 0 q 36 -4 111 0 q 50 63 39 38 q 108 78 89 68 q 139 113 128 89 q 158 188 150 136 l 256 753 z "},"Į":{"ha":508,"x_min":22,"x_max":531,"o":"m 350 939 q 531 943 442 939 q 517 876 528 901 q 456 856 476 869 q 426 819 436 843 q 408 747 417 796 l 311 188 q 304 132 304 150 q 322 84 304 99 q 390 63 340 69 q 394 21 394 44 q 393 -4 394 4 q 307 -1 335 -1 q 160 -154 160 -74 q 178 -201 160 -182 q 233 -219 197 -219 q 290 -208 263 -219 q 300 -253 300 -228 q 299 -269 300 -264 q 181 -343 232 -300 q 153 -346 171 -346 q 61 -315 100 -346 q 22 -224 22 -283 q 62 -106 22 -161 q 194 0 101 -51 q 36 -4 103 0 q 50 63 39 38 q 108 78 89 68 q 139 113 128 89 q 158 188 150 136 l 256 753 q 261 804 261 781 q 242 854 261 839 q 175 876 224 869 q 172 915 172 901 q 174 943 172 933 q 350 939 256 939 z "},"Ĩ":{"ha":508,"x_min":36,"x_max":597,"o":"m 444 1017 q 395 1024 413 1017 q 360 1046 378 1032 q 333 1063 343 1057 q 306 1068 322 1068 q 189 1021 258 1068 q 167 1072 167 1042 q 335 1176 250 1176 q 378 1169 361 1176 q 414 1149 394 1163 q 442 1133 431 1138 q 469 1128 453 1128 q 515 1140 490 1128 q 561 1171 540 1151 q 597 1128 590 1153 q 527 1042 564 1068 q 444 1017 490 1017 m 256 753 q 261 804 261 781 q 242 854 261 839 q 175 876 224 869 q 172 915 172 901 q 174 943 172 933 q 350 939 256 939 q 531 943 442 939 q 517 876 528 901 q 456 856 476 869 q 426 819 436 843 q 408 747 417 796 l 311 188 q 304 132 304 150 q 322 84 304 99 q 390 63 340 69 q 394 21 394 44 q 393 -4 394 4 q 215 0 304 0 q 36 -4 111 0 q 50 63 39 38 q 108 78 89 68 q 139 113 128 89 q 158 188 150 136 l 256 753 z "},"J":{"ha":443,"x_min":-110,"x_max":508,"o":"m 150 943 q 324 939 193 939 q 508 943 444 939 q 496 876 506 901 q 437 858 457 869 q 406 820 417 846 q 385 742 394 794 l 283 168 q 232 -47 260 33 q 131 -203 204 -126 q -85 -346 57 -281 q -110 -286 -106 -329 q 35 -145 -18 -224 q 111 61 89 -67 l 233 757 q 239 808 239 796 q 220 854 239 838 q 153 876 201 871 q 149 914 149 893 q 150 943 149 933 z "},"Ĵ":{"ha":442,"x_min":-110,"x_max":538,"o":"m 197 983 q 160 1046 164 1007 q 354 1213 236 1097 q 414 1208 401 1213 l 538 1013 q 508 999 528 1004 q 474 993 489 993 q 353 1096 406 1058 q 197 983 288 1054 m 150 943 q 324 939 193 939 q 508 943 444 939 q 496 876 506 901 q 437 858 457 869 q 406 820 417 846 q 385 742 394 794 l 283 168 q 232 -47 260 33 q 131 -203 204 -126 q -85 -346 57 -281 q -110 -286 -106 -329 q 35 -145 -18 -224 q 111 61 89 -67 l 233 757 q 239 808 239 796 q 220 854 239 838 q 153 876 201 871 q 149 914 149 893 q 150 943 149 933 z "},"K":{"ha":919,"x_min":36,"x_max":969,"o":"m 961 875 q 854 843 896 867 q 742 754 813 819 l 489 519 q 597 383 547 460 q 696 194 646 307 q 734 131 715 149 q 775 113 753 113 q 799 117 789 113 q 825 135 810 122 q 867 82 853 119 q 787 11 828 35 q 693 -12 746 -12 q 610 19 643 -10 q 553 115 578 49 q 465 314 511 231 q 360 465 418 397 l 311 188 q 304 126 304 146 q 319 83 304 96 q 376 63 335 69 q 381 21 381 44 q 379 -4 381 4 q 215 0 290 0 q 36 -4 111 0 q 50 63 39 38 q 112 81 92 67 q 140 118 132 94 q 158 192 149 142 l 256 753 q 261 804 261 781 q 242 854 261 839 q 175 876 224 869 q 172 915 172 901 q 174 943 172 933 q 350 939 256 939 q 531 943 442 939 q 517 876 528 901 q 458 856 478 869 q 427 819 438 843 q 408 747 417 794 l 365 501 l 633 751 q 692 813 674 790 q 711 850 711 836 q 675 876 711 869 q 669 924 669 907 q 671 943 669 936 q 825 939 725 939 q 969 943 918 939 q 961 875 969 896 z "},"Ǩ":{"ha":919,"x_min":36,"x_max":969,"o":"m 961 875 q 854 843 896 867 q 742 754 813 819 l 489 519 q 597 383 547 460 q 696 194 646 307 q 734 131 715 149 q 775 113 753 113 q 799 117 789 113 q 825 135 810 122 q 867 82 853 119 q 787 11 828 35 q 693 -12 746 -12 q 610 19 643 -10 q 553 115 578 49 q 465 314 511 231 q 360 465 418 397 l 311 188 q 304 126 304 146 q 319 83 304 96 q 376 63 335 69 q 381 21 381 44 q 379 -4 381 4 q 215 0 290 0 q 36 -4 111 0 q 50 63 39 38 q 112 81 92 67 q 140 118 132 94 q 158 192 149 142 l 256 753 q 261 804 261 781 q 242 854 261 839 q 175 876 224 869 q 172 915 172 901 q 174 943 172 933 q 350 939 256 939 q 531 943 442 939 q 517 876 528 901 q 458 856 478 869 q 427 819 438 843 q 408 747 417 794 l 365 501 l 633 751 q 692 813 674 790 q 711 850 711 836 q 675 876 711 869 q 669 924 669 907 q 671 943 669 936 q 825 939 725 939 q 969 943 918 939 q 961 875 969 896 m 582 1017 q 410 1185 501 1115 q 451 1231 417 1225 q 635 1136 529 1185 q 824 1226 735 1171 q 868 1183 854 1215 q 640 1025 733 1100 q 596 1015 614 1015 l 582 1017 z "},"Ķ":{"ha":919,"x_min":36,"x_max":969,"o":"m 961 875 q 854 843 896 867 q 742 754 813 819 l 489 519 q 597 383 547 460 q 696 194 646 307 q 734 131 715 149 q 775 113 753 113 q 799 117 789 113 q 825 135 810 122 q 867 82 853 119 q 787 11 828 35 q 693 -12 746 -12 q 610 19 643 -10 q 553 115 578 49 q 465 314 511 231 q 360 465 418 397 l 311 188 q 304 126 304 146 q 319 83 304 96 q 376 63 335 69 q 381 21 381 44 q 379 -4 381 4 q 215 0 290 0 q 36 -4 111 0 q 50 63 39 38 q 112 81 92 67 q 140 118 132 94 q 158 192 149 142 l 256 753 q 261 804 261 781 q 242 854 261 839 q 175 876 224 869 q 172 915 172 901 q 174 943 172 933 q 350 939 256 939 q 531 943 442 939 q 517 876 528 901 q 458 856 478 869 q 427 819 438 843 q 408 747 417 794 l 365 501 l 633 751 q 692 813 674 790 q 711 850 711 836 q 675 876 711 869 q 669 924 669 907 q 671 943 669 936 q 825 939 725 939 q 969 943 918 939 q 961 875 969 896 m 375 -396 q 336 -361 344 -385 q 398 -294 375 -328 q 421 -235 421 -260 q 371 -192 421 -199 q 397 -100 368 -139 q 526 -58 472 -89 q 565 -126 565 -72 q 563 -156 565 -136 q 499 -287 550 -226 q 375 -396 449 -347 z "},"L":{"ha":778,"x_min":32,"x_max":749,"o":"m 32 -4 q 44 63 35 35 q 107 81 86 68 q 139 122 128 93 q 160 210 150 150 l 254 758 q 260 806 260 794 q 242 854 260 839 q 176 876 224 869 q 172 915 172 893 q 174 943 172 933 q 349 939 228 939 q 540 942 482 939 q 529 876 540 906 q 461 858 483 869 q 427 820 439 846 q 406 739 415 794 l 311 196 q 304 133 304 151 q 326 82 304 94 q 407 69 347 69 l 418 69 q 535 87 490 69 q 610 142 579 104 q 675 250 642 181 q 749 215 721 242 q 676 -4 701 121 q 394 0 617 0 q 32 -4 133 0 z "},"Ǉ":{"ha":1219,"x_min":32,"x_max":1286,"o":"m 32 -4 q 44 63 35 35 q 107 81 86 68 q 139 122 128 93 q 160 210 150 150 l 254 758 q 260 806 260 794 q 242 854 260 839 q 176 876 224 869 q 172 915 172 893 q 174 943 172 933 q 349 939 228 939 q 540 942 482 939 q 529 876 540 906 q 461 858 483 869 q 427 820 439 846 q 406 739 415 794 l 311 196 q 304 133 304 151 q 326 82 304 94 q 407 69 347 69 l 418 69 q 535 87 490 69 q 610 142 579 104 q 675 250 642 181 q 749 215 721 242 q 676 -4 701 121 q 394 0 617 0 q 32 -4 133 0 m 928 943 q 1101 939 971 939 q 1286 943 1222 939 q 1274 876 1283 901 q 1215 858 1235 869 q 1183 820 1194 846 q 1163 742 1172 794 l 1061 168 q 1010 -47 1038 33 q 908 -203 982 -126 q 693 -346 835 -281 q 668 -286 672 -329 q 813 -145 760 -224 q 889 61 867 -67 l 1011 757 q 1017 808 1017 796 q 998 854 1017 838 q 931 876 979 871 q 926 914 926 893 q 928 943 926 933 z "},"Ĺ":{"ha":778,"x_min":32,"x_max":749,"o":"m 32 -4 q 44 63 35 35 q 107 81 86 68 q 139 122 128 93 q 160 210 150 150 l 254 758 q 260 806 260 794 q 242 854 260 839 q 176 876 224 869 q 172 915 172 893 q 174 943 172 933 q 349 939 228 939 q 540 942 482 939 q 529 876 540 906 q 461 858 483 869 q 427 820 439 846 q 406 739 415 794 l 311 196 q 304 133 304 151 q 326 82 304 94 q 407 69 347 69 l 418 69 q 535 87 490 69 q 610 142 579 104 q 675 250 642 181 q 749 215 721 242 q 676 -4 701 121 q 394 0 617 0 q 32 -4 133 0 m 363 1013 q 299 1039 325 1017 q 368 1134 338 1085 q 414 1217 399 1183 q 472 1221 443 1221 q 572 1203 536 1221 q 363 1013 463 1113 z "},"Ľ":{"ha":783,"x_min":32,"x_max":856,"o":"m 32 -4 q 44 63 35 35 q 107 81 86 68 q 139 122 128 93 q 160 210 150 150 l 254 758 q 260 806 260 794 q 242 854 260 839 q 176 876 224 869 q 172 915 172 893 q 174 943 172 933 q 349 939 228 939 q 540 942 482 939 q 529 876 540 906 q 461 858 483 869 q 427 820 439 846 q 406 739 415 794 l 311 196 q 304 133 304 151 q 326 82 304 94 q 407 69 347 69 l 418 69 q 535 87 490 69 q 610 142 579 104 q 675 250 642 181 q 749 215 721 242 q 676 -4 701 121 q 394 0 617 0 q 32 -4 133 0 m 699 615 q 644 647 661 615 q 729 786 729 732 q 664 849 729 835 q 670 903 664 875 q 688 947 676 931 q 758 960 721 949 q 818 988 794 972 q 856 907 856 968 q 849 849 856 883 q 699 615 824 721 z "},"Ļ":{"ha":778,"x_min":32,"x_max":749,"o":"m 32 -4 q 44 63 35 35 q 107 81 86 68 q 139 122 128 93 q 160 210 150 150 l 254 758 q 260 806 260 794 q 242 854 260 839 q 176 876 224 869 q 172 915 172 893 q 174 943 172 933 q 349 939 228 939 q 540 942 482 939 q 529 876 540 906 q 461 858 483 869 q 427 820 439 846 q 406 739 415 794 l 311 196 q 304 133 304 151 q 326 82 304 94 q 407 69 347 69 l 418 69 q 535 87 490 69 q 610 142 579 104 q 675 250 642 181 q 749 215 721 242 q 676 -4 701 121 q 394 0 617 0 q 32 -4 133 0 m 233 -396 q 194 -361 203 -385 q 256 -294 233 -328 q 279 -235 279 -260 q 229 -192 279 -199 q 256 -100 226 -139 q 385 -58 331 -89 q 424 -126 424 -72 q 421 -156 424 -136 q 358 -287 408 -226 q 233 -396 307 -347 z "},"Ŀ":{"ha":778,"x_min":32,"x_max":753,"o":"m 32 -4 q 44 63 35 35 q 107 81 86 68 q 139 122 128 93 q 160 210 150 150 l 254 758 q 260 806 260 794 q 242 854 260 839 q 176 876 224 869 q 172 915 172 893 q 174 943 172 933 q 349 939 228 939 q 540 942 482 939 q 529 876 540 906 q 461 858 483 869 q 427 820 439 846 q 406 739 415 794 l 311 196 q 304 133 304 151 q 326 82 304 94 q 407 69 347 69 l 418 69 q 535 87 490 69 q 610 142 579 104 q 675 250 642 181 q 749 215 721 242 q 676 -4 701 121 q 394 0 617 0 q 32 -4 133 0 m 672 415 q 618 435 639 415 q 597 485 597 454 q 600 508 597 492 q 628 556 606 538 q 682 575 650 575 q 733 555 713 575 q 753 503 753 535 q 751 485 753 490 q 724 433 744 451 q 672 415 704 415 z "},"Ḷ":{"ha":778,"x_min":32,"x_max":749,"o":"m 32 -4 q 44 63 35 35 q 107 81 86 68 q 139 122 128 93 q 160 210 150 150 l 254 758 q 260 806 260 794 q 242 854 260 839 q 176 876 224 869 q 172 915 172 893 q 174 943 172 933 q 349 939 228 939 q 540 942 482 939 q 529 876 540 906 q 461 858 483 869 q 427 820 439 846 q 406 739 415 794 l 311 196 q 304 133 304 151 q 326 82 304 94 q 407 69 347 69 l 418 69 q 535 87 490 69 q 610 142 579 104 q 675 250 642 181 q 749 215 721 242 q 676 -4 701 121 q 394 0 617 0 q 32 -4 133 0 m 308 -303 q 252 -284 272 -303 q 232 -232 232 -265 q 233 -215 232 -221 q 267 -149 240 -174 q 332 -124 293 -124 q 385 -142 364 -124 q 407 -196 407 -160 q 380 -272 407 -242 q 308 -303 353 -303 z "},"ǈ":{"ha":1118,"x_min":32,"x_max":1142,"o":"m 32 -4 q 44 63 35 35 q 107 81 86 68 q 139 122 128 93 q 160 210 150 150 l 254 758 q 260 806 260 794 q 242 854 260 839 q 176 876 224 869 q 172 915 172 893 q 174 943 172 933 q 349 939 228 939 q 540 942 482 939 q 529 876 540 906 q 461 858 483 869 q 427 820 439 846 q 406 739 415 794 l 311 196 q 304 133 304 151 q 326 82 304 94 q 407 69 347 69 l 418 69 q 535 87 490 69 q 610 142 579 104 q 675 250 642 181 q 749 215 721 242 q 676 -4 701 121 q 394 0 617 0 q 32 -4 133 0 m 1035 788 q 983 806 1001 788 q 965 856 965 824 q 967 876 965 869 q 1003 942 975 918 q 1069 967 1031 967 q 1122 948 1103 967 q 1142 897 1142 929 q 1112 818 1142 849 q 1035 788 1082 788 m 642 -346 q 617 -289 618 -325 q 767 -137 713 -224 q 844 71 822 -50 l 910 425 q 917 482 917 464 q 899 521 917 511 q 833 531 881 531 q 843 592 831 567 q 941 613 883 594 q 1032 649 999 631 q 1067 619 1057 635 q 1076 569 1076 603 q 1063 456 1076 529 l 1000 114 q 884 -172 967 -67 q 642 -346 801 -278 z "},"Ḻ":{"ha":778,"x_min":32,"x_max":749,"o":"m 32 -4 q 44 63 35 35 q 107 81 86 68 q 139 122 128 93 q 160 210 150 150 l 254 758 q 260 806 260 794 q 242 854 260 839 q 176 876 224 869 q 172 915 172 893 q 174 943 172 933 q 349 939 228 939 q 540 942 482 939 q 529 876 540 906 q 461 858 483 869 q 427 820 439 846 q 406 739 415 794 l 311 196 q 304 133 304 151 q 326 82 304 94 q 407 69 347 69 l 418 69 q 535 87 490 69 q 610 142 579 104 q 675 250 642 181 q 749 215 721 242 q 676 -4 701 121 q 394 0 617 0 q 32 -4 133 0 m 71 -244 q 74 -209 71 -229 q 83 -176 76 -189 l 571 -176 q 558 -239 571 -208 q 71 -244 260 -239 z "},"Ł":{"ha":778,"x_min":32,"x_max":749,"o":"m 675 250 q 749 215 721 242 q 676 -4 701 121 q 394 0 617 0 q 32 -4 133 0 q 44 63 35 35 q 106 81 86 68 q 137 121 126 93 q 158 210 147 149 l 183 356 l 113 290 q 88 318 97 300 q 76 354 78 336 l 204 471 l 254 758 q 260 806 260 794 q 242 853 260 838 q 176 876 224 869 q 172 915 172 893 q 174 943 172 933 q 349 939 228 939 q 540 942 482 939 q 529 876 540 906 q 458 856 482 871 q 424 815 433 840 q 406 739 414 790 l 382 606 l 475 690 q 499 665 489 683 q 510 628 510 646 l 363 490 l 311 196 q 303 132 303 143 q 325 83 303 97 q 407 69 347 69 l 418 69 q 535 87 490 69 q 610 142 579 104 q 675 250 642 181 z "},"M":{"ha":1246,"x_min":-39,"x_max":1239,"o":"m 1128 724 q 1093 235 1111 418 q 1089 161 1089 192 q 1104 91 1089 110 q 1161 63 1119 72 q 1164 -4 1167 38 q 983 0 1118 0 q 804 -4 856 0 q 817 63 804 32 q 887 85 864 69 q 920 133 910 100 q 936 233 931 165 q 971 701 960 483 q 568 -6 788 353 q 503 -12 546 -12 q 303 713 415 356 q 192 279 249 482 q 165 143 165 182 q 185 88 165 106 q 249 63 204 71 q 251 -4 254 36 q 108 0 197 0 q -39 -4 21 0 q -26 63 -39 36 q 32 92 11 72 q 69 150 53 111 q 111 269 86 189 q 239 751 183 510 q 249 815 249 797 q 231 859 249 846 q 171 876 214 872 q 168 913 168 889 q 169 943 168 932 q 289 939 213 939 q 403 943 364 939 q 608 197 524 550 q 1022 943 819 553 q 1128 939 1068 939 q 1239 943 1200 939 q 1228 876 1239 904 q 1170 857 1190 871 q 1141 812 1150 843 q 1128 724 1132 781 z "},"Ṃ":{"ha":1246,"x_min":-39,"x_max":1239,"o":"m 1128 724 q 1093 235 1111 418 q 1089 161 1089 192 q 1104 91 1089 110 q 1161 63 1119 72 q 1164 -4 1167 38 q 983 0 1118 0 q 804 -4 856 0 q 817 63 804 32 q 887 85 864 69 q 920 133 910 100 q 936 233 931 165 q 971 701 960 483 q 568 -6 788 353 q 503 -12 546 -12 q 303 713 415 356 q 192 279 249 482 q 165 143 165 182 q 185 88 165 106 q 249 63 204 71 q 251 -4 254 36 q 108 0 197 0 q -39 -4 21 0 q -26 63 -39 36 q 32 92 11 72 q 69 150 53 111 q 111 269 86 189 q 239 751 183 510 q 249 815 249 797 q 231 859 249 846 q 171 876 214 872 q 168 913 168 889 q 169 943 168 932 q 289 939 213 939 q 403 943 364 939 q 608 197 524 550 q 1022 943 819 553 q 1128 939 1068 939 q 1239 943 1200 939 q 1228 876 1239 904 q 1170 857 1190 871 q 1141 812 1150 843 q 1128 724 1132 781 m 476 -303 q 420 -284 440 -303 q 400 -232 400 -265 q 401 -215 400 -221 q 435 -149 408 -174 q 500 -124 461 -124 q 553 -142 532 -124 q 575 -196 575 -160 q 548 -272 575 -242 q 476 -303 521 -303 z "},"N":{"ha":946,"x_min":29,"x_max":1013,"o":"m 871 939 q 1013 943 971 939 q 999 876 1010 901 q 947 845 965 867 q 916 785 928 824 q 892 672 904 746 l 774 -4 q 706 -12 751 -12 q 324 715 526 347 l 244 261 q 232 157 232 183 q 251 93 232 114 q 319 63 271 72 q 324 25 324 46 q 322 -4 324 6 q 168 0 265 0 q 29 -4 90 0 q 40 63 31 31 q 101 87 78 69 q 138 142 124 104 q 165 249 153 179 l 265 818 l 258 831 q 228 865 244 856 q 176 876 213 874 q 172 914 172 893 q 174 943 172 933 q 271 939 221 939 q 378 943 336 939 q 743 254 565 611 l 817 685 q 828 781 828 747 q 808 846 828 825 q 740 876 789 867 q 736 913 736 893 q 739 943 736 921 q 871 939 782 939 z "},"Ǌ":{"ha":1324,"x_min":29,"x_max":1389,"o":"m 871 939 q 1013 943 971 939 q 999 876 1010 901 q 947 845 965 867 q 916 785 928 824 q 892 672 904 746 l 774 -4 q 706 -12 751 -12 q 324 715 526 347 l 244 261 q 232 157 232 183 q 251 93 232 114 q 319 63 271 72 q 324 25 324 46 q 322 -4 324 6 q 168 0 265 0 q 29 -4 90 0 q 40 63 31 31 q 101 87 78 69 q 138 142 124 104 q 165 249 153 179 l 265 818 l 258 831 q 228 865 244 856 q 176 876 213 874 q 172 914 172 893 q 174 943 172 933 q 271 939 221 939 q 378 943 336 939 q 743 254 565 611 l 817 685 q 828 781 828 747 q 808 846 828 825 q 740 876 789 867 q 736 913 736 893 q 739 943 736 921 q 871 939 782 939 m 1031 943 q 1204 939 1074 939 q 1389 943 1325 939 q 1376 876 1386 901 q 1317 858 1338 869 q 1286 820 1297 846 q 1265 742 1275 794 l 1164 168 q 1113 -47 1140 33 q 1011 -203 1085 -126 q 796 -346 938 -281 q 771 -286 775 -329 q 916 -145 863 -224 q 992 61 969 -67 l 1114 757 q 1119 808 1119 796 q 1101 854 1119 838 q 1033 876 1082 871 q 1029 914 1029 893 q 1031 943 1029 933 z "},"Ń":{"ha":946,"x_min":29,"x_max":1013,"o":"m 871 939 q 1013 943 971 939 q 999 876 1010 901 q 947 845 965 867 q 916 785 928 824 q 892 672 904 746 l 774 -4 q 706 -12 751 -12 q 324 715 526 347 l 244 261 q 232 157 232 183 q 251 93 232 114 q 319 63 271 72 q 324 25 324 46 q 322 -4 324 6 q 168 0 265 0 q 29 -4 90 0 q 40 63 31 31 q 101 87 78 69 q 138 142 124 104 q 165 249 153 179 l 265 818 l 258 831 q 228 865 244 856 q 176 876 213 874 q 172 914 172 893 q 174 943 172 933 q 271 939 221 939 q 378 943 336 939 q 743 254 565 611 l 817 685 q 828 781 828 747 q 808 846 828 825 q 740 876 789 867 q 736 913 736 893 q 739 943 736 921 q 871 939 782 939 m 600 1013 q 536 1039 563 1017 q 606 1134 575 1085 q 651 1217 636 1183 q 710 1221 681 1221 q 810 1203 774 1221 q 600 1013 700 1113 z "},"Ň":{"ha":946,"x_min":29,"x_max":1013,"o":"m 871 939 q 1013 943 971 939 q 999 876 1010 901 q 947 845 965 867 q 916 785 928 824 q 892 672 904 746 l 774 -4 q 706 -12 751 -12 q 324 715 526 347 l 244 261 q 232 157 232 183 q 251 93 232 114 q 319 63 271 72 q 324 25 324 46 q 322 -4 324 6 q 168 0 265 0 q 29 -4 90 0 q 40 63 31 31 q 101 87 78 69 q 138 142 124 104 q 165 249 153 179 l 265 818 l 258 831 q 228 865 244 856 q 176 876 213 874 q 172 914 172 893 q 174 943 172 933 q 271 939 221 939 q 378 943 336 939 q 743 254 565 611 l 817 685 q 828 781 828 747 q 808 846 828 825 q 740 876 789 867 q 736 913 736 893 q 739 943 736 921 q 871 939 782 939 m 578 1017 q 406 1185 497 1115 q 447 1231 413 1225 q 631 1136 525 1185 q 819 1226 731 1171 q 864 1183 850 1215 q 636 1025 729 1100 q 592 1015 610 1015 l 578 1017 z "},"Ņ":{"ha":946,"x_min":29,"x_max":1013,"o":"m 871 939 q 1013 943 971 939 q 999 876 1010 901 q 947 845 965 867 q 916 785 928 824 q 892 672 904 746 l 774 -4 q 706 -12 751 -12 q 324 715 526 347 l 244 261 q 232 157 232 183 q 251 93 232 114 q 319 63 271 72 q 324 25 324 46 q 322 -4 324 6 q 168 0 265 0 q 29 -4 90 0 q 40 63 31 31 q 101 87 78 69 q 138 142 124 104 q 165 249 153 179 l 265 818 l 258 831 q 228 865 244 856 q 176 876 213 874 q 172 914 172 893 q 174 943 172 933 q 271 939 221 939 q 378 943 336 939 q 743 254 565 611 l 817 685 q 828 781 828 747 q 808 846 828 825 q 740 876 789 867 q 736 913 736 893 q 739 943 736 921 q 871 939 782 939 m 344 -396 q 306 -361 314 -385 q 367 -294 344 -328 q 390 -235 390 -260 q 340 -192 390 -199 q 367 -100 338 -139 q 496 -58 442 -89 q 535 -126 535 -72 q 532 -156 535 -136 q 469 -287 519 -226 q 344 -396 418 -347 z "},"Ṅ":{"ha":946,"x_min":29,"x_max":1013,"o":"m 871 939 q 1013 943 971 939 q 999 876 1010 901 q 947 845 965 867 q 916 785 928 824 q 892 672 904 746 l 774 -4 q 706 -12 751 -12 q 324 715 526 347 l 244 261 q 232 157 232 183 q 251 93 232 114 q 319 63 271 72 q 324 25 324 46 q 322 -4 324 6 q 168 0 265 0 q 29 -4 90 0 q 40 63 31 31 q 101 87 78 69 q 138 142 124 104 q 165 249 153 179 l 265 818 l 258 831 q 228 865 244 856 q 176 876 213 874 q 172 914 172 893 q 174 943 172 933 q 271 939 221 939 q 378 943 336 939 q 743 254 565 611 l 817 685 q 828 781 828 747 q 808 846 828 825 q 740 876 789 867 q 736 913 736 893 q 739 943 736 921 q 871 939 782 939 m 614 1000 q 560 1019 579 1000 q 540 1069 540 1038 q 569 1141 540 1114 q 642 1168 597 1168 q 695 1149 675 1168 q 715 1099 715 1131 q 688 1027 715 1054 q 614 1000 660 1000 z "},"Ṇ":{"ha":946,"x_min":29,"x_max":1013,"o":"m 871 939 q 1013 943 971 939 q 999 876 1010 901 q 947 845 965 867 q 916 785 928 824 q 892 672 904 746 l 774 -4 q 706 -12 751 -12 q 324 715 526 347 l 244 261 q 232 157 232 183 q 251 93 232 114 q 319 63 271 72 q 324 25 324 46 q 322 -4 324 6 q 168 0 265 0 q 29 -4 90 0 q 40 63 31 31 q 101 87 78 69 q 138 142 124 104 q 165 249 153 179 l 265 818 l 258 831 q 228 865 244 856 q 176 876 213 874 q 172 914 172 893 q 174 943 172 933 q 271 939 221 939 q 378 943 336 939 q 743 254 565 611 l 817 685 q 828 781 828 747 q 808 846 828 825 q 740 876 789 867 q 736 913 736 893 q 739 943 736 921 q 871 939 782 939 m 419 -303 q 363 -284 383 -303 q 343 -232 343 -265 q 344 -215 343 -221 q 378 -149 351 -174 q 443 -124 404 -124 q 497 -142 475 -124 q 518 -196 518 -160 q 491 -272 518 -242 q 419 -303 464 -303 z "},"Ŋ":{"ha":896,"x_min":101,"x_max":911,"o":"m 747 947 q 860 897 810 947 q 911 724 911 846 q 890 561 911 657 l 783 85 q 707 -118 760 -18 q 581 -282 654 -218 q 425 -346 507 -346 q 315 -296 353 -346 q 339 -194 315 -242 q 426 -210 376 -210 q 528 -183 492 -210 q 583 -106 564 -157 q 622 43 601 -56 l 731 558 q 751 714 751 653 q 735 793 751 767 q 682 819 718 819 q 542 749 619 819 q 401 555 465 678 q 310 285 338 432 l 257 0 l 101 0 l 229 682 q 243 779 243 756 q 226 817 243 808 q 157 826 208 826 q 167 889 157 869 q 276 912 207 892 q 382 950 344 932 q 410 927 401 942 q 418 888 418 913 q 414 843 418 871 q 378 684 403 763 q 335 564 353 606 l 335 563 l 367 631 q 463 771 397 696 q 605 897 528 846 q 747 947 682 947 z "},"Ɲ":{"ha":1022,"x_min":-239,"x_max":1090,"o":"m 956 939 q 1090 943 1035 939 q 1069 876 1082 899 q 1017 856 1038 874 q 981 797 996 839 q 950 678 965 756 l 817 -4 q 747 -12 792 -12 l 329 722 l 201 67 q 131 -144 179 -50 q 14 -292 82 -237 q -135 -346 -54 -346 q -237 -307 -204 -346 q -231 -253 -239 -286 q -212 -199 -224 -219 q -119 -210 -164 -210 q 124 58 72 -210 l 272 822 l 267 833 q 238 865 254 857 q 185 876 222 872 q 190 943 183 907 q 306 939 233 939 q 408 943 368 939 l 792 256 l 874 678 q 889 793 889 763 q 872 854 889 833 q 813 876 854 875 q 817 943 813 914 q 956 939 878 939 z "},"ǋ":{"ha":1286,"x_min":29,"x_max":1310,"o":"m 871 939 q 1013 943 971 939 q 999 876 1010 901 q 947 845 965 867 q 916 785 928 824 q 892 672 904 746 l 774 -4 q 706 -12 751 -12 q 324 715 526 347 l 244 261 q 232 157 232 183 q 251 93 232 114 q 319 63 271 72 q 324 25 324 46 q 322 -4 324 6 q 168 0 265 0 q 29 -4 90 0 q 40 63 31 31 q 101 87 78 69 q 138 142 124 104 q 165 249 153 179 l 265 818 l 258 831 q 228 865 244 856 q 176 876 213 874 q 172 914 172 893 q 174 943 172 933 q 271 939 221 939 q 378 943 336 939 q 743 254 565 611 l 817 685 q 828 781 828 747 q 808 846 828 825 q 740 876 789 867 q 736 913 736 893 q 739 943 736 921 q 871 939 782 939 m 1203 788 q 1151 806 1169 788 q 1133 856 1133 824 q 1135 876 1133 869 q 1171 942 1143 918 q 1238 967 1199 967 q 1290 948 1271 967 q 1310 897 1310 929 q 1280 818 1310 849 q 1203 788 1250 788 m 810 -346 q 785 -289 786 -325 q 935 -137 881 -224 q 1013 71 990 -50 l 1078 425 q 1085 482 1085 464 q 1067 521 1085 511 q 1001 531 1049 531 q 1011 592 999 567 q 1109 613 1051 594 q 1200 649 1167 631 q 1235 619 1225 635 q 1244 569 1244 603 q 1231 456 1244 529 l 1168 114 q 1052 -172 1135 -67 q 810 -346 969 -278 z "},"Ṉ":{"ha":946,"x_min":29,"x_max":1013,"o":"m 871 939 q 1013 943 971 939 q 999 876 1010 901 q 947 845 965 867 q 916 785 928 824 q 892 672 904 746 l 774 -4 q 706 -12 751 -12 q 324 715 526 347 l 244 261 q 232 157 232 183 q 251 93 232 114 q 319 63 271 72 q 324 25 324 46 q 322 -4 324 6 q 168 0 265 0 q 29 -4 90 0 q 40 63 31 31 q 101 87 78 69 q 138 142 124 104 q 165 249 153 179 l 265 818 l 258 831 q 228 865 244 856 q 176 876 213 874 q 172 914 172 893 q 174 943 172 933 q 271 939 221 939 q 378 943 336 939 q 743 254 565 611 l 817 685 q 828 781 828 747 q 808 846 828 825 q 740 876 789 867 q 736 913 736 893 q 739 943 736 921 q 871 939 782 939 m 182 -244 q 185 -209 182 -229 q 194 -176 188 -189 l 682 -176 q 669 -239 682 -208 q 182 -244 371 -239 z "},"Ñ":{"ha":946,"x_min":29,"x_max":1013,"o":"m 871 939 q 1013 943 971 939 q 999 876 1010 901 q 947 845 965 867 q 916 785 928 824 q 892 672 904 746 l 774 -4 q 706 -12 751 -12 q 324 715 526 347 l 244 261 q 232 157 232 183 q 251 93 232 114 q 319 63 271 72 q 324 25 324 46 q 322 -4 324 6 q 168 0 265 0 q 29 -4 90 0 q 40 63 31 31 q 101 87 78 69 q 138 142 124 104 q 165 249 153 179 l 265 818 l 258 831 q 228 865 244 856 q 176 876 213 874 q 172 914 172 893 q 174 943 172 933 q 271 939 221 939 q 378 943 336 939 q 743 254 565 611 l 817 685 q 828 781 828 747 q 808 846 828 825 q 740 876 789 867 q 736 913 736 893 q 739 943 736 921 q 871 939 782 939 m 700 1036 q 653 1043 674 1036 q 603 1064 632 1050 q 582 1073 599 1065 q 550 1084 565 1081 q 521 1088 535 1088 q 410 1040 472 1088 q 394 1104 390 1065 q 568 1185 476 1185 q 669 1157 614 1185 q 709 1141 693 1146 q 743 1136 725 1136 q 831 1178 783 1136 q 874 1140 864 1163 q 700 1036 794 1036 z "},"O":{"ha":1029,"x_min":79,"x_max":1011,"o":"m 481 -12 q 269 38 360 -12 q 128 179 178 88 q 79 393 79 271 q 92 515 79 451 q 189 739 115 639 q 372 895 263 839 q 607 951 481 951 q 817 905 725 951 q 960 768 908 858 q 1011 553 1011 678 q 997 421 1011 500 q 902 200 974 299 q 722 44 831 101 q 481 -12 613 -12 m 503 56 q 717 157 631 56 q 833 422 803 258 q 844 542 844 489 q 812 720 844 643 q 719 840 779 797 q 583 883 660 883 q 438 836 506 883 q 324 708 371 789 q 258 526 278 626 q 244 390 244 458 q 313 148 244 240 q 503 56 381 56 z "},"Ó":{"ha":1029,"x_min":79,"x_max":1011,"o":"m 481 -12 q 269 38 360 -12 q 128 179 178 88 q 79 393 79 271 q 92 515 79 451 q 189 739 115 639 q 372 895 263 839 q 607 951 481 951 q 817 905 725 951 q 960 768 908 858 q 1011 553 1011 678 q 997 421 1011 500 q 902 200 974 299 q 722 44 831 101 q 481 -12 613 -12 m 503 56 q 717 157 631 56 q 833 422 803 258 q 844 542 844 489 q 812 720 844 643 q 719 840 779 797 q 583 883 660 883 q 438 836 506 883 q 324 708 371 789 q 258 526 278 626 q 244 390 244 458 q 313 148 244 240 q 503 56 381 56 m 617 1013 q 553 1039 579 1017 q 622 1134 592 1085 q 668 1217 653 1183 q 726 1221 697 1221 q 826 1203 790 1221 q 617 1013 717 1113 z "},"Ŏ":{"ha":1029,"x_min":79,"x_max":1011,"o":"m 481 -12 q 269 38 360 -12 q 128 179 178 88 q 79 393 79 271 q 92 515 79 451 q 189 739 115 639 q 372 895 263 839 q 607 951 481 951 q 817 905 725 951 q 960 768 908 858 q 1011 553 1011 678 q 997 421 1011 500 q 902 200 974 299 q 722 44 831 101 q 481 -12 613 -12 m 503 56 q 717 157 631 56 q 833 422 803 258 q 844 542 844 489 q 812 720 844 643 q 719 840 779 797 q 583 883 660 883 q 438 836 506 883 q 324 708 371 789 q 258 526 278 626 q 244 390 244 458 q 313 148 244 240 q 503 56 381 56 m 614 1011 q 466 1049 517 1011 q 415 1158 415 1086 q 419 1204 415 1179 q 493 1217 458 1221 q 533 1138 492 1167 q 644 1110 574 1110 q 765 1138 715 1110 q 828 1217 814 1167 q 846 1218 833 1218 q 886 1210 871 1218 q 798 1063 868 1114 q 614 1011 728 1011 z "},"Ǒ":{"ha":1029,"x_min":79,"x_max":1011,"o":"m 481 -12 q 269 38 360 -12 q 128 179 178 88 q 79 393 79 271 q 92 515 79 451 q 189 739 115 639 q 372 895 263 839 q 607 951 481 951 q 817 905 725 951 q 960 768 908 858 q 1011 553 1011 678 q 997 421 1011 500 q 902 200 974 299 q 722 44 831 101 q 481 -12 613 -12 m 503 56 q 717 157 631 56 q 833 422 803 258 q 844 542 844 489 q 812 720 844 643 q 719 840 779 797 q 583 883 660 883 q 438 836 506 883 q 324 708 371 789 q 258 526 278 626 q 244 390 244 458 q 313 148 244 240 q 503 56 381 56 m 596 1017 q 424 1185 515 1115 q 465 1231 431 1225 q 649 1136 543 1185 q 838 1226 749 1171 q 882 1183 868 1215 q 654 1025 747 1100 q 610 1015 628 1015 l 596 1017 z "},"Ô":{"ha":1029,"x_min":79,"x_max":1011,"o":"m 481 -12 q 269 38 360 -12 q 128 179 178 88 q 79 393 79 271 q 92 515 79 451 q 189 739 115 639 q 372 895 263 839 q 607 951 481 951 q 817 905 725 951 q 960 768 908 858 q 1011 553 1011 678 q 997 421 1011 500 q 902 200 974 299 q 722 44 831 101 q 481 -12 613 -12 m 503 56 q 717 157 631 56 q 833 422 803 258 q 844 542 844 489 q 812 720 844 643 q 719 840 779 797 q 583 883 660 883 q 438 836 506 883 q 324 708 371 789 q 258 526 278 626 q 244 390 244 458 q 313 148 244 240 q 503 56 381 56 m 460 1011 q 440 1040 447 1021 q 433 1074 432 1058 q 650 1222 518 1119 q 667 1224 656 1224 q 714 1214 693 1224 q 869 1051 775 1144 q 848 1029 863 1038 q 815 1018 833 1021 q 647 1104 728 1074 q 460 1011 576 1076 z "},"Ố":{"ha":1029,"x_min":79,"x_max":1044,"o":"m 481 -12 q 269 38 360 -12 q 128 179 178 88 q 79 393 79 271 q 92 515 79 451 q 189 739 115 639 q 372 895 263 839 q 607 951 481 951 q 817 905 725 951 q 960 768 908 858 q 1011 553 1011 678 q 997 421 1011 500 q 902 200 974 299 q 722 44 831 101 q 481 -12 613 -12 m 503 56 q 717 157 631 56 q 833 422 803 258 q 844 542 844 489 q 812 720 844 643 q 719 840 779 797 q 583 883 660 883 q 438 836 506 883 q 324 708 371 789 q 258 526 278 626 q 244 390 244 458 q 313 148 244 240 q 503 56 381 56 m 854 1186 q 797 1210 821 1189 q 860 1294 832 1250 q 901 1369 888 1338 q 954 1374 928 1374 q 1044 1357 1008 1374 q 854 1186 963 1289 m 460 1011 q 440 1040 447 1021 q 433 1074 433 1058 q 651 1222 522 1121 q 667 1224 657 1224 q 714 1214 693 1224 q 869 1051 775 1144 q 848 1029 863 1038 q 817 1018 833 1021 q 647 1104 731 1072 q 460 1011 586 1081 z "},"Ộ":{"ha":1029,"x_min":79,"x_max":1011,"o":"m 481 -12 q 269 38 360 -12 q 128 179 178 88 q 79 393 79 271 q 92 515 79 451 q 189 739 115 639 q 372 895 263 839 q 607 951 481 951 q 817 905 725 951 q 960 768 908 858 q 1011 553 1011 678 q 997 421 1011 500 q 902 200 974 299 q 722 44 831 101 q 481 -12 613 -12 m 503 56 q 717 157 631 56 q 833 422 803 258 q 844 542 844 489 q 812 720 844 643 q 719 840 779 797 q 583 883 660 883 q 438 836 506 883 q 324 708 371 789 q 258 526 278 626 q 244 390 244 458 q 313 148 244 240 q 503 56 381 56 m 429 -303 q 373 -284 393 -303 q 353 -232 353 -265 q 354 -215 353 -221 q 388 -149 361 -174 q 453 -124 414 -124 q 506 -142 485 -124 q 528 -196 528 -160 q 501 -272 528 -242 q 429 -303 474 -303 m 460 1011 q 440 1040 447 1021 q 433 1074 432 1058 q 650 1222 518 1119 q 667 1224 656 1224 q 714 1214 693 1224 q 869 1051 775 1144 q 848 1029 863 1038 q 815 1018 833 1021 q 647 1104 728 1074 q 460 1011 576 1076 z "},"Ồ":{"ha":1029,"x_min":79,"x_max":1011,"o":"m 481 -12 q 269 38 360 -12 q 128 179 178 88 q 79 393 79 271 q 92 515 79 451 q 189 739 115 639 q 372 895 263 839 q 607 951 481 951 q 817 905 725 951 q 960 768 908 858 q 1011 553 1011 678 q 997 421 1011 500 q 902 200 974 299 q 722 44 831 101 q 481 -12 613 -12 m 503 56 q 717 157 631 56 q 833 422 803 258 q 844 542 844 489 q 812 720 844 643 q 719 840 779 797 q 583 883 660 883 q 438 836 506 883 q 324 708 371 789 q 258 526 278 626 q 244 390 244 458 q 313 148 244 240 q 503 56 381 56 z "},"Ổ":{"ha":1029,"x_min":79,"x_max":1013,"o":"m 481 -12 q 269 38 360 -12 q 128 179 178 88 q 79 393 79 271 q 92 515 79 451 q 189 739 115 639 q 372 895 263 839 q 607 951 481 951 q 817 905 725 951 q 960 768 908 858 q 1011 553 1011 678 q 997 421 1011 500 q 902 200 974 299 q 722 44 831 101 q 481 -12 613 -12 m 503 56 q 717 157 631 56 q 833 422 803 258 q 844 542 844 489 q 812 720 844 643 q 719 840 779 797 q 583 883 660 883 q 438 836 506 883 q 324 708 371 789 q 258 526 278 626 q 244 390 244 458 q 313 148 244 240 q 503 56 381 56 z "},"Ỗ":{"ha":1029,"x_min":79,"x_max":1011,"o":"m 481 -12 q 269 38 360 -12 q 128 179 178 88 q 79 393 79 271 q 92 515 79 451 q 189 739 115 639 q 372 895 263 839 q 607 951 481 951 q 817 905 725 951 q 960 768 908 858 q 1011 553 1011 678 q 997 421 1011 500 q 902 200 974 299 q 722 44 831 101 q 481 -12 613 -12 m 503 56 q 717 157 631 56 q 833 422 803 258 q 844 542 844 489 q 812 720 844 643 q 719 840 779 797 q 583 883 660 883 q 438 836 506 883 q 324 708 371 789 q 258 526 278 626 q 244 390 244 458 q 313 148 244 240 q 503 56 381 56 m 460 1011 q 440 1040 447 1021 q 433 1074 432 1058 q 650 1222 518 1119 q 667 1224 656 1224 q 714 1214 693 1224 q 869 1051 775 1144 q 848 1029 863 1038 q 815 1018 833 1021 q 647 1104 728 1074 q 460 1011 576 1076 m 771 1293 q 724 1300 744 1293 q 674 1321 703 1307 q 653 1330 669 1322 q 621 1341 636 1338 q 592 1344 606 1344 q 481 1297 543 1344 q 465 1361 461 1322 q 639 1442 547 1442 q 740 1414 685 1442 q 780 1398 764 1403 q 814 1393 796 1393 q 901 1435 854 1393 q 944 1397 935 1419 q 771 1293 865 1293 z "},"Ȍ":{"ha":1029,"x_min":79,"x_max":1011,"o":"m 481 -12 q 269 38 360 -12 q 128 179 178 88 q 79 393 79 271 q 92 515 79 451 q 189 739 115 639 q 372 895 263 839 q 607 951 481 951 q 817 905 725 951 q 960 768 908 858 q 1011 553 1011 678 q 997 421 1011 500 q 902 200 974 299 q 722 44 831 101 q 481 -12 613 -12 m 503 56 q 717 157 631 56 q 833 422 803 258 q 844 542 844 489 q 812 720 844 643 q 719 840 779 797 q 583 883 660 883 q 438 836 506 883 q 324 708 371 789 q 258 526 278 626 q 244 390 244 458 q 313 148 244 240 q 503 56 381 56 m 528 1007 q 404 1183 464 1111 q 481 1196 435 1196 q 539 1190 515 1196 l 550 1149 q 594 1003 571 1065 q 528 1007 568 1001 m 747 1007 q 625 1185 675 1124 q 699 1197 656 1197 q 758 1190 726 1197 l 769 1149 q 814 1003 790 1065 q 747 1007 788 1001 z "},"Ö":{"ha":1029,"x_min":79,"x_max":1011,"o":"m 481 -12 q 269 38 360 -12 q 128 179 178 88 q 79 393 79 271 q 92 515 79 451 q 189 739 115 639 q 372 895 263 839 q 607 951 481 951 q 817 905 725 951 q 960 768 908 858 q 1011 553 1011 678 q 997 421 1011 500 q 902 200 974 299 q 722 44 831 101 q 481 -12 613 -12 m 503 56 q 717 157 631 56 q 833 422 803 258 q 844 542 844 489 q 812 720 844 643 q 719 840 779 797 q 583 883 660 883 q 438 836 506 883 q 324 708 371 789 q 258 526 278 626 q 244 390 244 458 q 313 148 244 240 q 503 56 381 56 m 500 1014 q 448 1034 467 1014 q 429 1090 429 1054 q 431 1113 429 1104 q 456 1160 435 1143 q 513 1178 478 1178 q 567 1160 547 1178 q 586 1111 586 1142 q 583 1086 586 1103 q 555 1033 576 1051 q 500 1014 533 1014 m 781 1015 q 726 1035 746 1015 q 707 1088 707 1054 q 730 1154 707 1131 q 796 1178 753 1178 q 848 1159 829 1178 q 867 1108 867 1140 q 844 1040 867 1064 q 781 1015 821 1015 z "},"Ȫ":{"ha":1029,"x_min":79,"x_max":1011,"o":"m 481 -12 q 269 38 360 -12 q 128 179 178 88 q 79 393 79 271 q 92 515 79 451 q 189 739 115 639 q 372 895 263 839 q 607 951 481 951 q 817 905 725 951 q 960 768 908 858 q 1011 553 1011 678 q 997 421 1011 500 q 902 200 974 299 q 722 44 831 101 q 481 -12 613 -12 m 503 56 q 717 157 631 56 q 833 422 803 258 q 844 542 844 489 q 812 720 844 643 q 719 840 779 797 q 583 883 660 883 q 438 836 506 883 q 324 708 371 789 q 258 526 278 626 q 244 390 244 458 q 313 148 244 240 q 503 56 381 56 m 500 1014 q 448 1034 467 1014 q 429 1090 429 1054 q 431 1113 429 1104 q 456 1160 435 1143 q 513 1178 478 1178 q 567 1160 547 1178 q 586 1111 586 1142 q 583 1086 586 1103 q 555 1033 576 1051 q 500 1014 533 1014 m 781 1015 q 726 1035 746 1015 q 707 1088 707 1054 q 730 1154 707 1131 q 796 1178 753 1178 q 848 1159 829 1178 q 867 1108 867 1140 q 844 1040 867 1064 q 781 1015 821 1015 m 431 1272 q 433 1308 431 1288 q 443 1340 436 1328 l 931 1340 q 918 1278 931 1311 q 431 1272 619 1278 z "},"Ȱ":{"ha":1029,"x_min":79,"x_max":1011,"o":"m 481 -12 q 269 38 360 -12 q 128 179 178 88 q 79 393 79 271 q 92 515 79 451 q 189 739 115 639 q 372 895 263 839 q 607 951 481 951 q 817 905 725 951 q 960 768 908 858 q 1011 553 1011 678 q 997 421 1011 500 q 902 200 974 299 q 722 44 831 101 q 481 -12 613 -12 m 503 56 q 717 157 631 56 q 833 422 803 258 q 844 542 844 489 q 812 720 844 643 q 719 840 779 797 q 583 883 660 883 q 438 836 506 883 q 324 708 371 789 q 258 526 278 626 q 244 390 244 458 q 313 148 244 240 q 503 56 381 56 m 631 1000 q 576 1019 596 1000 q 557 1069 557 1038 q 585 1141 557 1114 q 658 1168 614 1168 q 712 1149 692 1168 q 732 1099 732 1131 q 704 1027 732 1054 q 631 1000 676 1000 m 440 1233 q 443 1269 440 1249 q 453 1301 446 1289 l 940 1301 q 928 1239 940 1272 q 440 1233 629 1239 z "},"Ọ":{"ha":1029,"x_min":79,"x_max":1011,"o":"m 481 -12 q 269 38 360 -12 q 128 179 178 88 q 79 393 79 271 q 92 515 79 451 q 189 739 115 639 q 372 895 263 839 q 607 951 481 951 q 817 905 725 951 q 960 768 908 858 q 1011 553 1011 678 q 997 421 1011 500 q 902 200 974 299 q 722 44 831 101 q 481 -12 613 -12 m 503 56 q 717 157 631 56 q 833 422 803 258 q 844 542 844 489 q 812 720 844 643 q 719 840 779 797 q 583 883 660 883 q 438 836 506 883 q 324 708 371 789 q 258 526 278 626 q 244 390 244 458 q 313 148 244 240 q 503 56 381 56 m 429 -303 q 373 -284 393 -303 q 353 -232 353 -265 q 354 -215 353 -221 q 388 -149 361 -174 q 453 -124 414 -124 q 506 -142 485 -124 q 528 -196 528 -160 q 501 -272 528 -242 q 429 -303 474 -303 z "},"Ò":{"ha":1029,"x_min":79,"x_max":1011,"o":"m 481 -12 q 269 38 360 -12 q 128 179 178 88 q 79 393 79 271 q 92 515 79 451 q 189 739 115 639 q 372 895 263 839 q 607 951 481 951 q 817 905 725 951 q 960 768 908 858 q 1011 553 1011 678 q 997 421 1011 500 q 902 200 974 299 q 722 44 831 101 q 481 -12 613 -12 m 503 56 q 717 157 631 56 q 833 422 803 258 q 844 542 844 489 q 812 720 844 643 q 719 840 779 797 q 583 883 660 883 q 438 836 506 883 q 324 708 371 789 q 258 526 278 626 q 244 390 244 458 q 313 148 244 240 q 503 56 381 56 m 690 1028 q 653 1022 671 1022 q 614 1028 636 1022 q 478 1201 568 1103 q 564 1215 519 1215 q 622 1208 590 1215 q 690 1028 650 1104 z "},"Ỏ":{"ha":1029,"x_min":79,"x_max":1011,"o":"m 481 -12 q 269 38 360 -12 q 128 179 178 88 q 79 393 79 271 q 92 515 79 451 q 189 739 115 639 q 372 895 263 839 q 607 951 481 951 q 817 905 725 951 q 960 768 908 858 q 1011 553 1011 678 q 997 421 1011 500 q 902 200 974 299 q 722 44 831 101 q 481 -12 613 -12 m 503 56 q 717 157 631 56 q 833 422 803 258 q 844 542 844 489 q 812 720 844 643 q 719 840 779 797 q 583 883 660 883 q 438 836 506 883 q 324 708 371 789 q 258 526 278 626 q 244 390 244 458 q 313 148 244 240 q 503 56 381 56 m 593 1015 q 586 1047 586 1032 q 601 1090 586 1075 q 644 1118 615 1104 q 676 1138 665 1131 q 690 1157 686 1144 q 692 1167 692 1161 q 661 1186 692 1186 q 581 1104 606 1186 q 540 1113 560 1108 q 511 1128 521 1118 q 518 1149 513 1133 q 525 1176 524 1164 q 526 1203 526 1189 q 675 1239 596 1239 q 764 1220 733 1239 q 794 1171 794 1201 q 775 1121 794 1139 q 719 1082 756 1103 q 681 1058 694 1068 q 664 1035 668 1049 q 662 1026 664 1031 q 661 1013 660 1021 q 633 1011 653 1011 q 593 1015 610 1011 z "},"Ơ":{"ha":1029,"x_min":79,"x_max":1042,"o":"m 1042 1026 q 993 920 1042 960 q 868 872 944 881 q 973 740 936 821 q 1010 551 1010 658 q 997 421 1010 490 q 902 200 974 299 q 722 44 831 101 q 481 -12 613 -12 q 269 38 360 -12 q 128 179 178 88 q 79 393 79 271 q 92 515 79 451 q 189 739 115 639 q 372 895 263 839 q 607 951 481 951 l 650 951 l 650 951 q 811 935 746 935 q 890 951 864 935 q 925 1010 915 968 q 928 1046 928 1032 q 924 1092 928 1067 q 969 1105 942 1100 q 1017 1107 997 1110 q 1042 1026 1042 1068 m 833 422 q 844 542 844 489 q 812 720 844 643 q 719 840 779 797 q 583 883 660 883 q 438 836 506 883 q 324 708 371 789 q 258 526 278 626 q 244 390 244 458 q 313 148 244 240 q 503 56 381 56 q 717 157 631 56 q 833 422 803 258 z "},"Ớ":{"ha":1029,"x_min":79,"x_max":1042,"o":"m 1042 1026 q 993 920 1042 960 q 868 872 944 881 q 973 740 936 821 q 1010 551 1010 658 q 997 421 1010 490 q 902 200 974 299 q 722 44 831 101 q 481 -12 613 -12 q 269 38 360 -12 q 128 179 178 88 q 79 393 79 271 q 92 515 79 451 q 189 739 115 639 q 372 895 263 839 q 607 951 481 951 l 650 951 l 650 951 q 811 935 746 935 q 890 951 864 935 q 925 1010 915 968 q 928 1046 928 1032 q 924 1092 928 1067 q 969 1105 942 1100 q 1017 1107 997 1110 q 1042 1026 1042 1068 m 833 422 q 844 542 844 489 q 812 720 844 643 q 719 840 779 797 q 583 883 660 883 q 438 836 506 883 q 324 708 371 789 q 258 526 278 626 q 244 390 244 458 q 313 148 244 240 q 503 56 381 56 q 717 157 631 56 q 833 422 803 258 m 617 1013 q 553 1039 579 1017 q 622 1134 592 1085 q 668 1217 653 1183 q 726 1221 697 1221 q 826 1203 790 1221 q 617 1013 717 1113 z "},"Ợ":{"ha":1029,"x_min":79,"x_max":1042,"o":"m 1042 1026 q 993 920 1042 960 q 868 872 944 881 q 973 740 936 821 q 1010 551 1010 658 q 997 421 1010 490 q 902 200 974 299 q 722 44 831 101 q 481 -12 613 -12 q 269 38 360 -12 q 128 179 178 88 q 79 393 79 271 q 92 515 79 451 q 189 739 115 639 q 372 895 263 839 q 607 951 481 951 l 650 951 l 650 951 q 811 935 746 935 q 890 951 864 935 q 925 1010 915 968 q 928 1046 928 1032 q 924 1092 928 1067 q 969 1105 942 1100 q 1017 1107 997 1110 q 1042 1026 1042 1068 m 833 422 q 844 542 844 489 q 812 720 844 643 q 719 840 779 797 q 583 883 660 883 q 438 836 506 883 q 324 708 371 789 q 258 526 278 626 q 244 390 244 458 q 313 148 244 240 q 503 56 381 56 q 717 157 631 56 q 833 422 803 258 m 429 -303 q 373 -284 393 -303 q 353 -232 353 -265 q 354 -215 353 -221 q 388 -149 361 -174 q 453 -124 414 -124 q 506 -142 485 -124 q 528 -196 528 -160 q 501 -272 528 -242 q 429 -303 474 -303 z "},"Ờ":{"ha":1029,"x_min":79,"x_max":1042,"o":"m 1042 1026 q 993 920 1042 960 q 868 872 944 881 q 973 740 936 821 q 1010 551 1010 658 q 997 421 1010 490 q 902 200 974 299 q 722 44 831 101 q 481 -12 613 -12 q 269 38 360 -12 q 128 179 178 88 q 79 393 79 271 q 92 515 79 451 q 189 739 115 639 q 372 895 263 839 q 607 951 481 951 l 650 951 l 650 951 q 811 935 746 935 q 890 951 864 935 q 925 1010 915 968 q 928 1046 928 1032 q 924 1092 928 1067 q 969 1105 942 1100 q 1017 1107 997 1110 q 1042 1026 1042 1068 m 833 422 q 844 542 844 489 q 812 720 844 643 q 719 840 779 797 q 583 883 660 883 q 438 836 506 883 q 324 708 371 789 q 258 526 278 626 q 244 390 244 458 q 313 148 244 240 q 503 56 381 56 q 717 157 631 56 q 833 422 803 258 m 690 1028 q 653 1022 671 1022 q 614 1028 636 1022 q 478 1201 568 1103 q 564 1215 519 1215 q 622 1208 590 1215 q 690 1028 650 1104 z "},"Ở":{"ha":1029,"x_min":79,"x_max":1042,"o":"m 1042 1026 q 993 920 1042 960 q 868 872 944 881 q 973 740 936 821 q 1010 551 1010 658 q 997 421 1010 490 q 902 200 974 299 q 722 44 831 101 q 481 -12 613 -12 q 269 38 360 -12 q 128 179 178 88 q 79 393 79 271 q 92 515 79 451 q 189 739 115 639 q 372 895 263 839 q 607 951 481 951 l 650 951 l 650 951 q 811 935 746 935 q 890 951 864 935 q 925 1010 915 968 q 928 1046 928 1032 q 924 1092 928 1067 q 969 1105 942 1100 q 1017 1107 997 1110 q 1042 1026 1042 1068 m 833 422 q 844 542 844 489 q 812 720 844 643 q 719 840 779 797 q 583 883 660 883 q 438 836 506 883 q 324 708 371 789 q 258 526 278 626 q 244 390 244 458 q 313 148 244 240 q 503 56 381 56 q 717 157 631 56 q 833 422 803 258 m 593 1015 q 586 1047 586 1032 q 601 1090 586 1075 q 644 1118 615 1104 q 676 1138 665 1131 q 690 1157 686 1144 q 692 1167 692 1161 q 661 1186 692 1186 q 581 1104 606 1186 q 540 1113 560 1108 q 511 1128 521 1118 q 518 1149 513 1133 q 525 1176 524 1164 q 526 1203 526 1189 q 675 1239 596 1239 q 764 1220 733 1239 q 794 1171 794 1201 q 775 1121 794 1139 q 719 1082 756 1103 q 681 1058 694 1068 q 664 1035 668 1049 q 662 1026 664 1031 q 661 1013 660 1021 q 633 1011 653 1011 q 593 1015 610 1011 z "},"Ỡ":{"ha":1029,"x_min":79,"x_max":1042,"o":"m 1042 1026 q 993 920 1042 960 q 868 872 944 881 q 973 740 936 821 q 1010 551 1010 658 q 997 421 1010 490 q 902 200 974 299 q 722 44 831 101 q 481 -12 613 -12 q 269 38 360 -12 q 128 179 178 88 q 79 393 79 271 q 92 515 79 451 q 189 739 115 639 q 372 895 263 839 q 607 951 481 951 l 650 951 l 650 951 q 811 935 746 935 q 890 951 864 935 q 925 1010 915 968 q 928 1046 928 1032 q 924 1092 928 1067 q 969 1105 942 1100 q 1017 1107 997 1110 q 1042 1026 1042 1068 m 833 422 q 844 542 844 489 q 812 720 844 643 q 719 840 779 797 q 583 883 660 883 q 438 836 506 883 q 324 708 371 789 q 258 526 278 626 q 244 390 244 458 q 313 148 244 240 q 503 56 381 56 q 717 157 631 56 q 833 422 803 258 m 718 1036 q 671 1043 692 1036 q 621 1064 650 1050 q 600 1073 617 1065 q 568 1084 583 1081 q 539 1088 553 1088 q 428 1040 490 1088 q 413 1104 408 1065 q 586 1185 494 1185 q 688 1157 632 1185 q 727 1141 711 1146 q 761 1136 743 1136 q 849 1178 801 1136 q 892 1140 882 1163 q 718 1036 813 1036 z "},"Ő":{"ha":1029,"x_min":79,"x_max":1011,"o":"m 481 -12 q 269 38 360 -12 q 128 179 178 88 q 79 393 79 271 q 92 515 79 451 q 189 739 115 639 q 372 895 263 839 q 607 951 481 951 q 817 905 725 951 q 960 768 908 858 q 1011 553 1011 678 q 997 421 1011 500 q 902 200 974 299 q 722 44 831 101 q 481 -12 613 -12 m 503 56 q 717 157 631 56 q 833 422 803 258 q 844 542 844 489 q 812 720 844 643 q 719 840 779 797 q 583 883 660 883 q 438 836 506 883 q 324 708 371 789 q 258 526 278 626 q 244 390 244 458 q 313 148 244 240 q 503 56 381 56 m 538 1019 q 472 1046 501 1024 q 541 1138 510 1090 q 589 1222 572 1186 q 647 1226 618 1226 q 747 1208 710 1226 q 538 1019 643 1122 m 768 1019 q 704 1046 733 1024 q 772 1138 742 1090 q 819 1222 803 1186 q 878 1226 849 1226 q 978 1208 942 1226 q 768 1019 890 1136 z "},"Ȏ":{"ha":1029,"x_min":79,"x_max":1011,"o":"m 481 -12 q 269 38 360 -12 q 128 179 178 88 q 79 393 79 271 q 92 515 79 451 q 189 739 115 639 q 372 895 263 839 q 607 951 481 951 q 817 905 725 951 q 960 768 908 858 q 1011 553 1011 678 q 997 421 1011 500 q 902 200 974 299 q 722 44 831 101 q 481 -12 613 -12 m 503 56 q 717 157 631 56 q 833 422 803 258 q 844 542 844 489 q 812 720 844 643 q 719 840 779 797 q 583 883 660 883 q 438 836 506 883 q 324 708 371 789 q 258 526 278 626 q 244 390 244 458 q 313 148 244 240 q 503 56 381 56 m 685 1208 q 833 1171 782 1208 q 883 1061 883 1133 q 879 1017 883 1040 q 806 1004 840 1000 q 766 1083 807 1054 q 654 1111 725 1111 q 534 1083 583 1111 q 471 1004 485 1054 q 451 1003 464 1003 q 413 1011 426 1003 q 501 1157 431 1106 q 685 1208 571 1208 z "},"Ō":{"ha":1029,"x_min":79,"x_max":1011,"o":"m 481 -12 q 269 38 360 -12 q 128 179 178 88 q 79 393 79 271 q 92 515 79 451 q 189 739 115 639 q 372 895 263 839 q 607 951 481 951 q 817 905 725 951 q 960 768 908 858 q 1011 553 1011 678 q 997 421 1011 500 q 902 200 974 299 q 722 44 831 101 q 481 -12 613 -12 m 503 56 q 717 157 631 56 q 833 422 803 258 q 844 542 844 489 q 812 720 844 643 q 719 840 779 797 q 583 883 660 883 q 438 836 506 883 q 324 708 371 789 q 258 526 278 626 q 244 390 244 458 q 313 148 244 240 q 503 56 381 56 m 397 1060 q 400 1095 397 1075 q 410 1128 403 1115 l 897 1128 q 885 1065 897 1099 q 397 1060 586 1065 z "},"Ṓ":{"ha":1029,"x_min":79,"x_max":1011,"o":"m 481 -12 q 269 38 360 -12 q 128 179 178 88 q 79 393 79 271 q 92 515 79 451 q 189 739 115 639 q 372 895 263 839 q 607 951 481 951 q 817 905 725 951 q 960 768 908 858 q 1011 553 1011 678 q 997 421 1011 500 q 902 200 974 299 q 722 44 831 101 q 481 -12 613 -12 m 503 56 q 717 157 631 56 q 833 422 803 258 q 844 542 844 489 q 812 720 844 643 q 719 840 779 797 q 583 883 660 883 q 438 836 506 883 q 324 708 371 789 q 258 526 278 626 q 244 390 244 458 q 313 148 244 240 q 503 56 381 56 m 397 1060 q 400 1095 397 1075 q 410 1128 403 1115 l 897 1128 q 885 1065 897 1099 q 397 1060 586 1065 m 654 1201 q 590 1228 617 1206 q 660 1323 629 1274 q 706 1406 690 1372 q 764 1410 735 1410 q 864 1392 828 1410 q 654 1201 754 1301 z "},"Ṑ":{"ha":1029,"x_min":79,"x_max":1011,"o":"m 481 -12 q 269 38 360 -12 q 128 179 178 88 q 79 393 79 271 q 92 515 79 451 q 189 739 115 639 q 372 895 263 839 q 607 951 481 951 q 817 905 725 951 q 960 768 908 858 q 1011 553 1011 678 q 997 421 1011 500 q 902 200 974 299 q 722 44 831 101 q 481 -12 613 -12 m 503 56 q 717 157 631 56 q 833 422 803 258 q 844 542 844 489 q 812 720 844 643 q 719 840 779 797 q 583 883 660 883 q 438 836 506 883 q 324 708 371 789 q 258 526 278 626 q 244 390 244 458 q 313 148 244 240 q 503 56 381 56 m 397 1060 q 400 1095 397 1075 q 410 1128 403 1115 l 897 1128 q 885 1065 897 1099 q 397 1060 586 1065 m 726 1217 q 689 1211 707 1211 q 650 1217 672 1211 q 514 1390 604 1292 q 600 1404 556 1404 q 658 1397 626 1404 q 726 1217 686 1293 z "},"Ǫ":{"ha":1029,"x_min":79,"x_max":1011,"o":"m 607 951 q 817 905 725 951 q 960 768 908 858 q 1011 553 1011 678 q 997 421 1011 500 q 882 175 969 282 q 665 19 794 68 q 565 -59 601 -12 q 529 -154 529 -106 q 548 -203 529 -185 q 600 -222 567 -222 q 644 -210 626 -222 q 672 -267 668 -233 q 564 -346 607 -303 q 533 -350 550 -350 q 432 -318 471 -350 q 393 -226 393 -286 q 517 -11 393 -106 q 481 -12 504 -12 q 269 38 360 -12 q 128 179 178 88 q 79 393 79 271 q 92 515 79 451 q 189 739 115 639 q 372 895 263 839 q 607 951 481 951 m 833 422 q 844 542 844 489 q 812 720 844 643 q 719 840 779 797 q 583 883 660 883 q 438 836 506 883 q 324 708 371 789 q 258 526 278 626 q 244 390 244 458 q 313 148 244 240 q 503 56 381 56 q 717 157 631 56 q 833 422 803 258 z "},"Ø":{"ha":1029,"x_min":78,"x_max":1011,"o":"m 975 882 l 919 825 q 1011 551 1011 718 q 997 419 1011 488 q 902 200 974 299 q 722 44 831 101 q 481 -12 613 -12 q 221 69 325 -12 l 169 13 l 147 -12 q 103 -2 122 -12 q 78 25 83 8 l 168 122 q 81 394 81 229 q 92 515 81 460 q 189 739 115 639 q 372 895 263 839 q 607 951 481 951 q 865 875 761 951 l 936 951 q 981 943 961 951 q 1011 919 1000 935 l 975 882 m 258 525 q 246 390 246 454 q 269 232 246 299 l 778 781 q 694 857 743 831 q 583 883 644 883 q 438 836 506 883 q 324 707 371 789 q 258 525 278 625 m 833 421 q 844 543 844 478 q 814 715 844 639 q 303 163 568 456 q 387 83 336 111 q 503 56 438 56 q 716 157 629 56 q 833 421 803 258 z "},"Ǿ":{"ha":1029,"x_min":78,"x_max":1011,"o":"m 975 882 l 919 825 q 1011 551 1011 718 q 997 419 1011 488 q 902 200 974 299 q 722 44 831 101 q 481 -12 613 -12 q 221 69 325 -12 l 169 13 l 147 -12 q 103 -2 122 -12 q 78 25 83 8 l 168 122 q 81 394 81 229 q 92 515 81 460 q 189 739 115 639 q 372 895 263 839 q 607 951 481 951 q 865 875 761 951 l 936 951 q 981 943 961 951 q 1011 919 1000 935 l 975 882 m 258 525 q 246 390 246 454 q 269 232 246 299 l 778 781 q 694 857 743 831 q 583 883 644 883 q 438 836 506 883 q 324 707 371 789 q 258 525 278 625 m 833 421 q 844 543 844 478 q 814 715 844 639 q 303 163 568 456 q 387 83 336 111 q 503 56 438 56 q 716 157 629 56 q 833 421 803 258 m 614 1013 q 550 1039 576 1017 q 619 1134 589 1085 q 665 1217 650 1183 q 724 1221 694 1221 q 824 1203 788 1221 q 614 1013 714 1113 z "},"Õ":{"ha":1029,"x_min":79,"x_max":1011,"o":"m 481 -12 q 269 38 360 -12 q 128 179 178 88 q 79 393 79 271 q 92 515 79 451 q 189 739 115 639 q 372 895 263 839 q 607 951 481 951 q 817 905 725 951 q 960 768 908 858 q 1011 553 1011 678 q 997 421 1011 500 q 902 200 974 299 q 722 44 831 101 q 481 -12 613 -12 m 503 56 q 717 157 631 56 q 833 422 803 258 q 844 542 844 489 q 812 720 844 643 q 719 840 779 797 q 583 883 660 883 q 438 836 506 883 q 324 708 371 789 q 258 526 278 626 q 244 390 244 458 q 313 148 244 240 q 503 56 381 56 m 718 1036 q 671 1043 692 1036 q 621 1064 650 1050 q 600 1073 617 1065 q 568 1084 583 1081 q 539 1088 553 1088 q 428 1040 490 1088 q 413 1104 408 1065 q 586 1185 494 1185 q 688 1157 632 1185 q 727 1141 711 1146 q 761 1136 743 1136 q 849 1178 801 1136 q 892 1140 882 1163 q 718 1036 813 1036 z "},"Ṍ":{"ha":1029,"x_min":79,"x_max":1011,"o":"m 481 -12 q 269 38 360 -12 q 128 179 178 88 q 79 393 79 271 q 92 515 79 451 q 189 739 115 639 q 372 895 263 839 q 607 951 481 951 q 817 905 725 951 q 960 768 908 858 q 1011 553 1011 678 q 997 421 1011 500 q 902 200 974 299 q 722 44 831 101 q 481 -12 613 -12 m 503 56 q 717 157 631 56 q 833 422 803 258 q 844 542 844 489 q 812 720 844 643 q 719 840 779 797 q 583 883 660 883 q 438 836 506 883 q 324 708 371 789 q 258 526 278 626 q 244 390 244 458 q 313 148 244 240 q 503 56 381 56 m 718 1036 q 671 1043 692 1036 q 621 1064 650 1050 q 600 1073 617 1065 q 568 1084 583 1081 q 539 1088 553 1088 q 428 1040 490 1088 q 413 1104 408 1065 q 586 1185 494 1185 q 688 1157 632 1185 q 727 1141 711 1146 q 761 1136 743 1136 q 849 1178 801 1136 q 892 1140 882 1163 q 718 1036 813 1036 m 664 1254 q 600 1281 626 1258 q 669 1376 639 1326 q 715 1458 700 1425 q 774 1463 744 1463 q 874 1444 838 1463 q 664 1254 764 1354 z "},"Ṏ":{"ha":1029,"x_min":79,"x_max":1011,"o":"m 481 -12 q 269 38 360 -12 q 128 179 178 88 q 79 393 79 271 q 92 515 79 451 q 189 739 115 639 q 372 895 263 839 q 607 951 481 951 q 817 905 725 951 q 960 768 908 858 q 1011 553 1011 678 q 997 421 1011 500 q 902 200 974 299 q 722 44 831 101 q 481 -12 613 -12 m 503 56 q 717 157 631 56 q 833 422 803 258 q 844 542 844 489 q 812 720 844 643 q 719 840 779 797 q 583 883 660 883 q 438 836 506 883 q 324 708 371 789 q 258 526 278 626 q 244 390 244 458 q 313 148 244 240 q 503 56 381 56 m 718 1036 q 671 1043 692 1036 q 621 1064 650 1050 q 600 1073 617 1065 q 568 1084 583 1081 q 539 1088 553 1088 q 428 1040 490 1088 q 413 1104 408 1065 q 586 1185 494 1185 q 688 1157 632 1185 q 727 1141 711 1146 q 761 1136 743 1136 q 849 1178 801 1136 q 892 1140 882 1163 q 718 1036 813 1036 m 546 1256 q 494 1276 513 1256 q 475 1332 475 1296 q 476 1354 475 1346 q 502 1402 481 1385 q 558 1419 524 1419 q 613 1401 593 1419 q 632 1353 632 1383 q 629 1328 632 1344 q 601 1274 622 1293 q 546 1256 579 1256 m 826 1257 q 772 1276 792 1257 q 753 1329 753 1296 q 776 1396 753 1372 q 842 1419 799 1419 q 894 1401 875 1419 q 913 1350 913 1382 q 890 1281 913 1306 q 826 1257 867 1257 z "},"Ȭ":{"ha":1029,"x_min":79,"x_max":1011,"o":"m 481 -12 q 269 38 360 -12 q 128 179 178 88 q 79 393 79 271 q 92 515 79 451 q 189 739 115 639 q 372 895 263 839 q 607 951 481 951 q 817 905 725 951 q 960 768 908 858 q 1011 553 1011 678 q 997 421 1011 500 q 902 200 974 299 q 722 44 831 101 q 481 -12 613 -12 m 503 56 q 717 157 631 56 q 833 422 803 258 q 844 542 844 489 q 812 720 844 643 q 719 840 779 797 q 583 883 660 883 q 438 836 506 883 q 324 708 371 789 q 258 526 278 626 q 244 390 244 458 q 313 148 244 240 q 503 56 381 56 m 718 1036 q 671 1043 692 1036 q 621 1064 650 1050 q 600 1073 617 1065 q 568 1084 583 1081 q 539 1088 553 1088 q 428 1040 490 1088 q 413 1104 408 1065 q 586 1185 494 1185 q 688 1157 632 1185 q 727 1141 711 1146 q 761 1136 743 1136 q 849 1178 801 1136 q 892 1140 882 1163 q 718 1036 813 1036 m 443 1301 q 446 1337 443 1317 q 456 1369 449 1357 l 943 1369 q 931 1307 943 1340 q 443 1301 632 1307 z "},"Œ":{"ha":1363,"x_min":78,"x_max":1382,"o":"m 1292 701 q 1276 801 1289 768 q 1224 852 1264 835 q 1099 869 1183 869 l 857 869 q 950 743 918 819 q 982 569 982 667 q 979 510 982 551 l 1003 510 q 1123 532 1088 510 q 1169 619 1158 554 q 1214 625 1203 625 q 1244 622 1222 625 q 1215 465 1226 544 q 1199 306 1203 375 q 1126 324 1150 310 q 1119 394 1129 369 q 1080 429 1108 418 q 996 440 1051 440 l 969 440 l 965 419 q 889 217 943 308 q 753 69 835 126 l 996 69 q 1119 89 1074 69 q 1193 144 1165 108 q 1253 249 1221 181 q 1310 218 1304 242 q 1286 129 1301 179 q 1254 -4 1261 36 q 935 0 1172 0 q 726 -6 860 0 q 488 -12 606 -12 l 482 -12 l 479 -12 l 472 -12 l 472 -12 q 257 43 346 -11 q 123 188 168 97 q 78 392 78 279 q 92 515 78 446 q 192 744 119 646 q 371 897 265 843 q 599 950 476 950 l 603 950 q 603 951 603 950 q 604 951 604 951 l 610 951 q 757 946 663 951 q 1003 939 910 939 q 1382 943 1272 939 q 1369 772 1369 850 q 1372 713 1369 749 q 1292 701 1336 700 m 811 421 q 824 556 824 492 q 758 794 824 706 q 582 883 693 883 q 376 783 461 883 q 258 525 290 682 q 244 389 244 460 q 311 149 244 243 q 500 56 378 56 q 703 155 624 56 q 811 421 782 254 z "},"P":{"ha":807,"x_min":36,"x_max":847,"o":"m 583 943 q 779 882 711 943 q 847 710 847 821 q 839 626 847 671 q 715 419 815 497 q 471 340 614 340 q 385 357 414 340 q 388 389 383 368 q 397 419 392 410 q 461 411 428 411 q 608 465 550 411 q 686 625 665 519 q 694 701 694 667 q 649 831 694 786 q 511 875 604 875 q 428 865 463 875 l 314 207 q 306 139 306 151 q 328 88 306 104 q 415 63 351 72 q 419 -4 422 40 q 232 0 349 0 q 36 -4 100 0 q 49 64 39 35 q 113 85 93 71 q 142 122 133 99 q 160 197 151 146 l 257 758 q 263 806 263 794 q 244 853 263 838 q 176 876 225 869 q 172 918 172 896 q 174 943 172 935 q 376 939 231 939 l 454 940 q 583 943 535 943 z "},"Þ":{"ha":833,"x_min":36,"x_max":817,"o":"m 550 751 q 751 692 686 751 q 817 536 817 633 q 811 479 817 518 q 751 348 799 410 q 627 248 704 286 q 451 210 550 210 q 360 229 388 210 q 375 289 357 261 q 439 279 397 279 q 580 326 521 279 q 658 478 639 372 q 664 531 664 514 q 618 647 664 606 q 478 689 572 689 q 396 679 436 689 l 311 188 q 306 135 306 146 q 328 85 306 101 q 415 63 351 69 q 419 21 419 44 q 418 -4 419 4 q 229 0 325 0 q 36 -4 118 0 q 50 63 39 38 q 108 78 89 68 q 139 113 128 89 q 158 188 150 136 l 256 753 q 261 804 261 781 q 242 854 261 839 q 175 876 224 869 q 172 915 172 901 q 174 943 172 933 q 350 939 256 939 q 531 943 442 939 q 517 876 528 901 q 460 858 479 869 q 428 823 440 847 q 408 750 417 799 l 550 751 z "},"Q":{"ha":1029,"x_min":79,"x_max":1040,"o":"m 1000 -158 q 1025 -179 1014 -164 q 1040 -211 1036 -194 q 969 -276 1017 -247 q 867 -304 921 -304 q 757 -275 800 -304 q 676 -181 714 -246 q 586 -62 633 -104 q 464 -12 539 -21 l 465 -12 q 261 42 349 -10 q 126 183 174 93 q 79 393 79 274 q 92 515 79 451 q 189 739 115 639 q 372 895 263 839 q 607 951 481 951 q 817 905 725 951 q 960 768 908 858 q 1011 551 1011 678 q 997 419 1011 499 q 873 162 969 272 q 635 10 776 51 q 847 -125 728 -21 q 905 -169 885 -158 q 944 -181 925 -181 q 975 -174 960 -181 q 1000 -158 990 -168 m 258 526 q 244 390 244 458 q 313 148 244 240 q 503 56 381 56 q 717 157 631 56 q 833 422 803 258 q 844 542 844 489 q 812 720 844 643 q 719 840 779 797 q 583 883 660 883 q 438 836 506 883 q 324 708 371 789 q 258 526 278 626 z "},"R":{"ha":914,"x_min":36,"x_max":850,"o":"m 807 133 q 850 82 833 118 q 768 11 810 35 q 674 -12 726 -12 q 583 28 614 -12 q 524 165 553 69 q 473 303 500 244 q 411 414 446 361 q 350 415 388 413 l 310 182 q 303 124 303 143 q 318 82 303 96 q 375 63 333 68 q 378 -4 381 36 q 208 0 306 0 q 36 -4 92 0 q 50 63 39 39 q 113 82 92 67 q 142 122 133 97 q 160 197 150 146 l 257 758 q 263 804 263 794 q 243 854 263 838 q 175 876 224 871 q 172 913 172 888 q 174 943 172 932 q 361 939 242 939 q 479 942 399 939 l 571 943 q 772 888 696 943 q 847 733 847 832 q 842 681 847 704 q 554 435 804 483 q 615 346 588 394 q 674 214 642 297 q 758 113 714 113 q 783 117 772 113 q 807 133 794 121 m 363 489 q 415 486 383 486 q 594 537 525 486 q 679 676 663 588 q 685 731 685 703 q 642 840 685 803 q 528 876 600 876 q 428 864 474 876 l 363 489 z "},"Ŕ":{"ha":914,"x_min":36,"x_max":850,"o":"m 807 133 q 850 82 833 118 q 768 11 810 35 q 674 -12 726 -12 q 583 28 614 -12 q 524 165 553 69 q 473 303 500 244 q 411 414 446 361 q 350 415 388 413 l 310 182 q 303 124 303 143 q 318 82 303 96 q 375 63 333 68 q 378 -4 381 36 q 208 0 306 0 q 36 -4 92 0 q 50 63 39 39 q 113 82 92 67 q 142 122 133 97 q 160 197 150 146 l 257 758 q 263 804 263 794 q 243 854 263 838 q 175 876 224 871 q 172 913 172 888 q 174 943 172 932 q 361 939 242 939 q 479 942 399 939 l 571 943 q 772 888 696 943 q 847 733 847 832 q 842 681 847 704 q 554 435 804 483 q 615 346 588 394 q 674 214 642 297 q 758 113 714 113 q 783 117 772 113 q 807 133 794 121 m 363 489 q 415 486 383 486 q 594 537 525 486 q 679 676 663 588 q 685 731 685 703 q 642 840 685 803 q 528 876 600 876 q 428 864 474 876 l 363 489 m 529 1013 q 465 1039 492 1017 q 535 1134 504 1085 q 581 1217 565 1183 q 639 1221 610 1221 q 739 1203 703 1221 q 529 1013 629 1113 z "},"Ř":{"ha":914,"x_min":36,"x_max":850,"o":"m 807 133 q 850 82 833 118 q 768 11 810 35 q 674 -12 726 -12 q 583 28 614 -12 q 524 165 553 69 q 473 303 500 244 q 411 414 446 361 q 350 415 388 413 l 310 182 q 303 124 303 143 q 318 82 303 96 q 375 63 333 68 q 378 -4 381 36 q 208 0 306 0 q 36 -4 92 0 q 50 63 39 39 q 113 82 92 67 q 142 122 133 97 q 160 197 150 146 l 257 758 q 263 804 263 794 q 243 854 263 838 q 175 876 224 871 q 172 913 172 888 q 174 943 172 932 q 361 939 242 939 q 479 942 399 939 l 571 943 q 772 888 696 943 q 847 733 847 832 q 842 681 847 704 q 554 435 804 483 q 615 346 588 394 q 674 214 642 297 q 758 113 714 113 q 783 117 772 113 q 807 133 794 121 m 363 489 q 415 486 383 486 q 594 537 525 486 q 679 676 663 588 q 685 731 685 703 q 642 840 685 803 q 528 876 600 876 q 428 864 474 876 l 363 489 m 507 1017 q 335 1185 426 1115 q 376 1231 342 1225 q 560 1136 454 1185 q 749 1226 660 1171 q 793 1183 779 1215 q 565 1025 658 1100 q 521 1015 539 1015 l 507 1017 z "},"Ŗ":{"ha":914,"x_min":36,"x_max":850,"o":"m 807 133 q 850 82 833 118 q 768 11 810 35 q 674 -12 726 -12 q 583 28 614 -12 q 524 165 553 69 q 473 303 500 244 q 411 414 446 361 q 350 415 388 413 l 310 182 q 303 124 303 143 q 318 82 303 96 q 375 63 333 68 q 378 -4 381 36 q 208 0 306 0 q 36 -4 92 0 q 50 63 39 39 q 113 82 92 67 q 142 122 133 97 q 160 197 150 146 l 257 758 q 263 804 263 794 q 243 854 263 838 q 175 876 224 871 q 172 913 172 888 q 174 943 172 932 q 361 939 242 939 q 479 942 399 939 l 571 943 q 772 888 696 943 q 847 733 847 832 q 842 681 847 704 q 554 435 804 483 q 615 346 588 394 q 674 214 642 297 q 758 113 714 113 q 783 117 772 113 q 807 133 794 121 m 363 489 q 415 486 383 486 q 594 537 525 486 q 679 676 663 588 q 685 731 685 703 q 642 840 685 803 q 528 876 600 876 q 428 864 474 876 l 363 489 m 343 -396 q 304 -361 313 -385 q 366 -294 343 -328 q 389 -235 389 -260 q 339 -192 389 -199 q 365 -100 336 -139 q 494 -58 440 -89 q 533 -126 533 -72 q 531 -156 533 -136 q 467 -287 518 -226 q 343 -396 417 -347 z "},"Ȑ":{"ha":914,"x_min":36,"x_max":850,"o":"m 807 133 q 850 82 833 118 q 768 11 810 35 q 674 -12 726 -12 q 583 28 614 -12 q 524 165 553 69 q 473 303 500 244 q 411 414 446 361 q 350 415 388 413 l 310 182 q 303 124 303 143 q 318 82 303 96 q 375 63 333 68 q 378 -4 381 36 q 208 0 306 0 q 36 -4 92 0 q 50 63 39 39 q 113 82 92 67 q 142 122 133 97 q 160 197 150 146 l 257 758 q 263 804 263 794 q 243 854 263 838 q 175 876 224 871 q 172 913 172 888 q 174 943 172 932 q 361 939 242 939 q 479 942 399 939 l 571 943 q 772 888 696 943 q 847 733 847 832 q 842 681 847 704 q 554 435 804 483 q 615 346 588 394 q 674 214 642 297 q 758 113 714 113 q 783 117 772 113 q 807 133 794 121 m 363 489 q 415 486 383 486 q 594 537 525 486 q 679 676 663 588 q 685 731 685 703 q 642 840 685 803 q 528 876 600 876 q 428 864 474 876 l 363 489 m 439 1007 q 315 1183 375 1111 q 392 1196 346 1196 q 450 1190 426 1196 l 461 1149 q 506 1003 482 1065 q 439 1007 479 1001 m 658 1007 q 536 1185 586 1124 q 610 1197 567 1197 q 669 1190 638 1197 l 681 1149 q 725 1003 701 1065 q 658 1007 699 1001 z "},"Ṛ":{"ha":914,"x_min":36,"x_max":850,"o":"m 807 133 q 850 82 833 118 q 768 11 810 35 q 674 -12 726 -12 q 583 28 614 -12 q 524 165 553 69 q 473 303 500 244 q 411 414 446 361 q 350 415 388 413 l 310 182 q 303 124 303 143 q 318 82 303 96 q 375 63 333 68 q 378 -4 381 36 q 208 0 306 0 q 36 -4 92 0 q 50 63 39 39 q 113 82 92 67 q 142 122 133 97 q 160 197 150 146 l 257 758 q 263 804 263 794 q 243 854 263 838 q 175 876 224 871 q 172 913 172 888 q 174 943 172 932 q 361 939 242 939 q 479 942 399 939 l 571 943 q 772 888 696 943 q 847 733 847 832 q 842 681 847 704 q 554 435 804 483 q 615 346 588 394 q 674 214 642 297 q 758 113 714 113 q 783 117 772 113 q 807 133 794 121 m 363 489 q 415 486 383 486 q 594 537 525 486 q 679 676 663 588 q 685 731 685 703 q 642 840 685 803 q 528 876 600 876 q 428 864 474 876 l 363 489 m 418 -303 q 362 -284 382 -303 q 342 -232 342 -265 q 343 -215 342 -221 q 376 -149 350 -174 q 442 -124 403 -124 q 495 -142 474 -124 q 517 -196 517 -160 q 490 -272 517 -242 q 418 -303 463 -303 z "},"Ȓ":{"ha":914,"x_min":36,"x_max":850,"o":"m 807 133 q 850 82 833 118 q 768 11 810 35 q 674 -12 726 -12 q 583 28 614 -12 q 524 165 553 69 q 473 303 500 244 q 411 414 446 361 q 350 415 388 413 l 310 182 q 303 124 303 143 q 318 82 303 96 q 375 63 333 68 q 378 -4 381 36 q 208 0 306 0 q 36 -4 92 0 q 50 63 39 39 q 113 82 92 67 q 142 122 133 97 q 160 197 150 146 l 257 758 q 263 804 263 794 q 243 854 263 838 q 175 876 224 871 q 172 913 172 888 q 174 943 172 932 q 361 939 242 939 q 479 942 399 939 l 571 943 q 772 888 696 943 q 847 733 847 832 q 842 681 847 704 q 554 435 804 483 q 615 346 588 394 q 674 214 642 297 q 758 113 714 113 q 783 117 772 113 q 807 133 794 121 m 363 489 q 415 486 383 486 q 594 537 525 486 q 679 676 663 588 q 685 731 685 703 q 642 840 685 803 q 528 876 600 876 q 428 864 474 876 l 363 489 m 597 1208 q 745 1171 694 1208 q 796 1061 796 1133 q 792 1017 796 1040 q 718 1004 753 1000 q 678 1083 719 1054 q 567 1111 638 1111 q 447 1083 496 1111 q 383 1004 397 1054 q 364 1003 376 1003 q 325 1011 339 1003 q 413 1157 343 1106 q 597 1208 483 1208 z "},"Ṟ":{"ha":914,"x_min":36,"x_max":850,"o":"m 807 133 q 850 82 833 118 q 768 11 810 35 q 674 -12 726 -12 q 583 28 614 -12 q 524 165 553 69 q 473 303 500 244 q 411 414 446 361 q 350 415 388 413 l 310 182 q 303 124 303 143 q 318 82 303 96 q 375 63 333 68 q 378 -4 381 36 q 208 0 306 0 q 36 -4 92 0 q 50 63 39 39 q 113 82 92 67 q 142 122 133 97 q 160 197 150 146 l 257 758 q 263 804 263 794 q 243 854 263 838 q 175 876 224 871 q 172 913 172 888 q 174 943 172 932 q 361 939 242 939 q 479 942 399 939 l 571 943 q 772 888 696 943 q 847 733 847 832 q 842 681 847 704 q 554 435 804 483 q 615 346 588 394 q 674 214 642 297 q 758 113 714 113 q 783 117 772 113 q 807 133 794 121 m 363 489 q 415 486 383 486 q 594 537 525 486 q 679 676 663 588 q 685 731 685 703 q 642 840 685 803 q 528 876 600 876 q 428 864 474 876 l 363 489 m 181 -244 q 183 -209 181 -229 q 193 -176 186 -189 l 681 -176 q 668 -239 681 -208 q 181 -244 369 -239 z "},"S":{"ha":654,"x_min":1,"x_max":646,"o":"m 292 -12 q 125 13 190 -12 q 1 88 60 38 q 43 283 35 193 q 92 292 67 292 q 132 286 115 292 q 131 246 131 272 q 170 105 131 149 q 300 61 210 61 q 402 97 360 61 q 456 189 444 132 q 458 218 458 208 q 422 310 458 272 q 311 397 386 347 q 208 474 247 440 q 140 559 168 508 q 113 678 113 610 q 118 740 113 711 q 217 895 136 839 q 424 951 299 951 q 553 933 496 951 q 646 886 610 915 q 631 701 631 786 q 571 692 606 692 q 542 693 551 692 q 506 838 540 794 q 407 881 472 881 q 254 757 274 881 q 253 733 253 749 q 292 634 253 676 q 414 535 332 592 q 517 454 479 488 q 583 374 556 421 q 611 267 611 326 q 607 219 611 244 q 500 51 589 115 q 292 -12 411 -12 z "},"Ś":{"ha":654,"x_min":1,"x_max":646,"o":"m 292 -12 q 125 13 190 -12 q 1 88 60 38 q 43 283 35 193 q 92 292 67 292 q 132 286 115 292 q 131 246 131 272 q 170 105 131 149 q 300 61 210 61 q 402 97 360 61 q 456 189 444 132 q 458 218 458 208 q 422 310 458 272 q 311 397 386 347 q 208 474 247 440 q 140 559 168 508 q 113 678 113 610 q 118 740 113 711 q 217 895 136 839 q 424 951 299 951 q 553 933 496 951 q 646 886 610 915 q 631 701 631 786 q 571 692 606 692 q 542 693 551 692 q 506 838 540 794 q 407 881 472 881 q 254 757 274 881 q 253 733 253 749 q 292 634 253 676 q 414 535 332 592 q 517 454 479 488 q 583 374 556 421 q 611 267 611 326 q 607 219 611 244 q 500 51 589 115 q 292 -12 411 -12 m 418 1013 q 354 1039 381 1017 q 424 1134 393 1085 q 469 1217 454 1183 q 528 1221 499 1221 q 628 1203 592 1221 q 418 1013 518 1113 z "},"Ṥ":{"ha":654,"x_min":1,"x_max":646,"o":"m 292 -12 q 125 13 190 -12 q 1 88 60 38 q 43 283 35 193 q 92 292 67 292 q 132 286 115 292 q 131 246 131 272 q 170 105 131 149 q 300 61 210 61 q 402 97 360 61 q 456 189 444 132 q 458 218 458 208 q 422 310 458 272 q 311 397 386 347 q 208 474 247 440 q 140 559 168 508 q 113 678 113 610 q 118 740 113 711 q 217 895 136 839 q 424 951 299 951 q 553 933 496 951 q 646 886 610 915 q 631 701 631 786 q 571 692 606 692 q 542 693 551 692 q 506 838 540 794 q 407 881 472 881 q 254 757 274 881 q 253 733 253 749 q 292 634 253 676 q 414 535 332 592 q 517 454 479 488 q 583 374 556 421 q 611 267 611 326 q 607 219 611 244 q 500 51 589 115 q 292 -12 411 -12 m 418 1013 q 354 1039 381 1017 q 424 1134 393 1085 q 469 1217 454 1183 q 528 1221 499 1221 q 628 1203 592 1221 q 418 1013 518 1113 m 486 1283 q 432 1302 451 1283 q 413 1353 413 1321 q 441 1424 413 1397 q 514 1451 469 1451 q 567 1433 547 1451 q 588 1382 588 1414 q 560 1310 588 1338 q 486 1283 532 1283 z "},"Š":{"ha":654,"x_min":1,"x_max":683,"o":"m 292 -12 q 125 13 190 -12 q 1 88 60 38 q 43 283 35 193 q 92 292 67 292 q 132 286 115 292 q 131 246 131 272 q 170 105 131 149 q 300 61 210 61 q 402 97 360 61 q 456 189 444 132 q 458 218 458 208 q 422 310 458 272 q 311 397 386 347 q 208 474 247 440 q 140 559 168 508 q 113 678 113 610 q 118 740 113 711 q 217 895 136 839 q 424 951 299 951 q 553 933 496 951 q 646 886 610 915 q 631 701 631 786 q 571 692 606 692 q 542 693 551 692 q 506 838 540 794 q 407 881 472 881 q 254 757 274 881 q 253 733 253 749 q 292 634 253 676 q 414 535 332 592 q 517 454 479 488 q 583 374 556 421 q 611 267 611 326 q 607 219 611 244 q 500 51 589 115 q 292 -12 411 -12 m 397 1017 q 225 1185 317 1115 q 267 1231 232 1225 q 450 1136 344 1185 q 639 1226 550 1171 q 683 1183 669 1215 q 456 1025 549 1100 q 411 1015 429 1015 l 397 1017 z "},"Ṧ":{"ha":654,"x_min":1,"x_max":683,"o":"m 292 -12 q 125 13 190 -12 q 1 88 60 38 q 43 283 35 193 q 92 292 67 292 q 132 286 115 292 q 131 246 131 272 q 170 105 131 149 q 300 61 210 61 q 402 97 360 61 q 456 189 444 132 q 458 218 458 208 q 422 310 458 272 q 311 397 386 347 q 208 474 247 440 q 140 559 168 508 q 113 678 113 610 q 118 740 113 711 q 217 895 136 839 q 424 951 299 951 q 553 933 496 951 q 646 886 610 915 q 631 701 631 786 q 571 692 606 692 q 542 693 551 692 q 506 838 540 794 q 407 881 472 881 q 254 757 274 881 q 253 733 253 749 q 292 634 253 676 q 414 535 332 592 q 517 454 479 488 q 583 374 556 421 q 611 267 611 326 q 607 219 611 244 q 500 51 589 115 q 292 -12 411 -12 m 397 1017 q 225 1185 317 1115 q 267 1231 232 1225 q 450 1136 344 1185 q 639 1226 550 1171 q 683 1183 669 1215 q 456 1025 549 1100 q 411 1015 429 1015 l 397 1017 m 490 1293 q 436 1312 456 1293 q 417 1363 417 1331 q 445 1434 417 1407 q 518 1461 474 1461 q 572 1442 551 1461 q 592 1392 592 1424 q 564 1320 592 1347 q 490 1293 536 1293 z "},"Ş":{"ha":654,"x_min":1,"x_max":646,"o":"m 407 881 q 254 757 274 881 q 253 733 253 749 q 292 634 253 676 q 414 535 332 592 q 517 454 479 488 q 583 374 556 421 q 611 267 611 326 q 607 219 611 244 q 519 67 590 128 q 347 -8 447 6 l 292 -75 q 379 -176 379 -94 q 375 -217 379 -196 q 306 -308 363 -276 q 161 -336 249 -339 q 157 -312 157 -326 q 160 -287 157 -304 q 251 -267 218 -287 q 285 -204 285 -246 q 264 -158 285 -175 q 208 -142 243 -142 q 193 -103 193 -126 q 194 -87 193 -93 l 260 -12 q 114 17 174 -8 q 1 88 54 42 q 43 283 35 193 q 92 292 67 292 q 132 286 115 292 q 131 246 131 272 q 170 105 131 149 q 300 61 210 61 q 402 97 360 61 q 456 189 444 132 q 458 218 458 208 q 422 310 458 272 q 311 397 386 347 q 208 474 247 440 q 140 559 168 508 q 113 678 113 610 q 118 740 113 711 q 217 895 136 839 q 424 951 299 951 q 553 933 496 951 q 646 886 610 915 q 631 701 631 786 q 571 692 606 692 q 542 693 551 692 q 506 838 540 794 q 407 881 472 881 z "},"Ŝ":{"ha":654,"x_min":1,"x_max":671,"o":"m 292 -12 q 125 13 190 -12 q 1 88 60 38 q 43 283 35 193 q 92 292 67 292 q 132 286 115 292 q 131 246 131 272 q 170 105 131 149 q 300 61 210 61 q 402 97 360 61 q 456 189 444 132 q 458 218 458 208 q 422 310 458 272 q 311 397 386 347 q 208 474 247 440 q 140 559 168 508 q 113 678 113 610 q 118 740 113 711 q 217 895 136 839 q 424 951 299 951 q 553 933 496 951 q 646 886 610 915 q 631 701 631 786 q 571 692 606 692 q 542 693 551 692 q 506 838 540 794 q 407 881 472 881 q 254 757 274 881 q 253 733 253 749 q 292 634 253 676 q 414 535 332 592 q 517 454 479 488 q 583 374 556 421 q 611 267 611 326 q 607 219 611 244 q 500 51 589 115 q 292 -12 411 -12 m 261 1011 q 241 1040 249 1021 q 235 1074 233 1058 q 451 1222 319 1119 q 468 1224 457 1224 q 515 1214 494 1224 q 671 1051 576 1144 q 649 1029 664 1038 q 617 1018 635 1021 q 449 1104 529 1074 q 261 1011 378 1076 z "},"Ș":{"ha":654,"x_min":1,"x_max":646,"o":"m 292 -12 q 125 13 190 -12 q 1 88 60 38 q 43 283 35 193 q 92 292 67 292 q 132 286 115 292 q 131 246 131 272 q 170 105 131 149 q 300 61 210 61 q 402 97 360 61 q 456 189 444 132 q 458 218 458 208 q 422 310 458 272 q 311 397 386 347 q 208 474 247 440 q 140 559 168 508 q 113 678 113 610 q 118 740 113 711 q 217 895 136 839 q 424 951 299 951 q 553 933 496 951 q 646 886 610 915 q 631 701 631 786 q 571 692 606 692 q 542 693 551 692 q 506 838 540 794 q 407 881 472 881 q 254 757 274 881 q 253 733 253 749 q 292 634 253 676 q 414 535 332 592 q 517 454 479 488 q 583 374 556 421 q 611 267 611 326 q 607 219 611 244 q 500 51 589 115 q 292 -12 411 -12 m 174 -396 q 135 -361 143 -385 q 197 -294 174 -328 q 219 -235 219 -260 q 169 -192 219 -199 q 196 -100 167 -139 q 325 -58 271 -89 q 364 -126 364 -72 q 361 -156 364 -136 q 298 -287 349 -226 q 174 -396 247 -347 z "},"Ṡ":{"ha":654,"x_min":1,"x_max":646,"o":"m 292 -12 q 125 13 190 -12 q 1 88 60 38 q 43 283 35 193 q 92 292 67 292 q 132 286 115 292 q 131 246 131 272 q 170 105 131 149 q 300 61 210 61 q 402 97 360 61 q 456 189 444 132 q 458 218 458 208 q 422 310 458 272 q 311 397 386 347 q 208 474 247 440 q 140 559 168 508 q 113 678 113 610 q 118 740 113 711 q 217 895 136 839 q 424 951 299 951 q 553 933 496 951 q 646 886 610 915 q 631 701 631 786 q 571 692 606 692 q 542 693 551 692 q 506 838 540 794 q 407 881 472 881 q 254 757 274 881 q 253 733 253 749 q 292 634 253 676 q 414 535 332 592 q 517 454 479 488 q 583 374 556 421 q 611 267 611 326 q 607 219 611 244 q 500 51 589 115 q 292 -12 411 -12 m 432 1000 q 378 1019 397 1000 q 358 1069 358 1038 q 387 1141 358 1114 q 460 1168 415 1168 q 513 1149 493 1168 q 533 1099 533 1131 q 506 1027 533 1054 q 432 1000 478 1000 z "},"Ṣ":{"ha":654,"x_min":1,"x_max":646,"o":"m 292 -12 q 125 13 190 -12 q 1 88 60 38 q 43 283 35 193 q 92 292 67 292 q 132 286 115 292 q 131 246 131 272 q 170 105 131 149 q 300 61 210 61 q 402 97 360 61 q 456 189 444 132 q 458 218 458 208 q 422 310 458 272 q 311 397 386 347 q 208 474 247 440 q 140 559 168 508 q 113 678 113 610 q 118 740 113 711 q 217 895 136 839 q 424 951 299 951 q 553 933 496 951 q 646 886 610 915 q 631 701 631 786 q 571 692 606 692 q 542 693 551 692 q 506 838 540 794 q 407 881 472 881 q 254 757 274 881 q 253 733 253 749 q 292 634 253 676 q 414 535 332 592 q 517 454 479 488 q 583 374 556 421 q 611 267 611 326 q 607 219 611 244 q 500 51 589 115 q 292 -12 411 -12 m 249 -303 q 192 -284 213 -303 q 172 -232 172 -265 q 174 -215 172 -221 q 207 -149 181 -174 q 272 -124 233 -124 q 326 -142 304 -124 q 347 -196 347 -160 q 320 -272 347 -242 q 249 -303 293 -303 z "},"Ṩ":{"ha":654,"x_min":1,"x_max":646,"o":"m 292 -12 q 125 13 190 -12 q 1 88 60 38 q 43 283 35 193 q 92 292 67 292 q 132 286 115 292 q 131 246 131 272 q 170 105 131 149 q 300 61 210 61 q 402 97 360 61 q 456 189 444 132 q 458 218 458 208 q 422 310 458 272 q 311 397 386 347 q 208 474 247 440 q 140 559 168 508 q 113 678 113 610 q 118 740 113 711 q 217 895 136 839 q 424 951 299 951 q 553 933 496 951 q 646 886 610 915 q 631 701 631 786 q 571 692 606 692 q 542 693 551 692 q 506 838 540 794 q 407 881 472 881 q 254 757 274 881 q 253 733 253 749 q 292 634 253 676 q 414 535 332 592 q 517 454 479 488 q 583 374 556 421 q 611 267 611 326 q 607 219 611 244 q 500 51 589 115 q 292 -12 411 -12 m 249 -303 q 192 -284 213 -303 q 172 -232 172 -265 q 174 -215 172 -221 q 207 -149 181 -174 q 272 -124 233 -124 q 326 -142 304 -124 q 347 -196 347 -160 q 320 -272 347 -242 q 249 -303 293 -303 m 432 1000 q 378 1019 397 1000 q 358 1069 358 1038 q 387 1141 358 1114 q 460 1168 415 1168 q 513 1149 493 1168 q 533 1099 533 1131 q 506 1027 533 1054 q 432 1000 478 1000 z "},"ẞ":{"ha":939,"x_min":-32,"x_max":926,"o":"m 906 943 q 922 868 926 911 q 665 542 807 703 q 829 461 771 524 q 888 300 888 399 q 882 236 888 265 q 776 56 863 125 q 549 -12 689 -12 q 417 9 469 -12 q 322 72 364 31 q 349 167 338 115 q 363 257 360 218 q 415 265 386 265 q 451 261 436 265 q 449 196 449 211 q 471 92 449 121 q 550 63 493 63 q 656 112 613 63 q 711 226 700 161 q 717 283 717 265 q 493 492 717 460 q 481 556 476 519 q 736 875 614 704 q 563 879 642 879 q 403 814 465 879 q 313 586 340 749 l 214 0 q -32 -4 64 0 q -18 63 -29 38 q 40 78 21 68 q 71 113 60 89 q 90 188 82 136 l 160 592 q 295 859 190 775 q 588 943 400 943 q 681 940 622 943 l 754 939 q 906 943 858 939 z "},"Ə":{"ha":901,"x_min":69,"x_max":893,"o":"m 514 951 q 801 857 708 951 q 893 607 893 763 q 881 482 893 547 q 782 233 853 344 q 604 56 711 121 q 364 -10 497 -10 q 69 324 69 -10 q 76 438 69 389 q 110 482 89 464 l 715 478 q 729 621 729 558 q 493 881 729 881 q 346 835 396 881 q 261 683 296 789 q 181 710 213 688 q 211 894 208 822 q 354 937 271 922 q 514 951 438 951 m 389 63 q 572 145 488 63 q 700 410 657 228 q 244 396 422 410 q 229 260 229 328 q 269 114 229 165 q 389 63 308 63 z "},"T":{"ha":778,"x_min":88,"x_max":863,"o":"m 863 943 q 846 715 844 831 q 768 704 817 701 q 755 807 767 771 q 713 860 743 843 q 626 876 683 876 l 569 876 l 449 183 q 443 133 443 157 q 465 85 443 100 q 544 63 486 71 q 549 21 549 44 q 547 -4 549 4 q 354 0 489 0 q 153 -4 207 0 q 165 64 156 39 q 242 84 217 69 q 278 123 268 99 q 297 197 289 147 l 415 876 l 350 876 q 235 837 276 876 q 163 700 194 797 q 88 721 110 700 q 117 827 103 764 q 139 943 131 890 q 496 939 221 939 q 863 943 775 939 z "},"Ŧ":{"ha":778,"x_min":88,"x_max":863,"o":"m 863 943 q 846 715 844 831 q 768 704 817 701 q 755 807 767 771 q 713 860 743 843 q 626 876 683 876 l 569 876 l 507 521 l 690 521 q 675 443 690 471 q 494 444 608 444 l 449 183 q 444 158 447 174 q 442 132 442 142 q 463 87 442 103 q 544 63 485 71 q 549 21 549 44 q 547 -4 549 4 q 354 0 489 0 q 153 -4 207 0 q 165 64 156 39 q 242 84 217 71 q 277 122 267 97 q 297 197 288 146 l 340 444 l 169 442 q 174 485 169 461 q 185 521 179 510 l 354 521 l 415 876 l 350 876 q 235 837 276 876 q 163 700 194 797 q 88 721 110 700 q 117 827 103 764 q 139 943 131 890 q 496 939 221 939 q 863 943 775 939 z "},"Ť":{"ha":778,"x_min":88,"x_max":863,"o":"m 863 943 q 846 715 844 831 q 768 704 817 701 q 755 807 767 771 q 713 860 743 843 q 626 876 683 876 l 569 876 l 449 183 q 443 133 443 157 q 465 85 443 100 q 544 63 486 71 q 549 21 549 44 q 547 -4 549 4 q 354 0 489 0 q 153 -4 207 0 q 165 64 156 39 q 242 84 217 69 q 278 123 268 99 q 297 197 289 147 l 415 876 l 350 876 q 235 837 276 876 q 163 700 194 797 q 88 721 110 700 q 117 827 103 764 q 139 943 131 890 q 496 939 221 939 q 863 943 775 939 m 472 1017 q 300 1185 392 1115 q 342 1231 307 1225 q 525 1136 419 1185 q 714 1226 625 1171 q 758 1183 744 1215 q 531 1025 624 1100 q 486 1015 504 1015 l 472 1017 z "},"Ţ":{"ha":778,"x_min":88,"x_max":863,"o":"m 863 943 q 846 715 844 831 q 768 704 817 701 q 755 807 767 771 q 713 860 743 843 q 626 876 683 876 l 569 876 l 449 183 q 443 133 443 157 q 465 85 443 100 q 544 63 486 71 q 549 21 549 44 q 547 -4 549 4 q 410 0 485 0 l 347 -75 q 435 -178 435 -94 q 376 -298 435 -257 q 217 -336 317 -339 q 213 -312 213 -326 q 215 -287 213 -304 q 306 -267 272 -287 q 340 -204 340 -246 q 319 -158 340 -175 q 264 -142 299 -142 q 249 -103 249 -126 q 250 -87 249 -93 l 325 0 q 153 -4 200 0 q 165 64 156 39 q 242 84 217 69 q 278 123 268 99 q 297 197 289 147 l 415 876 l 350 876 q 235 837 276 876 q 163 700 194 797 q 88 721 110 700 q 117 827 103 764 q 139 943 131 890 q 496 939 221 939 q 863 943 775 939 z "},"Ț":{"ha":778,"x_min":88,"x_max":863,"o":"m 863 943 q 846 715 844 831 q 768 704 817 701 q 755 807 767 771 q 713 860 743 843 q 626 876 683 876 l 569 876 l 449 183 q 443 133 443 157 q 465 85 443 100 q 544 63 486 71 q 549 21 549 44 q 547 -4 549 4 q 354 0 489 0 q 153 -4 207 0 q 165 64 156 39 q 242 84 217 69 q 278 123 268 99 q 297 197 289 147 l 415 876 l 350 876 q 235 837 276 876 q 163 700 194 797 q 88 721 110 700 q 117 827 103 764 q 139 943 131 890 q 496 939 221 939 q 863 943 775 939 m 229 -396 q 190 -361 199 -385 q 252 -294 229 -328 q 275 -235 275 -260 q 225 -192 275 -199 q 251 -100 222 -139 q 381 -58 326 -89 q 419 -126 419 -72 q 417 -156 419 -136 q 353 -287 404 -226 q 229 -396 303 -347 z "},"Ṭ":{"ha":778,"x_min":88,"x_max":863,"o":"m 863 943 q 846 715 844 831 q 768 704 817 701 q 755 807 767 771 q 713 860 743 843 q 626 876 683 876 l 569 876 l 449 183 q 443 133 443 157 q 465 85 443 100 q 544 63 486 71 q 549 21 549 44 q 547 -4 549 4 q 354 0 489 0 q 153 -4 207 0 q 165 64 156 39 q 242 84 217 69 q 278 123 268 99 q 297 197 289 147 l 415 876 l 350 876 q 235 837 276 876 q 163 700 194 797 q 88 721 110 700 q 117 827 103 764 q 139 943 131 890 q 496 939 221 939 q 863 943 775 939 m 304 -303 q 248 -284 268 -303 q 228 -232 228 -265 q 229 -215 228 -221 q 263 -149 236 -174 q 328 -124 289 -124 q 381 -142 360 -124 q 403 -196 403 -160 q 376 -272 403 -242 q 304 -303 349 -303 z "},"Ṯ":{"ha":778,"x_min":67,"x_max":863,"o":"m 863 943 q 846 715 844 831 q 768 704 817 701 q 755 807 767 771 q 713 860 743 843 q 626 876 683 876 l 569 876 l 449 183 q 443 133 443 157 q 465 85 443 100 q 544 63 486 71 q 549 21 549 44 q 547 -4 549 4 q 354 0 489 0 q 153 -4 207 0 q 165 64 156 39 q 242 84 217 69 q 278 123 268 99 q 297 197 289 147 l 415 876 l 350 876 q 235 837 276 876 q 163 700 194 797 q 88 721 110 700 q 117 827 103 764 q 139 943 131 890 q 496 939 221 939 q 863 943 775 939 m 67 -244 q 69 -209 67 -229 q 79 -176 72 -189 l 567 -176 q 554 -239 567 -208 q 67 -244 256 -239 z "},"U":{"ha":892,"x_min":131,"x_max":982,"o":"m 426 -12 q 203 56 276 -12 q 131 253 131 124 q 140 356 131 306 l 210 758 q 217 815 217 796 q 202 856 217 842 q 150 876 188 871 q 147 911 147 886 q 149 943 147 932 q 315 939 215 939 q 493 943 424 939 q 479 876 490 903 q 414 860 435 871 q 381 824 393 850 q 360 742 369 799 l 293 363 q 283 264 283 313 q 329 115 283 164 q 460 67 375 67 q 624 140 558 67 q 713 346 689 213 l 775 706 q 785 786 785 764 q 767 842 785 821 q 704 876 749 863 q 701 913 701 888 q 703 943 701 932 q 842 939 761 939 q 982 943 921 939 q 968 876 982 906 q 907 847 926 863 q 875 797 888 831 q 850 692 863 764 l 792 358 q 671 78 758 168 q 426 -12 583 -12 z "},"Ú":{"ha":892,"x_min":131,"x_max":982,"o":"m 426 -12 q 203 56 276 -12 q 131 253 131 124 q 140 356 131 306 l 210 758 q 217 815 217 796 q 202 856 217 842 q 150 876 188 871 q 147 911 147 886 q 149 943 147 932 q 315 939 215 939 q 493 943 424 939 q 479 876 490 903 q 414 860 435 871 q 381 824 393 850 q 360 742 369 799 l 293 363 q 283 264 283 313 q 329 115 283 164 q 460 67 375 67 q 624 140 558 67 q 713 346 689 213 l 775 706 q 785 786 785 764 q 767 842 785 821 q 704 876 749 863 q 701 913 701 888 q 703 943 701 932 q 842 939 761 939 q 982 943 921 939 q 968 876 982 906 q 907 847 926 863 q 875 797 888 831 q 850 692 863 764 l 792 358 q 671 78 758 168 q 426 -12 583 -12 m 596 1013 q 532 1039 558 1017 q 601 1134 571 1085 q 647 1217 632 1183 q 706 1221 676 1221 q 806 1203 769 1221 q 596 1013 696 1113 z "},"Ŭ":{"ha":892,"x_min":131,"x_max":982,"o":"m 426 -12 q 203 56 276 -12 q 131 253 131 124 q 140 356 131 306 l 210 758 q 217 815 217 796 q 202 856 217 842 q 150 876 188 871 q 147 911 147 886 q 149 943 147 932 q 315 939 215 939 q 493 943 424 939 q 479 876 490 903 q 414 860 435 871 q 381 824 393 850 q 360 742 369 799 l 293 363 q 283 264 283 313 q 329 115 283 164 q 460 67 375 67 q 624 140 558 67 q 713 346 689 213 l 775 706 q 785 786 785 764 q 767 842 785 821 q 704 876 749 863 q 701 913 701 888 q 703 943 701 932 q 842 939 761 939 q 982 943 921 939 q 968 876 982 906 q 907 847 926 863 q 875 797 888 831 q 850 692 863 764 l 792 358 q 671 78 758 168 q 426 -12 583 -12 m 592 1011 q 444 1049 494 1011 q 393 1158 393 1086 q 397 1204 393 1179 q 471 1217 436 1221 q 510 1138 469 1167 q 622 1110 551 1110 q 742 1138 693 1110 q 806 1217 792 1167 q 824 1218 811 1218 q 864 1210 849 1218 q 776 1063 846 1114 q 592 1011 706 1011 z "},"Ǔ":{"ha":892,"x_min":131,"x_max":982,"o":"m 426 -12 q 203 56 276 -12 q 131 253 131 124 q 140 356 131 306 l 210 758 q 217 815 217 796 q 202 856 217 842 q 150 876 188 871 q 147 911 147 886 q 149 943 147 932 q 315 939 215 939 q 493 943 424 939 q 479 876 490 903 q 414 860 435 871 q 381 824 393 850 q 360 742 369 799 l 293 363 q 283 264 283 313 q 329 115 283 164 q 460 67 375 67 q 624 140 558 67 q 713 346 689 213 l 775 706 q 785 786 785 764 q 767 842 785 821 q 704 876 749 863 q 701 913 701 888 q 703 943 701 932 q 842 939 761 939 q 982 943 921 939 q 968 876 982 906 q 907 847 926 863 q 875 797 888 831 q 850 692 863 764 l 792 358 q 671 78 758 168 q 426 -12 583 -12 m 574 1017 q 401 1185 493 1115 q 443 1231 408 1225 q 626 1136 521 1185 q 815 1226 726 1171 q 860 1183 846 1215 q 632 1025 725 1100 q 588 1015 606 1015 l 574 1017 z "},"Û":{"ha":892,"x_min":131,"x_max":982,"o":"m 426 -12 q 203 56 276 -12 q 131 253 131 124 q 140 356 131 306 l 210 758 q 217 815 217 796 q 202 856 217 842 q 150 876 188 871 q 147 911 147 886 q 149 943 147 932 q 315 939 215 939 q 493 943 424 939 q 479 876 490 903 q 414 860 435 871 q 381 824 393 850 q 360 742 369 799 l 293 363 q 283 264 283 313 q 329 115 283 164 q 460 67 375 67 q 624 140 558 67 q 713 346 689 213 l 775 706 q 785 786 785 764 q 767 842 785 821 q 704 876 749 863 q 701 913 701 888 q 703 943 701 932 q 842 939 761 939 q 982 943 921 939 q 968 876 982 906 q 907 847 926 863 q 875 797 888 831 q 850 692 863 764 l 792 358 q 671 78 758 168 q 426 -12 583 -12 m 438 1011 q 417 1040 425 1021 q 411 1074 410 1058 q 628 1222 496 1119 q 644 1224 633 1224 q 692 1214 671 1224 q 847 1051 753 1144 q 826 1029 840 1038 q 793 1018 811 1021 q 625 1104 706 1074 q 438 1011 554 1076 z "},"Ȕ":{"ha":892,"x_min":131,"x_max":982,"o":"m 426 -12 q 203 56 276 -12 q 131 253 131 124 q 140 356 131 306 l 210 758 q 217 815 217 796 q 202 856 217 842 q 150 876 188 871 q 147 911 147 886 q 149 943 147 932 q 315 939 215 939 q 493 943 424 939 q 479 876 490 903 q 414 860 435 871 q 381 824 393 850 q 360 742 369 799 l 293 363 q 283 264 283 313 q 329 115 283 164 q 460 67 375 67 q 624 140 558 67 q 713 346 689 213 l 775 706 q 785 786 785 764 q 767 842 785 821 q 704 876 749 863 q 701 913 701 888 q 703 943 701 932 q 842 939 761 939 q 982 943 921 939 q 968 876 982 906 q 907 847 926 863 q 875 797 888 831 q 850 692 863 764 l 792 358 q 671 78 758 168 q 426 -12 583 -12 m 506 1007 q 382 1183 442 1111 q 458 1196 413 1196 q 517 1190 493 1196 l 528 1149 q 572 1003 549 1065 q 506 1007 546 1001 m 725 1007 q 603 1185 653 1124 q 676 1197 633 1197 q 736 1190 704 1197 l 747 1149 q 792 1003 768 1065 q 725 1007 765 1001 z "},"Ü":{"ha":892,"x_min":131,"x_max":982,"o":"m 426 -12 q 203 56 276 -12 q 131 253 131 124 q 140 356 131 306 l 210 758 q 217 815 217 796 q 202 856 217 842 q 150 876 188 871 q 147 911 147 886 q 149 943 147 932 q 315 939 215 939 q 493 943 424 939 q 479 876 490 903 q 414 860 435 871 q 381 824 393 850 q 360 742 369 799 l 293 363 q 283 264 283 313 q 329 115 283 164 q 460 67 375 67 q 624 140 558 67 q 713 346 689 213 l 775 706 q 785 786 785 764 q 767 842 785 821 q 704 876 749 863 q 701 913 701 888 q 703 943 701 932 q 842 939 761 939 q 982 943 921 939 q 968 876 982 906 q 907 847 926 863 q 875 797 888 831 q 850 692 863 764 l 792 358 q 671 78 758 168 q 426 -12 583 -12 m 478 1014 q 426 1034 444 1014 q 407 1090 407 1054 q 408 1113 407 1104 q 434 1160 413 1143 q 490 1178 456 1178 q 544 1160 525 1178 q 564 1111 564 1142 q 561 1086 564 1103 q 533 1033 554 1051 q 478 1014 511 1014 m 758 1015 q 704 1035 724 1015 q 685 1088 685 1054 q 708 1154 685 1131 q 774 1178 731 1178 q 826 1159 807 1178 q 844 1108 844 1140 q 822 1040 844 1064 q 758 1015 799 1015 z "},"Ǘ":{"ha":892,"x_min":131,"x_max":982,"o":"m 426 -12 q 203 56 276 -12 q 131 253 131 124 q 140 356 131 306 l 210 758 q 217 815 217 796 q 202 856 217 842 q 150 876 188 871 q 147 911 147 886 q 149 943 147 932 q 315 939 215 939 q 493 943 424 939 q 479 876 490 903 q 414 860 435 871 q 381 824 393 850 q 360 742 369 799 l 293 363 q 283 264 283 313 q 329 115 283 164 q 460 67 375 67 q 624 140 558 67 q 713 346 689 213 l 775 706 q 785 786 785 764 q 767 842 785 821 q 704 876 749 863 q 701 913 701 888 q 703 943 701 932 q 842 939 761 939 q 982 943 921 939 q 968 876 982 906 q 907 847 926 863 q 875 797 888 831 q 850 692 863 764 l 792 358 q 671 78 758 168 q 426 -12 583 -12 m 478 1014 q 426 1034 444 1014 q 407 1090 407 1054 q 408 1113 407 1104 q 434 1160 413 1143 q 490 1178 456 1178 q 544 1160 525 1178 q 564 1111 564 1142 q 561 1086 564 1103 q 533 1033 554 1051 q 478 1014 511 1014 m 758 1015 q 704 1035 724 1015 q 685 1088 685 1054 q 708 1154 685 1131 q 774 1178 731 1178 q 826 1159 807 1178 q 844 1108 844 1140 q 822 1040 844 1064 q 758 1015 799 1015 m 629 1225 q 565 1251 592 1229 q 635 1347 604 1297 q 681 1429 665 1396 q 739 1433 710 1433 q 839 1415 803 1433 q 629 1225 729 1325 z "},"Ǚ":{"ha":892,"x_min":131,"x_max":982,"o":"m 426 -12 q 203 56 276 -12 q 131 253 131 124 q 140 356 131 306 l 210 758 q 217 815 217 796 q 202 856 217 842 q 150 876 188 871 q 147 911 147 886 q 149 943 147 932 q 315 939 215 939 q 493 943 424 939 q 479 876 490 903 q 414 860 435 871 q 381 824 393 850 q 360 742 369 799 l 293 363 q 283 264 283 313 q 329 115 283 164 q 460 67 375 67 q 624 140 558 67 q 713 346 689 213 l 775 706 q 785 786 785 764 q 767 842 785 821 q 704 876 749 863 q 701 913 701 888 q 703 943 701 932 q 842 939 761 939 q 982 943 921 939 q 968 876 982 906 q 907 847 926 863 q 875 797 888 831 q 850 692 863 764 l 792 358 q 671 78 758 168 q 426 -12 583 -12 m 478 1014 q 426 1034 444 1014 q 407 1090 407 1054 q 408 1113 407 1104 q 434 1160 413 1143 q 490 1178 456 1178 q 544 1160 525 1178 q 564 1111 564 1142 q 561 1086 564 1103 q 533 1033 554 1051 q 478 1014 511 1014 m 758 1015 q 704 1035 724 1015 q 685 1088 685 1054 q 708 1154 685 1131 q 774 1178 731 1178 q 826 1159 807 1178 q 844 1108 844 1140 q 822 1040 844 1064 q 758 1015 799 1015 m 607 1229 q 435 1397 526 1328 q 476 1443 442 1438 q 660 1349 554 1397 q 849 1439 760 1383 q 893 1396 879 1428 q 665 1238 758 1313 q 621 1228 639 1228 l 607 1229 z "},"Ǜ":{"ha":892,"x_min":131,"x_max":982,"o":"m 426 -12 q 203 56 276 -12 q 131 253 131 124 q 140 356 131 306 l 210 758 q 217 815 217 796 q 202 856 217 842 q 150 876 188 871 q 147 911 147 886 q 149 943 147 932 q 315 939 215 939 q 493 943 424 939 q 479 876 490 903 q 414 860 435 871 q 381 824 393 850 q 360 742 369 799 l 293 363 q 283 264 283 313 q 329 115 283 164 q 460 67 375 67 q 624 140 558 67 q 713 346 689 213 l 775 706 q 785 786 785 764 q 767 842 785 821 q 704 876 749 863 q 701 913 701 888 q 703 943 701 932 q 842 939 761 939 q 982 943 921 939 q 968 876 982 906 q 907 847 926 863 q 875 797 888 831 q 850 692 863 764 l 792 358 q 671 78 758 168 q 426 -12 583 -12 m 478 1014 q 426 1034 444 1014 q 407 1090 407 1054 q 408 1113 407 1104 q 434 1160 413 1143 q 490 1178 456 1178 q 544 1160 525 1178 q 564 1111 564 1142 q 561 1086 564 1103 q 533 1033 554 1051 q 478 1014 511 1014 m 758 1015 q 704 1035 724 1015 q 685 1088 685 1054 q 708 1154 685 1131 q 774 1178 731 1178 q 826 1159 807 1178 q 844 1108 844 1140 q 822 1040 844 1064 q 758 1015 799 1015 m 701 1240 q 664 1235 682 1235 q 625 1240 647 1235 q 489 1414 579 1315 q 575 1428 531 1428 q 633 1421 601 1428 q 701 1240 661 1317 z "},"Ǖ":{"ha":892,"x_min":131,"x_max":982,"o":"m 426 -12 q 203 56 276 -12 q 131 253 131 124 q 140 356 131 306 l 210 758 q 217 815 217 796 q 202 856 217 842 q 150 876 188 871 q 147 911 147 886 q 149 943 147 932 q 315 939 215 939 q 493 943 424 939 q 479 876 490 903 q 414 860 435 871 q 381 824 393 850 q 360 742 369 799 l 293 363 q 283 264 283 313 q 329 115 283 164 q 460 67 375 67 q 624 140 558 67 q 713 346 689 213 l 775 706 q 785 786 785 764 q 767 842 785 821 q 704 876 749 863 q 701 913 701 888 q 703 943 701 932 q 842 939 761 939 q 982 943 921 939 q 968 876 982 906 q 907 847 926 863 q 875 797 888 831 q 850 692 863 764 l 792 358 q 671 78 758 168 q 426 -12 583 -12 m 478 1014 q 426 1034 444 1014 q 407 1090 407 1054 q 408 1113 407 1104 q 434 1160 413 1143 q 490 1178 456 1178 q 544 1160 525 1178 q 564 1111 564 1142 q 561 1086 564 1103 q 533 1033 554 1051 q 478 1014 511 1014 m 758 1015 q 704 1035 724 1015 q 685 1088 685 1054 q 708 1154 685 1131 q 774 1178 731 1178 q 826 1159 807 1178 q 844 1108 844 1140 q 822 1040 844 1064 q 758 1015 799 1015 m 408 1272 q 411 1308 408 1288 q 421 1340 414 1328 l 908 1340 q 896 1278 908 1311 q 408 1272 597 1278 z "},"Ụ":{"ha":892,"x_min":131,"x_max":982,"o":"m 426 -12 q 203 56 276 -12 q 131 253 131 124 q 140 356 131 306 l 210 758 q 217 815 217 796 q 202 856 217 842 q 150 876 188 871 q 147 911 147 886 q 149 943 147 932 q 315 939 215 939 q 493 943 424 939 q 479 876 490 903 q 414 860 435 871 q 381 824 393 850 q 360 742 369 799 l 293 363 q 283 264 283 313 q 329 115 283 164 q 460 67 375 67 q 624 140 558 67 q 713 346 689 213 l 775 706 q 785 786 785 764 q 767 842 785 821 q 704 876 749 863 q 701 913 701 888 q 703 943 701 932 q 842 939 761 939 q 982 943 921 939 q 968 876 982 906 q 907 847 926 863 q 875 797 888 831 q 850 692 863 764 l 792 358 q 671 78 758 168 q 426 -12 583 -12 m 379 -303 q 323 -284 343 -303 q 303 -232 303 -265 q 304 -215 303 -221 q 338 -149 311 -174 q 403 -124 364 -124 q 456 -142 435 -124 q 478 -196 478 -160 q 451 -272 478 -242 q 379 -303 424 -303 z "},"Ù":{"ha":892,"x_min":131,"x_max":982,"o":"m 426 -12 q 203 56 276 -12 q 131 253 131 124 q 140 356 131 306 l 210 758 q 217 815 217 796 q 202 856 217 842 q 150 876 188 871 q 147 911 147 886 q 149 943 147 932 q 315 939 215 939 q 493 943 424 939 q 479 876 490 903 q 414 860 435 871 q 381 824 393 850 q 360 742 369 799 l 293 363 q 283 264 283 313 q 329 115 283 164 q 460 67 375 67 q 624 140 558 67 q 713 346 689 213 l 775 706 q 785 786 785 764 q 767 842 785 821 q 704 876 749 863 q 701 913 701 888 q 703 943 701 932 q 842 939 761 939 q 982 943 921 939 q 968 876 982 906 q 907 847 926 863 q 875 797 888 831 q 850 692 863 764 l 792 358 q 671 78 758 168 q 426 -12 583 -12 m 668 1028 q 631 1022 649 1022 q 592 1028 614 1022 q 456 1201 546 1103 q 542 1215 497 1215 q 600 1208 568 1215 q 668 1028 628 1104 z "},"Ủ":{"ha":892,"x_min":131,"x_max":982,"o":"m 426 -12 q 203 56 276 -12 q 131 253 131 124 q 140 356 131 306 l 210 758 q 217 815 217 796 q 202 856 217 842 q 150 876 188 871 q 147 911 147 886 q 149 943 147 932 q 315 939 215 939 q 493 943 424 939 q 479 876 490 903 q 414 860 435 871 q 381 824 393 850 q 360 742 369 799 l 293 363 q 283 264 283 313 q 329 115 283 164 q 460 67 375 67 q 624 140 558 67 q 713 346 689 213 l 775 706 q 785 786 785 764 q 767 842 785 821 q 704 876 749 863 q 701 913 701 888 q 703 943 701 932 q 842 939 761 939 q 982 943 921 939 q 968 876 982 906 q 907 847 926 863 q 875 797 888 831 q 850 692 863 764 l 792 358 q 671 78 758 168 q 426 -12 583 -12 m 572 1015 q 565 1047 565 1032 q 580 1090 565 1075 q 624 1118 594 1104 q 655 1138 644 1131 q 669 1157 665 1144 q 671 1167 671 1161 q 640 1186 671 1186 q 560 1104 585 1186 q 519 1113 539 1108 q 490 1128 500 1118 q 497 1149 492 1133 q 504 1176 503 1164 q 506 1203 506 1189 q 654 1239 575 1239 q 743 1220 713 1239 q 774 1171 774 1201 q 754 1121 774 1139 q 699 1082 735 1103 q 660 1058 674 1068 q 643 1035 647 1049 q 641 1026 643 1031 q 640 1013 639 1021 q 613 1011 632 1011 q 572 1015 589 1011 z "},"Ư":{"ha":975,"x_min":131,"x_max":1131,"o":"m 1107 1111 q 1131 1031 1131 1075 q 1083 924 1131 965 q 961 874 1035 882 q 903 844 922 861 q 873 793 883 826 q 850 692 863 760 l 792 358 q 671 78 758 168 q 426 -12 583 -12 q 203 56 276 -12 q 131 253 131 124 q 140 356 131 306 l 210 758 q 217 815 217 796 q 202 856 217 842 q 150 876 188 871 q 147 911 147 886 q 149 943 147 932 q 315 939 215 939 q 493 943 424 939 q 479 876 490 903 q 414 860 435 871 q 381 824 393 850 q 360 742 369 799 l 293 363 q 283 264 283 313 q 329 115 283 164 q 460 67 375 67 q 624 140 558 67 q 713 346 689 213 l 775 706 q 785 786 785 764 q 767 842 785 821 q 704 876 749 863 q 701 913 701 888 q 703 943 701 932 q 842 939 761 939 q 926 940 906 939 q 987 960 967 943 q 1014 1014 1007 978 q 1018 1047 1018 1029 q 1013 1096 1018 1063 q 1059 1109 1031 1104 q 1107 1111 1088 1114 z "},"Ứ":{"ha":975,"x_min":131,"x_max":1131,"o":"m 1107 1111 q 1131 1031 1131 1075 q 1083 924 1131 965 q 961 874 1035 882 q 903 844 922 861 q 873 793 883 826 q 850 692 863 760 l 792 358 q 671 78 758 168 q 426 -12 583 -12 q 203 56 276 -12 q 131 253 131 124 q 140 356 131 306 l 210 758 q 217 815 217 796 q 202 856 217 842 q 150 876 188 871 q 147 911 147 886 q 149 943 147 932 q 315 939 215 939 q 493 943 424 939 q 479 876 490 903 q 414 860 435 871 q 381 824 393 850 q 360 742 369 799 l 293 363 q 283 264 283 313 q 329 115 283 164 q 460 67 375 67 q 624 140 558 67 q 713 346 689 213 l 775 706 q 785 786 785 764 q 767 842 785 821 q 704 876 749 863 q 701 913 701 888 q 703 943 701 932 q 842 939 761 939 q 926 940 906 939 q 987 960 967 943 q 1014 1014 1007 978 q 1018 1047 1018 1029 q 1013 1096 1018 1063 q 1059 1109 1031 1104 q 1107 1111 1088 1114 m 596 1013 q 532 1039 558 1017 q 601 1134 571 1085 q 647 1217 632 1183 q 706 1221 676 1221 q 806 1203 769 1221 q 596 1013 696 1113 z "},"Ự":{"ha":975,"x_min":131,"x_max":1131,"o":"m 1107 1111 q 1131 1031 1131 1075 q 1083 924 1131 965 q 961 874 1035 882 q 903 844 922 861 q 873 793 883 826 q 850 692 863 760 l 792 358 q 671 78 758 168 q 426 -12 583 -12 q 203 56 276 -12 q 131 253 131 124 q 140 356 131 306 l 210 758 q 217 815 217 796 q 202 856 217 842 q 150 876 188 871 q 147 911 147 886 q 149 943 147 932 q 315 939 215 939 q 493 943 424 939 q 479 876 490 903 q 414 860 435 871 q 381 824 393 850 q 360 742 369 799 l 293 363 q 283 264 283 313 q 329 115 283 164 q 460 67 375 67 q 624 140 558 67 q 713 346 689 213 l 775 706 q 785 786 785 764 q 767 842 785 821 q 704 876 749 863 q 701 913 701 888 q 703 943 701 932 q 842 939 761 939 q 926 940 906 939 q 987 960 967 943 q 1014 1014 1007 978 q 1018 1047 1018 1029 q 1013 1096 1018 1063 q 1059 1109 1031 1104 q 1107 1111 1088 1114 m 379 -303 q 323 -284 343 -303 q 303 -232 303 -265 q 304 -215 303 -221 q 338 -149 311 -174 q 403 -124 364 -124 q 456 -142 435 -124 q 478 -196 478 -160 q 451 -272 478 -242 q 379 -303 424 -303 z "},"Ừ":{"ha":975,"x_min":131,"x_max":1131,"o":"m 1107 1111 q 1131 1031 1131 1075 q 1083 924 1131 965 q 961 874 1035 882 q 903 844 922 861 q 873 793 883 826 q 850 692 863 760 l 792 358 q 671 78 758 168 q 426 -12 583 -12 q 203 56 276 -12 q 131 253 131 124 q 140 356 131 306 l 210 758 q 217 815 217 796 q 202 856 217 842 q 150 876 188 871 q 147 911 147 886 q 149 943 147 932 q 315 939 215 939 q 493 943 424 939 q 479 876 490 903 q 414 860 435 871 q 381 824 393 850 q 360 742 369 799 l 293 363 q 283 264 283 313 q 329 115 283 164 q 460 67 375 67 q 624 140 558 67 q 713 346 689 213 l 775 706 q 785 786 785 764 q 767 842 785 821 q 704 876 749 863 q 701 913 701 888 q 703 943 701 932 q 842 939 761 939 q 926 940 906 939 q 987 960 967 943 q 1014 1014 1007 978 q 1018 1047 1018 1029 q 1013 1096 1018 1063 q 1059 1109 1031 1104 q 1107 1111 1088 1114 m 668 1028 q 631 1022 649 1022 q 592 1028 614 1022 q 456 1201 546 1103 q 542 1215 497 1215 q 600 1208 568 1215 q 668 1028 628 1104 z "},"Ử":{"ha":975,"x_min":131,"x_max":1131,"o":"m 1107 1111 q 1131 1031 1131 1075 q 1083 924 1131 965 q 961 874 1035 882 q 903 844 922 861 q 873 793 883 826 q 850 692 863 760 l 792 358 q 671 78 758 168 q 426 -12 583 -12 q 203 56 276 -12 q 131 253 131 124 q 140 356 131 306 l 210 758 q 217 815 217 796 q 202 856 217 842 q 150 876 188 871 q 147 911 147 886 q 149 943 147 932 q 315 939 215 939 q 493 943 424 939 q 479 876 490 903 q 414 860 435 871 q 381 824 393 850 q 360 742 369 799 l 293 363 q 283 264 283 313 q 329 115 283 164 q 460 67 375 67 q 624 140 558 67 q 713 346 689 213 l 775 706 q 785 786 785 764 q 767 842 785 821 q 704 876 749 863 q 701 913 701 888 q 703 943 701 932 q 842 939 761 939 q 926 940 906 939 q 987 960 967 943 q 1014 1014 1007 978 q 1018 1047 1018 1029 q 1013 1096 1018 1063 q 1059 1109 1031 1104 q 1107 1111 1088 1114 m 572 1015 q 565 1047 565 1032 q 580 1090 565 1075 q 624 1118 594 1104 q 655 1138 644 1131 q 669 1157 665 1144 q 671 1167 671 1161 q 640 1186 671 1186 q 560 1104 585 1186 q 519 1113 539 1108 q 490 1128 500 1118 q 497 1149 492 1133 q 504 1176 503 1164 q 506 1203 506 1189 q 654 1239 575 1239 q 743 1220 713 1239 q 774 1171 774 1201 q 754 1121 774 1139 q 699 1082 735 1103 q 660 1058 674 1068 q 643 1035 647 1049 q 641 1026 643 1031 q 640 1013 639 1021 q 613 1011 632 1011 q 572 1015 589 1011 z "},"Ữ":{"ha":975,"x_min":131,"x_max":1131,"o":"m 1107 1111 q 1131 1031 1131 1075 q 1083 924 1131 965 q 961 874 1035 882 q 903 844 922 861 q 873 793 883 826 q 850 692 863 760 l 792 358 q 671 78 758 168 q 426 -12 583 -12 q 203 56 276 -12 q 131 253 131 124 q 140 356 131 306 l 210 758 q 217 815 217 796 q 202 856 217 842 q 150 876 188 871 q 147 911 147 886 q 149 943 147 932 q 315 939 215 939 q 493 943 424 939 q 479 876 490 903 q 414 860 435 871 q 381 824 393 850 q 360 742 369 799 l 293 363 q 283 264 283 313 q 329 115 283 164 q 460 67 375 67 q 624 140 558 67 q 713 346 689 213 l 775 706 q 785 786 785 764 q 767 842 785 821 q 704 876 749 863 q 701 913 701 888 q 703 943 701 932 q 842 939 761 939 q 926 940 906 939 q 987 960 967 943 q 1014 1014 1007 978 q 1018 1047 1018 1029 q 1013 1096 1018 1063 q 1059 1109 1031 1104 q 1107 1111 1088 1114 m 696 1036 q 649 1043 669 1036 q 599 1064 628 1050 q 578 1073 594 1065 q 546 1084 561 1081 q 517 1088 531 1088 q 406 1040 468 1088 q 390 1104 386 1065 q 564 1185 472 1185 q 665 1157 610 1185 q 705 1141 689 1146 q 739 1136 721 1136 q 826 1178 779 1136 q 869 1140 860 1163 q 696 1036 790 1036 z "},"Ű":{"ha":892,"x_min":131,"x_max":982,"o":"m 426 -12 q 203 56 276 -12 q 131 253 131 124 q 140 356 131 306 l 210 758 q 217 815 217 796 q 202 856 217 842 q 150 876 188 871 q 147 911 147 886 q 149 943 147 932 q 315 939 215 939 q 493 943 424 939 q 479 876 490 903 q 414 860 435 871 q 381 824 393 850 q 360 742 369 799 l 293 363 q 283 264 283 313 q 329 115 283 164 q 460 67 375 67 q 624 140 558 67 q 713 346 689 213 l 775 706 q 785 786 785 764 q 767 842 785 821 q 704 876 749 863 q 701 913 701 888 q 703 943 701 932 q 842 939 761 939 q 982 943 921 939 q 968 876 982 906 q 907 847 926 863 q 875 797 888 831 q 850 692 863 764 l 792 358 q 671 78 758 168 q 426 -12 583 -12 m 515 1019 q 450 1046 479 1024 q 519 1138 488 1090 q 567 1222 550 1186 q 625 1226 596 1226 q 725 1208 688 1226 q 515 1019 621 1122 m 746 1019 q 682 1046 711 1024 q 750 1138 719 1090 q 797 1222 781 1186 q 856 1226 826 1226 q 956 1208 919 1226 q 746 1019 868 1136 z "},"Ȗ":{"ha":892,"x_min":131,"x_max":982,"o":"m 426 -12 q 203 56 276 -12 q 131 253 131 124 q 140 356 131 306 l 210 758 q 217 815 217 796 q 202 856 217 842 q 150 876 188 871 q 147 911 147 886 q 149 943 147 932 q 315 939 215 939 q 493 943 424 939 q 479 876 490 903 q 414 860 435 871 q 381 824 393 850 q 360 742 369 799 l 293 363 q 283 264 283 313 q 329 115 283 164 q 460 67 375 67 q 624 140 558 67 q 713 346 689 213 l 775 706 q 785 786 785 764 q 767 842 785 821 q 704 876 749 863 q 701 913 701 888 q 703 943 701 932 q 842 939 761 939 q 982 943 921 939 q 968 876 982 906 q 907 847 926 863 q 875 797 888 831 q 850 692 863 764 l 792 358 q 671 78 758 168 q 426 -12 583 -12 m 664 1208 q 812 1171 761 1208 q 863 1061 863 1133 q 858 1017 863 1040 q 785 1004 819 1000 q 745 1083 786 1054 q 633 1111 704 1111 q 513 1083 563 1111 q 450 1004 464 1054 q 431 1003 443 1003 q 392 1011 406 1003 q 480 1157 410 1106 q 664 1208 550 1208 z "},"Ū":{"ha":892,"x_min":131,"x_max":982,"o":"m 426 -12 q 203 56 276 -12 q 131 253 131 124 q 140 356 131 306 l 210 758 q 217 815 217 796 q 202 856 217 842 q 150 876 188 871 q 147 911 147 886 q 149 943 147 932 q 315 939 215 939 q 493 943 424 939 q 479 876 490 903 q 414 860 435 871 q 381 824 393 850 q 360 742 369 799 l 293 363 q 283 264 283 313 q 329 115 283 164 q 460 67 375 67 q 624 140 558 67 q 713 346 689 213 l 775 706 q 785 786 785 764 q 767 842 785 821 q 704 876 749 863 q 701 913 701 888 q 703 943 701 932 q 842 939 761 939 q 982 943 921 939 q 968 876 982 906 q 907 847 926 863 q 875 797 888 831 q 850 692 863 764 l 792 358 q 671 78 758 168 q 426 -12 583 -12 m 375 1060 q 378 1095 375 1075 q 388 1128 381 1115 l 875 1128 q 863 1065 875 1099 q 375 1060 564 1065 z "},"Ṻ":{"ha":892,"x_min":131,"x_max":982,"o":"m 426 -12 q 203 56 276 -12 q 131 253 131 124 q 140 356 131 306 l 210 758 q 217 815 217 796 q 202 856 217 842 q 150 876 188 871 q 147 911 147 886 q 149 943 147 932 q 315 939 215 939 q 493 943 424 939 q 479 876 490 903 q 414 860 435 871 q 381 824 393 850 q 360 742 369 799 l 293 363 q 283 264 283 313 q 329 115 283 164 q 460 67 375 67 q 624 140 558 67 q 713 346 689 213 l 775 706 q 785 786 785 764 q 767 842 785 821 q 704 876 749 863 q 701 913 701 888 q 703 943 701 932 q 842 939 761 939 q 982 943 921 939 q 968 876 982 906 q 907 847 926 863 q 875 797 888 831 q 850 692 863 764 l 792 358 q 671 78 758 168 q 426 -12 583 -12 m 375 1060 q 378 1095 375 1075 q 388 1128 381 1115 l 875 1128 q 863 1065 875 1099 q 375 1060 564 1065 m 514 1203 q 462 1223 481 1203 q 443 1279 443 1243 q 444 1301 443 1293 q 470 1349 449 1332 q 526 1367 492 1367 q 581 1349 561 1367 q 600 1300 600 1331 q 597 1275 600 1292 q 569 1222 590 1240 q 514 1203 547 1203 m 794 1204 q 740 1224 760 1204 q 721 1276 721 1243 q 744 1343 721 1319 q 810 1367 767 1367 q 862 1348 843 1367 q 881 1297 881 1329 q 858 1228 881 1253 q 794 1204 835 1204 z "},"Ų":{"ha":892,"x_min":131,"x_max":982,"o":"m 842 939 q 982 943 921 939 q 968 876 982 906 q 907 847 926 863 q 875 797 888 831 q 850 692 863 764 l 792 358 q 708 124 765 210 q 554 6 650 38 q 460 -72 493 -26 q 426 -164 426 -117 q 445 -213 426 -194 q 497 -232 464 -232 q 542 -219 524 -232 q 569 -276 565 -243 q 461 -356 504 -312 q 431 -360 446 -360 q 329 -328 368 -360 q 290 -236 290 -296 q 425 -12 290 -110 q 203 56 276 -12 q 131 253 131 124 q 140 356 131 306 l 210 758 q 217 815 217 796 q 202 856 217 842 q 150 876 188 871 q 147 911 147 886 q 149 943 147 932 q 315 939 215 939 q 493 943 424 939 q 479 876 490 903 q 414 860 435 871 q 381 824 393 850 q 360 742 369 799 l 293 363 q 283 264 283 313 q 329 115 283 164 q 460 67 375 67 q 624 140 558 67 q 713 346 689 213 l 775 706 q 785 786 785 764 q 767 842 785 821 q 704 876 749 863 q 701 913 701 888 q 703 943 701 932 q 842 939 761 939 z "}}}
